<svg xmlns="http://www.w3.org/2000/svg" viewBox="0 0 27.0592 25.132133" height="25.132" width="27.059"><defs><clipPath id="a"><path d="M0 18.85h20.294V0H0z"/></clipPath></defs><g clip-path="url(#a)" transform="matrix(1.33333 0 0 -1.33333 0 25.132)"><path d="M17.017 7.284H3.277l-.81 2.836h15.36zM15.364 1.5H4.93L3.708 5.784h12.88zm4.18 10.12h-3.15l-3.407 6.814c-.185.37-.635.52-1.007.336-.37-.186-.52-.636-.335-1.007l3.07-6.143H5.58l3.07 6.143c.185.37.035.82-.335 1.007-.37.184-.82.035-1.006-.336L3.9 11.62H.75c-.414 0-.75-.336-.75-.75s.336-.75.75-.75h.158l.855-2.99c-.187-.138-.316-.347-.316-.596 0-.396.31-.71.696-.74L3.8 0h12.696l1.656 5.795c.388.028.698.343.698.74 0 .248-.13.458-.317.595l.855 2.99h.157c.414 0 .75.336.75.75s-.336.75-.75.75" fill="#231f20"/></g></svg>