<svg xmlns="http://www.w3.org/2000/svg" viewBox="0 0 19.9492 36.957733" height="36.958" width="19.949"><defs><clipPath id="a"><path d="M0 27.718h14.962V0H0z"/></clipPath></defs><g clip-path="url(#a)" transform="matrix(1.33333 0 0 -1.33333 0 36.958)"><path d="M7.845 17.743c.117-.254.254-.486.414-.698.078-.022.202-.003.204-.1 1.193-.056 2.2.07 3.096.3 0-1-.27-1.734-.518-2.493-.662-.045-1.467-.3-1.958-.198-.276-.165-.372-.506-.62-.698-.05-.442.142-.495 0-.797-.2-.138-.055-.612-.205-.797v-1.496c.084-.28-.146-.258-.104-.497V6.782c-.085-.282.146-.258.103-.498v-2.99c.063-.27-.133-.79.102-.896-.07-.364-.413.02-.825-.1-.528-.122-.925-.37-1.547-.4.117.352.32.622.31 1.096.05.38-.365.312-.516.5.194.642.563 1.116.722 1.79.197.516.714 1.3.31 1.795-.523.105-.522-.294-.826-.4-.023-.076-.002-.195-.103-.198-.023-.077-.003-.197-.103-.2.01-.12-.15-.06 0 0 .023.08.002.198.103.2.023.077.002.197.103.2v.298c.368.575.67 1.214.826 1.993.19.28.283.656.412.997.156.262.34.87.104 1.195-.516-.033-.796-.295-.93-.697-.32.19.162.434.105.697.138.232.17.567.31.797.2.413.563 1.304 0 1.596-.44.023-.614-.207-.724-.498-.214-.192-.43-.383-.516-.698-.373.07-.142.726-.206 1.096-.066.52.123.9 0 1.196-.558.798-2.025.105-3.196.298-.108.307-.222.985-.103 1.196 1.046.088 2.48-.2 3.198.2.024.077.003.196.103.198.095.723-.27 1-.513 1.396.232.805.04 2.02.103 2.99.234.14.328.413.515.597.112.954.673 1.474.722 2.49-.274 0-.608.056-.62-.198-.3.114-.38-.48-.514-.2-.113.54.246.626.308.997.6.417 1.213.82 1.858 1.195 1.74.244 4.648.45 6.086-.198.05-.617-.287-.854-.207-1.497H11.56c-1.09-.24-1.986-.67-2.99-.997-.24-.066-.277-.33-.516-.398-.036-.397-.225-.647-.31-.996-.08-1.44.13-2.597.1-3.987m3.818 4.783c1.027-.03 1.994 0 2.68.3.392.817.557 1.854.62 2.99-.19.013-.062.336-.207.398-.03.202-.278.195-.308.398-.278.165-.457.422-.723.598-.727.16-1.44.335-2.164.498-.85-.044-1.895.103-2.58-.1-2.62.04-3.997-1.12-5.26-2.39-.022-.08-.003-.198-.104-.2-.575-1.587-.125-3.62-.205-5.58.1-.437.11-.96.206-1.396-1-.296-2.212-.386-3.403-.5-.317-.322-.178-1.088-.206-1.692.085-.583.278-1.06.413-1.595.21-.193.596-.396.825-.498.065-.03.072-.082.103-.1.506-.267 1.45-.007 2.268-.1-.137-1.977.255-3.914 0-5.68.006-.326.294-.38.207-.797 0-.962-.067-1.99.208-2.69-.287-.455-.496-.982-.414-1.794.122-.016.113-.157.104-.3-.074-.47.644-.174.516-.697.162-.457-.428-.185-.413-.5V.205c.53-.285 1.462-.18 2.268-.2.91.42 2.19.48 2.786 1.197.46-.234.916.015 1.24.2-.02.316.272.334.204.7-.004.327-.173.495-.103.895v2.89c-.206 2.292-.048 4.938-.31 7.175.89.105 1.918.075 2.58.398.357.452.377 1.23.515 1.895.177.225.22.583.206.996.19.212.07.728.104 1.095-.14.595-.168 1.3-.825 1.395-.884.235-2.043-.596-2.992-.3.05 1.135-.293 2.343 0 3.39.747.175 1.448.394 2.167.596" fill="#231f20"/></g></svg>