<svg xmlns="http://www.w3.org/2000/svg" viewBox="0 0 205.84534 260.43332" height="260.433" width="205.845"><defs><clipPath id="a"><path d="M0 195.325h154.384V0H0z"/></clipPath></defs><path d="M191.803 93.807l-89.36-52.677v-.014l-.01.007-.012-.007v.014L14.044 93.746V23.438l88.88-9.32 88.88 9.32zm-.072 9.323l-24.314 14.325-11.225 6.613-53.53-31.845-.09 9.268 45.757 27.21-.406.24-.984.58-6.5 3.83-37.777-22.472-.09 9.268 29.817 17.73-7.035 4.706-.17.102-22.523-13.268-.09 9.267 14.78 8.704-15.055 9.04-88.06-52.347 88.186-53.006v.01zm.073 88.078l-88.88 52.884-88.88-52.884v-76.82l88.498 52.674.15 9.546-60.713-36.133-.09 9.268 60.954 36.633.152 9.8-60.933-36.248-.09 9.267 60.953 36.633 61.536-36.82v-9.31l-.077.045V129.47l27.42-16.375zM103.996.782L102.92.67.667 11.39v187.424l102.256 60.844 102.256-60.844V11.39z"/><g clip-path="url(#a)" transform="matrix(1.33333 0 0 -1.33333 0 260.433)"><path d="M143.852 124.97l-67.02 39.508v.01l-.008-.005-.008.005v-.01l-66.284-39.462v52.73l66.66 6.99 66.66-6.99zm-.054-6.992l-18.236-10.744-8.42-4.96-40.148 23.884-.066-6.95L111.245 98.8l-.304-.18-.738-.435-4.876-2.872-28.332 16.854-.066-6.95 22.362-13.3-5.276-3.528-.128-.078-16.892 9.95-.066-6.95 11.084-6.527-11.29-6.78-66.045 39.26 66.14 39.755v-.007zm.054-66.06l-66.66-39.662-66.66 39.663v57.614L76.906 70.03l.11-7.16-45.533 27.1-.067-6.952L77.13 55.543l.114-7.35-45.7 27.186-.066-6.95 45.714-27.476 46.152 27.616v6.982l-.057-.034v22.705l20.565 12.28zM77.997 194.74l-.807.085-76.69-8.04V46.215L77.192.582l76.692 45.633v140.568z" fill="none" stroke="#231f20" stroke-miterlimit="10"/></g></svg>