<svg xmlns="http://www.w3.org/2000/svg" viewBox="0 0 72.208397 30.910801" height="30.911" width="72.208"><defs><clipPath id="a"><path d="M0 23.183h54.156V0H0z"/></clipPath></defs><g clip-path="url(#a)" transform="matrix(1.33333 0 0 -1.33333 0 30.91)"><path d="M40.312 17.472c-3.647.97-7.84 1.667-12.36 1.666-2.89 0-5.457-.243-7.71-.623l-6.785 4.668-13.456-.005 5.813-6.184h8.447C9.68 15.396 7.5 13.48 7.5 13.48L7.502 9.7s2.314-1.912 6.93-3.517L5.81 6.19 0 .002 13.454 0l6.816 4.693c2.263-.4 4.824-.648 7.683-.65 4.522.002 8.712.7 12.36 1.668-1.177 1.777-1.916 3.744-1.92 5.878.005 2.14.74 4.11 1.92 5.884M43.734 16.438c-1.284-1.605-1.97-3.25-1.965-4.84-.008-1.598.676-3.24 1.967-4.848 6.4 2.163 10.42 4.841 10.42 4.841 0 .002-4.02 2.68-10.423 4.848"/></g></svg>