<svg xmlns="http://www.w3.org/2000/svg" viewBox="0 0 42.629601 49.734402" height="49.734" width="42.63"><defs><clipPath id="a"><path d="M0 37.3h31.972V0H0z"/></clipPath></defs><g clip-path="url(#a)" transform="matrix(1.33333 0 0 -1.33333 0 49.734)"><path d="M0 15.986C0 7.16 7.158 0 15.986 0c0 8.828-7.158 15.986-15.986 15.986m15.986 13.32c2.45 0 4.44-1.988 4.44-4.44 0-2.45-1.99-4.44-4.44-4.44s-4.44 1.99-4.44 4.44c0 2.452 1.99 4.44 4.44 4.44M4.626 20.87c0-2.45 1.99-4.44 4.44-4.44.934 0 1.805.293 2.515.782l-.035-.337c0-2.452 1.99-4.442 4.44-4.442 2.452 0 4.44 1.99 4.44 4.442l-.035.337c.72-.497 1.582-.783 2.514-.783 2.45 0 4.44 1.99 4.44 4.44 0 1.768-1.038 3.286-2.54 3.997 1.492.71 2.54 2.23 2.54 3.996 0 2.45-1.99 4.44-4.44 4.44-.932 0-1.803-.292-2.514-.78l.036.337c0 2.45-1.99 4.44-4.44 4.44s-4.44-1.99-4.44-4.44l.035-.337c-.72.497-1.58.78-2.513.78-2.45 0-4.44-1.99-4.44-4.44 0-1.767 1.04-3.286 2.54-3.996-1.5-.71-2.54-2.23-2.54-3.997M15.987 0C24.812 0 31.97 7.16 31.97 15.986c-8.828 0-15.986-7.158-15.986-15.986" fill="#231f20"/></g></svg>