<svg xmlns="http://www.w3.org/2000/svg" viewBox="0 0 62.100266 36.442001" height="36.442" width="62.1"><defs><clipPath id="a"><path d="M0 27.332h46.575V0H0z"/></clipPath></defs><g clip-path="url(#a)" transform="matrix(1.33333 0 0 -1.33333 0 36.442)"><path d="M3.023 24.615h40.202V2.382H3.023zm39.647 2.717H3.904C1.748 27.332 0 25.582 0 23.427V3.905C0 1.75 1.748 0 3.904 0H42.67c2.156 0 3.905 1.75 3.905 3.905v19.522c0 2.156-1.75 3.905-3.905 3.905"/><path d="M23.288 18.813c2.936 0 5.315-2.38 5.315-5.314 0-2.938-2.38-5.317-5.315-5.317-2.936 0-5.314 2.38-5.314 5.315 0 2.935 2.378 5.315 5.314 5.315M6.928 6.287h32.395V20.71H6.928z"/></g></svg>