<svg xmlns="http://www.w3.org/2000/svg" viewBox="0 0 45.830666 45.830132" height="45.83" width="45.831"><defs><clipPath id="a"><path d="M0 34.373h34.373V0H0z"/></clipPath></defs><g clip-path="url(#a)" transform="matrix(1.33333 0 0 -1.33333 0 45.83)"><path d="M.286 20.304c-.382-2.073-.384-4.21.008-6.3l4.12 3.21zM24.403 32.787C19.62 34.995 13.96 34.93 9.15 32.38l7.512-5.625zM33.9 21.198l-4.81-3.748 4.936-3.695c.496 2.444.463 4.987-.125 7.443M9.21 1.96c4.843-2.535 10.723-2.65 15.73-.114l-8.097 6.06zM7.914 19.94L1.68 24.605c-.32-.67-.594-1.356-.824-2.057l5.308-3.974zM18.593 9.27l8.336-6.24c.276.19.55.39.82.6.318.247.624.504.92.77l-8.327 6.234zM11.413 22.666l-7.41 5.55c-.464-.553-.886-1.13-1.27-1.725l6.93-5.187zM22.093 11.997l8.092-6.06c.47.545.904 1.114 1.297 1.703l-7.64 5.72zM14.913 25.392L7.197 31.17c-.193-.138-.385-.28-.574-.427-.396-.31-.773-.632-1.135-.967l7.675-5.747zM25.592 14.724l6.972-5.22c.33.66.615 1.34.855 2.032l-6.078 4.55zM26.448 31.667L.88 11.747c.233-.7.512-1.387.84-2.06L28.24 30.35c-.573.482-1.172.92-1.792 1.317M30.743 27.75c-.3.385-.614.753-.94 1.105L2.787 7.805c.262-.402.542-.796.843-1.182.14-.183.286-.36.434-.534l27.09 21.106c-.133.186-.268.37-.41.553M32.298 25.374L5.552 4.534c.544-.5 1.114-.962 1.707-1.382L33.22 23.38c-.263.678-.57 1.344-.924 1.994" fill="#231f20"/></g></svg>