<svg xmlns="http://www.w3.org/2000/svg" viewBox="0 0 43.554668 43.315067" height="43.315" width="43.555"><defs><clipPath id="a"><path d="M0 32.486h32.666V0H0z"/></clipPath></defs><g clip-path="url(#a)" transform="matrix(1.33333 0 0 -1.33333 0 43.315)"><path d="M17.27 0h12.507v13.91H17.27zm1.982 27.586c.557.797 1.21 1.466 1.887 1.916.678.45 1.36.683 2.046.683h.005c.576 0 1.12-.22 1.496-.55.377-.336.57-.74.573-1.17-.005-.513-.274-1.26-1.468-2.133-1.138-.825-3.1-1.673-6.127-2.265.29 1.202.847 2.472 1.587 3.52M8.715 25.958c-.622.39-1 .784-1.22 1.134-.22.353-.294.662-.296.963-.005.504.247 1.042.69 1.46.437.416 1.03.668 1.563.668h.013c.684 0 1.366-.232 2.046-.683 1.017-.67 1.974-1.85 2.644-3.187.342-.675.61-1.39.79-2.086-3.083.32-5.08 1-6.23 1.73m22.36-2.34h-7.334c.522.267.985.55 1.397.845 1.587 1.133 2.423 2.57 2.42 4 0 1.168-.557 2.2-1.36 2.9-.805.704-1.87 1.12-3.016 1.12-1.22.002-2.352-.42-3.32-1.068-1.46-.98-2.607-2.45-3.425-4.067-.04-.08-.08-.158-.116-.237-.3.623-.647 1.226-1.04 1.792-.692.986-1.524 1.86-2.498 2.51-.97.648-2.102 1.07-3.322 1.07-1.213-.004-2.323-.513-3.155-1.295-.83-.783-1.412-1.884-1.414-3.134 0-.73.21-1.494.65-2.188.552-.872 1.424-1.628 2.633-2.248H1.59c-.877 0-1.59-.712-1.59-1.59v-5.897h15.396v7.488h1.874v-7.487h15.396v5.897c.002.88-.71 1.59-1.59 1.59M2.897 0h12.503v13.91H2.894z" fill="#231f20"/></g></svg>