<svg xmlns="http://www.w3.org/2000/svg" viewBox="0 0 29.024799 28.445333" height="28.445" width="29.025"><defs><clipPath id="a"><path d="M0 21.334h21.77V0H0z"/></clipPath></defs><g clip-path="url(#a)" transform="matrix(1.33333 0 0 -1.33333 0 28.445)"><path d="M13.188 13.667c.21-.12.44-.217.605-.38.086-.22.245-.364.38-.53.06-.778.18-1.492.153-2.354-.258-.098-.44-.27-.684-.38-.78.005-1.357.21-1.896.456-.172.257-.357.503-.534.757V12.3c.17.184.32.39.457.607.226.127.506.2.453.608-.038.06-.078.124-.075.228.158-.045.244-.16.378-.228.323-.02.41.2.76.152m1.14-3.796c-.235.058-.146-.207-.38-.15.07.158.12.337.23.454.132-.02.17-.13.15-.303m-2.202-2.58c.034.11.066-.008.152 0-.02-.097-.15-.076-.152 0m-.76 2.885c-.04.038.055.096.077.076.04-.038-.053-.097-.074-.075m-.38 3.947c-.204-.258.04-.576.076-.836-.305.04-.573.888-.077.836m-1.67-2.125c.015.086.075.042.075 0-.014-.087-.075-.043-.075 0m-.456-2.05c.04.116.078.005.075-.076-.04-.116-.08-.004-.076.076m-.076.305c-.114.064-.11.245-.153.38.257.078.12-.236.154-.38M12.2 14.58c-.223.232-.676.234-.987.38-.697.037-1.222-.094-1.746-.23-.304-.15-.608-.303-.91-.453-.266-.166-.445-.418-.76-.532-.205-.224-.35-.51-.683-.607-.004-.223-.173-.282-.304-.38-.09-.114-.094-.31-.227-.38-.008-.12.035-.29-.077-.303.11-1.51.29-2.948.683-4.177.286-.623.975-.845 1.44-1.29.59-.296 1.33-.444 2.127-.53.278.05.553.105.91.075 1.21.21 2.1.738 2.81 1.443.1.28.253.508.456.683-.254.67.293 1.098.455 1.596.002 1.344-.2 2.48-.607 3.415-.254.58-.918.752-1.365 1.14-.058.016-.15.002-.15.075-.27.13-.734.233-1.066.076m1.14 1.82c-.112-.045.005-.09-.002 0m-2.808.61c.02-.022.114.036.075.076-.02.02-.115-.037-.076-.077m.532.38c-.316.073-.016-.228 0 0m2.276-.988c.534.048.75.415 1.215.53.284.3.784.382.988.76-.56-.023-.765-.4-1.215-.53-.284-.297-.75-.414-.987-.76m-2.276.987c.346.134.613.347.834.607-.348-.134-.614-.348-.834-.607m.834.607c.064-.014.072.03.077.076-.066.014-.072-.03-.077-.076m.077.076c.064-.014.07.03.075.076-.064.014-.072-.03-.075-.076m.075.076c.11.046-.007.092 0 0m.683.608c-.11-.047.008-.092 0 0m.685-.836c.726.158 1.18.59 1.746.91-.436-.017-.59-.32-.987-.378-.215-.216-.6-.26-.758-.532m1.746.91c.11.048-.007.093 0 0m-1.062.608c-.53-.154-1.018-.348-1.367-.682.485.198 1.06.306 1.368.682m0 0c.11.048-.01.092 0 0m5.845-3.72c-.64.12-1.233.285-1.898.38.073.333.8.01.988.227.384.223.295.92.303 1.52.034.346.116.642.078 1.062-.403.95-1.785.42-2.887.455-.225-.717-.47-1.8-.304-2.656.17-.49 1.026-.293 1.52-.456-.14-.332-.69-.058-.988-.076-.296.083-.707.052-.986.15-2.287-.076-4.285-.003-6.53-.15.116 1.247.062 2.465-.077 3.644h3.112c-.344-.364-.912-.506-1.29-.835-.44-.243-.86-.504-1.14-.91.25-.133.536.245.76.38.355.073.48.38.835.454.424.44 1.097.626 1.67.912.38.023.698-.013.988-.076 1.282-.008 2.455-.127 3.795-.076.614-.145 1.45-.07 1.974-.304.107-.297.23-.58.304-.91.01-.997-.146-1.827-.226-2.733m-.38-11.16c-.11-.954-.158-1.968-.38-2.81-2.89-.122-6.018-.004-8.882-.152-.2-.045-.273.03-.228.228-.253 0-.258-.247-.532-.228.202.336.438.898.152 1.29-.797-.012-.797-.82-1.138-1.29-.685.052-1.137-.127-1.823-.075.18.705.75 1.02.91 1.745-.394.55-.988-.138-1.213-.455-.203-.48-.556-.81-.76-1.29h-.986c.238.468.49.925.76 1.366.17.51.624.74.68 1.367-.156.28-.418.03-.68 0-.124-.182-.274-.335-.38-.53-.233-.377-.502-.715-.685-1.14-.18-.21-.336-.004-.53-.228-.39-.27-.58-.736-.99-.987-.173.06.04.357.154.38.046.18-.096.55.075.607.063.367.21.648.378.91.12.743.522 1.2.684 1.9-.56-.1-.674-.644-.987-.988-.213-.446-.542-.773-.683-1.29-.174.13-.028.58-.076.835.122.586.298 1.12.38 1.746.132.22.172.535.228.834.168.21.046.61-.077.76-.226-.027-.374-.132-.455-.303-.192.03-.193-.507-.304-.305-.045 2.587-.45 4.813-.456 7.44.027.33-.182.423-.227.683 1.63-.028 3.12-.09 4.783-.228-.09-.14-.2-.257-.304-.38-.144-.07-.226-.172-.38-.303-.603-1.653-.974-3.984-.606-6.15.228-.58.59-1.03.986-1.442.907-.485 1.635-1.15 2.506-1.67 1.7-.362 3.84-.37 5.54 0 .238.12.486.225.687.38 1.363 1.24 2.75 2.458 2.96 4.86v1.366c-.198 1.598-.69 2.906-1.748 3.644.33.22 1.098-.043 1.67-.076.223-.013.448-.014.684 0 .408.024.928.055 1.443 0 .144-.186.114-.544.228-.76-.062-1.683-.193-3.3-.153-5.087.103-.453.127-.985.23-1.44-.09-.975-.236-1.892-.457-2.733M1.345 15.64v1.594c.195.185.395.365.607.533.295-.49.178-1.392.455-1.898-.276-.157-.75-.11-1.063-.23m-.076 3.265c.226.205.45.41.684.608-.022.122.07.13.076.227h.228c.102-.38-.26-.296-.304-.53.02-.123-.073-.132-.076-.228.02-.336.122-.588.076-.988-.27-.008-.276-.28-.608-.227.024.428-.134.674-.076 1.138m.456.76c-.034-.22-.326-.18-.38-.38-.214.17.084.468.38.38m.986.075c.03-.26-.438-.32-.378 0zm.684-3.72c.148.03.11-.345-.076-.228.04.062.08.124.076.228m.228 3.72c.033-.158-.052-.2-.076-.304-.175-.023-.084.22-.228.23.024.102.19.062.304.074m0-1.138c-.263-.054-.273.266-.153.38.262.053.27-.267.152-.38m-.228-2.05c.077.31.034.303.075.682.228-.012.26-.77-.076-.682m.152.987c-.204-.022-.216.533-.077.606.327-.006.248-.5.076-.607m.532 0c.006.107.012.213-.077.227-.07.733.13 1.415 0 1.973.25.155.77.042 1.14.077v-1.14c-.088-.063-.203-.1-.38-.075-.053-.28.325-.132.38-.304.008-.853-.056-1.777.152-2.43-.565.06-.906-.106-1.442-.075.097.612-.018 1.435.53 1.594-.01.14-.256.047-.302.152m2.353-1.217c.176.025.085-.218.23-.227-.01-.193-.285-.18-.38-.076.038.112.112.192.15.303m.153.23c-.058-.14-.082.044-.076.15.058.14.08-.045.076-.15m0 1.365c-.132.07-.168.237-.152.456.133-.07.17-.238.153-.456M6.43 19.74c.09.013.135-.016.153-.076.18-.253.01-.683-.076-.91-.174.178-.027.68-.076.986m.684-1.594c-.117.263-.067.692-.075 1.063-.008.283.276.277.302.53-.003.074-.092.06-.152.076.127.146.7.097.835 0 .132-.537-.355-.455-.53-.683.01-.168.32-.032.455-.076.03-.854-.06-1.496 0-2.202h-.456c-.007-.234.228-.226.456-.228-.06-.286.092-.363.075-.607-.226-.153-.716-.043-1.062-.076-.103.594.236 1.375.15 2.202m1.672-2.733c.757.153 1.48.34 2.428.304.71-.075 1.287-.282 1.898-.455.117-.184-.242-.547.154-.684v-.076c.06-.017.15-.002.152-.076.445-.035.793-.167 1.063-.38.45-.054.535-.475 1.137-.38-.09-.212-.084-.523-.075-.834.324-1.183.474-2.81.302-4.252-.164-.163-.215-.442-.302-.683-.31-.322-.482-.785-.836-1.062-.095-.236-.25-.408-.455-.533-.115-.213-.205-.452-.456-.53-.297-.164-.577-.01-.834.076-.446-.162-.904-.312-1.214-.608-.817.096-1.65.175-2.43.304-.242.14-.487.273-.835.305-.226.203-.495.363-.835.454-.1.127-.337.118-.455.228-.198.03-.23.227-.456.23-.118.41-.442.617-.53 1.06-.227.33-.31.805-.456 1.215-.043 1.434.09 2.692.38 3.796.345.59.778 1.094 1.137 1.67.25-.02.365.09.38.304.306-.053.434.072.684.075.254.074.265.39.455.53m12.98-6.224c-.012 2.395-.343 4.79-.302 7.135-.023.788-.086 1.535-.152 2.28-.104.298-.11.698-.15 1.06-.26.17-.223.64-.457.837-.423.233-1.202.113-1.744.227-.66.026-1.255.115-1.9.152-1.936.1-3.974.075-5.997.075-2 0-3.954.145-5.695.38H3.166c-.097-.005-.105-.1-.227-.077-.6-.034-1.078-.188-1.596-.303-.21-.12-.42-.236-.683-.305-.135-.192-.512-.144-.606-.38-.186-.21.185-.45 0-.606v-.91c.174-.13.028-.58.075-.836v-.987c-.017-1.28.133-2.397.076-3.72C.673 10.45.58 6.675.282 3.8c.155-.58.363-1.106.455-1.746.256-.48.335-1.133.683-1.52C1.922.326 2.653.347 3.318.304 3.7.206 3.985.01 4.458 0 7.3.21 9.954.154 12.884.23c2.704-.242 5.802-.19 8.276.226.195.134.128.53.227.76-.055.385.207.45.228.76.133 2.39.165 4.786.15 7.212" fill="#231f20"/></g></svg>