<svg xmlns="http://www.w3.org/2000/svg" viewBox="0 0 53.625599 83.214798" height="83.215" width="53.626"><defs><clipPath id="a"><path d="M0 62.41h40.22V0H0z"/></clipPath></defs><g clip-path="url(#a)" transform="matrix(1.33333 0 0 -1.33333 0 83.215)"><path d="M15.178 24.453c-.286-.966-.245-2.19.027-3.64.494-2.633 1.686-6.04 2.358-9.67h5.062c.697 3.642 1.95 7.05 2.47 9.684.288 1.445.33 2.66.04 3.617-.273.9-.89 1.618-2.02 2.303h-5.997c-1.074-.68-1.674-1.39-1.94-2.294M27.01 4.458h-13.8c-1.293 0-2.3-.976-2.3-2.23V0H29.308v2.23c0 1.252-1.006 2.228-2.3 2.228M34.142 60.182H22.41c0 1.244-1.016 2.23-2.3 2.23-1.284 0-2.3-.986-2.3-2.23H6.072L0 34.665c.794.462 1.59.993 2.632.993 1.36 0 2.242-.818 2.924-1.376.682-.557 1.16-.85 1.447-.85.29 0 .768.29 1.45.837.682.548 1.564 1.357 2.916 1.357 1.347 0 2.235-.805 2.918-1.353.683-.55 1.16-.84 1.45-.84.147 0 .34.072.58.214.242.14.53.352.872.626.512.41 1.14.968 1.99 1.22.284.084.592.134.93.134 1.346 0 2.237-.805 2.92-1.354.682-.548 1.158-.84 1.45-.84.287.002.766.296 1.446.85.684.553 1.57 1.366 2.924 1.366 1.357 0 2.24-.817 2.92-1.37.342-.277.63-.49.872-.632.24-.143.43-.214.574-.214.288 0 .762.293 1.443.854.68.56 1.566 1.384 2.927 1.384 1.045 0 1.84-.533 2.632-.997zM23.523 8.916H16.66c-.658 0-1.15-.48-1.15-1.115 0-.634.492-1.113 1.15-1.113h6.9c.654 0 1.15.48 1.15 1.114 0 .637-.496 1.116-1.15 1.116zM20.11 33.4c-.147 0-.34-.074-.58-.213-.157-.094-.37-.26-.57-.41v-3.73h2.3v3.73c-.507.38-.91.623-1.15.623"/></g></svg>