<svg xmlns="http://www.w3.org/2000/svg" viewBox="0 0 149.85201 61.449867" height="61.45" width="149.852"><defs><clipPath id="a"><path d="M0 46.087h112.39V0H0z"/></clipPath></defs><g clip-path="url(#a)" transform="matrix(1.33333 0 0 -1.33333 0 61.45)"><path d="M110.228 4.207c4.394-.868.843 35.858.147 38.31-1.96 6.57-26.676 2.144-32.18 1.718-12.722-.987-25.188.96-37.61.376-6.206-.292-34.854 1.814-37.52-1.986C-1.983 35.417.413 16.827 1.788 7.55c-4.043-.78 2.308-4.156 3.137-4.9 6.315-2.19 16.36.22 23.008-.394C43.367.784 59.73 4.45 75.208 3.21c4.497-1.143 9.604-1.018 14.224-1.238 3.414-5.573 19.664 2.46 20.796 2.235-.1.02.507-.1 0 0"/><path d="M26.06 21.678c-.08 2.546-.485 5.074-.452 7.624.027 2.064.37 4.185-.34 6.164.043.224.09.448.13.674.185.992-3.102.467-3.618-.44-.325-.266-.492-.584-.354-.908.034-.08.065-.164.096-.247-.623-3.04-1.49-5.985-2.487-8.93-.383-1.13-.843-2.23-1.232-3.355-.554 1.05-1.11 2.084-1.56 3.206-1.303 3.257-2.48 6.55-4.07 9.685.182 1.452-3.038 1.3-3.673-.03-.767-1.607-.668-3.23-.415-4.948.285-1.938.334-3.842.358-5.8.045-3.77.34-7.537.396-11.31-.336-.372-.44-.835-.088-1.305.154-.203.344-.362.542-.52.86-.687 3.323-.1 3.318 1.207-.013 3.91-.295 7.815-.4 11.726-.01.383-.015.766-.02 1.15.054-.138.107-.276.162-.412.607-1.522 1.243-3 2.073-4.416.823-1.4 1.236-2.908 1.71-4.437-.178-.206-.286-.44-.22-.674-.037-.168.067-.274.24-.34.605-.52 1.746-.26 2.38.007.272.114.532.247.784.402.328.2.84.643.692 1.098l-.083.265c.446 1.204.673 2.456.916 3.727.26 1.357.742 2.64 1.23 3.925.048-.588.1-1.177.147-1.763.193-2.42.03-4.81.008-7.236-.008-.803.05-1.55.208-2.337.064-.325.348-1.715.267-1.79-.58-.536-.413-1.193.365-1.364.868-.19 1.975.1 2.63.705 1.136 1.05.598 2.7.34 4.025-.432 2.22.09 4.71.02 6.973M33.995 21.035c-.07 1.888-.725 3.666-.734 5.573-.01 2.188.173 4.358-.146 6.534-.1.69-3.848-.094-3.717-.996.293-2.002.187-4.013.15-6.03-.034-1.94.445-3.698.695-5.602.254-1.95-.08-3.945.14-5.897.103-.913.713-2.603.085-3.398-.4-.506 1.394-.324 1.474-.31.73.135 1.702.37 2.187.986.62.785.186 2.3.05 3.185-.3 1.957-.108 3.984-.182 5.955M49.492 24.188c-1.957 2.64-5.59.74-8.125 1.46-1.308.373-1.323 2.156-1.32 3.224.004 1.353-.108 2.592-.26 3.935-.11.997-.022 2.01.71 2.754.134.14.814.32.767.324.335.058.643.072 1.013.088 1.47.063 4.377-.22 3.815-2.357-.253-.958 3.412-.41 3.68.605 1.15 4.364-6.915 3.526-9.193 2.92-2.098-.556-4.412-1.75-4.532-4.173-.058-1.156.257-2.258.31-3.404.056-1.32-.19-2.635.272-3.907 1.027-2.83 5.238-1.495 7.38-1.656 3.65-.272 2.56-5.19 2.608-7.48.025-1.225 1.122-3.256.2-4.28-.565-.626-1.88-.663-2.648-.728-.773-.064-2.09-.296-2.604.44-.942 1.343.088 3.604-.114 5.145-.114.88-3.858.09-3.717-.995.325-2.492-1.328-5.83 2.28-6.258 2.317-.275 4.925.153 7.117.88 1.135.377 2.188.895 3.077 1.702.98.892.657 2.228.395 3.366-.642 2.768.694 5.956-1.113 8.396M65.934 24.366c-.114 3.584-.653 7.13-.67 10.72-.006 1.87-3.76 1.238-3.753-.325.015-3.424.473-6.8.647-10.215l.01-.21c-1.848.018-3.698-.168-5.55-.232.19 4.396-.58 8.756-.412 13.15.02.552-3.677.085-3.718-.996-.162-4.247.557-8.46.43-12.71-.06-2.025-.233-4.045-.247-6.073-.007-1.04.163-2.074.312-3.098.138-.947.46-2.212.172-3.15-.223-.73 3.38-.275 3.666.66.515 1.687-.21 3.834-.383 5.54-.167 1.637-.04 3.32.078 4.982 1.925.123 3.852.28 5.77.01.084-1.307.185-2.613.304-3.924.1-1.098.17-2.194.186-3.297.015-.966.135-2.368-.21-3.283-.734-1.953 2.99-1.792 3.533-.346.666 1.775.476 3.984.362 5.85-.143 2.32-.454 4.626-.528 6.948M82.002 20.12c-.892 2.617-2.252 4.913-3.43 7.4.95 1.85 1.914 3.7 2.782 5.587.788 1.715 1.373 3.624 2.92 4.833.546.424.524.85-.242.902-.83.058-1.958-.18-2.63-.704-1.407-1.1-2.3-2.433-3.034-4.05-.885-1.946-1.8-3.857-2.764-5.765-.07-.14-.14-.28-.213-.42-.464-.3-.743-.724-.606-1.202-.75-1.483-1.517-2.958-2.37-4.374-.284 5.25-.906 10.496-1.094 15.752-.04 1.205-3.767.455-3.714-.996.23-6.517 1.155-13.02 1.22-19.536-.016-.017-.03-.033-.047-.048-.286-.293-.18-.47.05-.57.002-1.662-.057-3.324-.2-4.987-.447-.708.44-1.08 1.03-1.08h.092c.7 0 2.49.33 2.58 1.294.18 1.992.236 3.982.22 5.97 1.508 1.628 2.74 3.445 3.848 5.35.72-1.407 1.406-2.823 1.887-4.35.817-2.603 2.182-4.992 2.97-7.606.518-1.712 4.23-.7 3.718.997-.79 2.612-2.092 5.025-2.973 7.605M90.435 24.66c-.1 1.184-.207 2.365-.288 3.553-.15 2.212.11 5.3 2.172 6.642.552.36 1.59.298 2.234.416.922.166 1.857.37 2.685-.18 1.147-.762.864-3.47.862-4.62-.002-1.904.198-3.797.295-5.698-.524-.052-1.056-.084-1.597-.072-2.17.052-4.31.393-6.365-.04m13.872-.142c-.2.79-1.302.807-2.156.73-.01.32-.02.638-.032.957-.12 2.525-.16 5.104-.37 7.622-.2 2.33-1.506 3.167-3.77 3.08-2.294-.087-4.963-.5-7.102-1.33-2.474-.963-3.85-2.786-4.326-5.393-.522-2.86.227-5.9.354-8.774.146-3.325.062-6.656.058-9.98 0-.546 3.717-.03 3.717.995.003 2.633.04 5.268 0 7.9-.014.778-.05 1.55-.098 2.32 1.3.562 3.5-.012 4.792-.134 1.052-.1 2.06.156 3.08.276.02-2.193.1-4.4.19-6.59.048-1.122.454-3.35-.334-4.28-.414-.49 1.405-.326 1.475-.314.753.14 1.67.38 2.185.988.902 1.062.433 3.597.38 4.863-.073 1.815-.096 3.63-.134 5.444 1.096.143 2.295.814 2.09 1.62M30.778 35.718c.495.047.992.215 1.4.497.083.068.163.138.246.206.493.32.92.786.69 1.292-.48 1.05-.403 2.117-.395 3.24.005.91-.915 1.183-1.69 1.115-.687-.06-2.06-.552-2.064-1.443-.007-.942-.068-1.913.104-2.84-.047-.107-.072-.227-.1-.337-.052-.2.016-.398.136-.56l.002-.127.014-.317c.07-.22.205-.388.407-.503.366-.222.83-.263 1.248-.222" fill="#fff"/></g></svg>