<svg xmlns="http://www.w3.org/2000/svg" viewBox="0 0 42.666668 28" height="28" width="42.667"><defs><clipPath id="a"><path d="M0 21h32V0H0z"/></clipPath></defs><g clip-path="url(#a)" transform="matrix(1.33333 0 0 -1.33333 0 28)"><path d="M17.2 7.398c-.35-.263-.764-.4-1.2-.4-.436 0-.85.138-1.2.4L10.665 10.5l-.833.625L2 17c0 1.103.897 2 2 2h24c1.1 0 2-.897 2-2zM30 5.25l-7 5.25 7 5.25zM30 4c0-1.104-.9-2-2-2H4c-1.103 0-2 .896-2 2l7.832 5.875L14.2 6.597c.533-.397 1.166-.6 1.8-.6.633 0 1.265.202 1.8.6l4.368 3.278zM2 15.75l7-5.25-7-5.25zM28 21H4c-2.21 0-4-1.792-4-4V4c0-2.21 1.79-4 4-4h24c2.21 0 4 1.79 4 4v13c0 2.208-1.79 4-4 4" fill="#333"/></g></svg>