<svg xmlns="http://www.w3.org/2000/svg" viewBox="0 0 33.104801 32.443333" height="32.443" width="33.105"><defs><clipPath id="a"><path d="M0 24.333h24.83V0H0z"/></clipPath></defs><g clip-path="url(#a)" transform="matrix(1.33333 0 0 -1.33333 0 32.443)"><path d="M17.32 0h-1.114C11.302.58 7.71 2.857 5.096 5.772 2.472 8.695.4 12.458 0 17.516v1.358c.09.92.544 1.55 1.067 2.085.65.665 1.63 1.52 2.522 1.553.658.022 1.78-.45 2.23-1.066.39-.53.596-1.59.776-2.38.185-.796.6-1.948.485-2.715-.175-1.196-1.763-1.704-2.23-2.572 1.55-3.72 4.09-6.456 7.472-8.345.847.464 1.595 1.864 2.767 1.89.426.013.97-.208 1.405-.34.476-.14.89-.325 1.31-.483.705-.266 1.957-.62 2.378-1.213.433-.61.68-1.61.58-2.232C20.572 1.824 18.54.455 17.322 0M12.53 22.805c5.948 0 10.77-4.822 10.77-10.77h1.53c0 6.79-5.507 12.298-12.3 12.298z"/><path d="M12.53 15.005v-1.552c.784 0 1.42-.636 1.42-1.42h1.553c0 1.642-1.33 2.972-2.974 2.972M12.53 18.086c3.344 0 6.055-2.71 6.055-6.054h1.588c0 4.22-3.422 7.64-7.644 7.64z"/></g></svg>