<svg xmlns="http://www.w3.org/2000/svg" viewBox="0 0 23.466133 23.4648" height="23.465" width="23.466"><defs><clipPath id="a"><path d="M0 17.6h17.6V0H0z"/></clipPath></defs><g clip-path="url(#a)" transform="matrix(1.33333 0 0 -1.33333 0 23.465)"><path d="M2.198 9.9c0 3.038 2.462 5.5 5.5 5.5s5.5-2.462 5.5-5.5-2.462-5.5-5.5-5.5-5.5 2.46-5.5 5.5m15.07-8.03l-3.414 3.414C14.82 6.574 15.4 8.164 15.4 9.9c0 4.253-3.448 7.698-7.7 7.698-4.254 0-7.7-3.445-7.7-7.698s3.445-7.7 7.698-7.7c1.734 0 3.326.58 4.613 1.546L15.73.33c.203-.202.418-.33.772-.33.606 0 1.1.492 1.1 1.1 0 .24-.062.498-.33.77" fill="#231f20"/></g></svg>