<svg xmlns="http://www.w3.org/2000/svg" viewBox="0 0 79.998665 79.492798" height="79.493" width="79.999"><defs><clipPath id="a"><path d="M0 59.62h60V0H0z"/></clipPath></defs><g clip-path="url(#a)" transform="matrix(1.33333 0 0 -1.33333 0 79.493)"><path d="M29.916 53.047c4.27 0 7.723 1.47 7.723 3.286-.002 1.814-3.455 3.286-7.724 3.286-4.27 0-7.73-1.473-7.73-3.287 0-1.816 3.46-3.286 7.73-3.286m2.64-29.904V0L60 15.938l-.002 23.144zm5.147 13.873c0-1.817-3.46-3.287-7.728-3.287s-7.73 1.47-7.73 3.286l.002 4.06h.024c.26-1.716 3.604-3.077 7.706-3.077 4.1 0 7.443 1.36 7.705 3.075h.023zm13.642 10.166V44.73c0-1.818-3.457-3.29-7.73-3.29-4.266 0-7.727 1.472-7.727 3.29v4.058h.025c.26-1.715 3.603-3.073 7.702-3.073 4.272 0 7.73 1.474 7.73 3.285 0 1.82-3.458 3.288-7.73 3.288-.34 0-.675-.01-1.002-.03l-4.975 2.89V52.06c0-1.816-3.454-3.29-7.723-3.29-2.682 0-5.044.584-6.432 1.468-.196.204-.44.4-.733.586-.362.382-.564.797-.564 1.237v2.987l-4.808-2.792c-.346.017-.696.033-1.053.033-4.267 0-7.727-1.47-7.727-3.288 0-1.81 3.46-3.285 7.727-3.285 4.1 0 7.445 1.358 7.704 3.073h.02v-4.06c0-1.816-3.454-3.288-7.725-3.288-4.267 0-7.727 1.472-7.727 3.29v2.42l-5.952-3.452 27.53-15.986L57.53 43.594zM0 15.938L27.44.005V23.35L0 39.29z" fill="#231f20"/></g></svg>