<svg xmlns="http://www.w3.org/2000/svg" viewBox="0 0 31.325466 26.890667" height="26.891" width="31.325"><defs><clipPath id="a"><path d="M0 20.168h23.494V0H0z"/></clipPath></defs><g clip-path="url(#a)" transform="matrix(1.33333 0 0 -1.33333 0 26.89)"><path d="M14.857 14.602c.163-.135.284-.31.52-.37.1-.222.313-.328.592-.37.046.15.345.048.37.22.173.024.165.23.295.298-.017.55-.13 1.006-.37 1.333-.758.424-1.676-.038-1.408-1.11m5.483 3.037c-.13-.34-.23-.707-.592-.815-.017.105-.122.125-.148.222-.012.21.21.185.296.296.163.085.245.248.444.297-.006.09.11.046 0 0m-.295-5.632c-.154-.858-.616-1.41-1.04-2 .06-.38-.102-.538-.072-.888-.158-.313-.287-.653-.37-1.038-.204-.267-.333-.607-.52-.89-.366-.548-.777-1.05-1.185-1.557-.378-.558-.912-.965-1.334-1.48-.42-.494-.942-.886-1.407-1.335-.474-.17-.89-.397-1.26-.667-.232-.09-.463-.18-.667-.296-.177-.146-.5-.145-.668-.297-1.086-.147-2.3-.17-3.555-.148-1.03.105-2.115.16-3.04.37-.922.19-1.51.713-2.296 1.038.154.242.635.154.964.22.03.167.394.004.444.15.257-.06.285.11.52.074.563.2 1.23.302 1.704.593.282.138.406.433.667.593.032.19.102.34.22.444.048.275.202.44.15.815.11.21.298.342.295.666-.074.148-.128.317-.296.372-.027.196-.38.067-.445.22-.255-.03-.416.03-.593.076-.154.043-.487-.09-.52.074-.84.023-1.3.43-1.852.74.43.262 1.032.352 1.334.742.516.076 1.057.13 1.112.666 0 .717-.77.66-1.333.815-.774.662-1.195 1.673-1.78 2.52.24.158.565.227.74.445.456-.057.54.25.668.52.02.488-.33.605-.59.815-.26.21-.476.462-.668.74-.003.82-.022 1.652.074 2.372.063.014.07-.03.074-.074.226-.44.56-.775.815-1.186.532-.357.925-.853 1.556-1.11.453-.414 1.11-.623 1.558-1.04.6-.262 1.158-.57 1.704-.888.67-.195 1.056-.673 2-.593.2.1.394.2.594.298.257.456-.06 1.08.147 1.63.255.66.797 1.03 1.26 1.482.29.155.555.335.815.52.347.096.675.215.964.37.376.018.713.077 1.037.147h1.26c.243-.052.474-.12.74-.148.208-.138.38-.314.665-.37.79-.695 1.27-1.697 1.41-3.04-.124-.485.05-.874 0-1.482m3.408 4.075c-.227.367-.91.278-1.408.372h-1.112c.142.352.343.646.52.963.055.438.254.734.222 1.26.13.166.176.416.296.592.105.145.243.478.075.667-.05.22-.294.248-.592.222-.088-.037-.17-.08-.222-.15-.447-.432-.777-1.012-1.26-1.407-.01-.008-.06 0-.074 0-.087-.004-.033-.046-.075-.074-.146-.098-.256-.153-.368-.223-.284-.177-.547-.445-.89-.52-.53.212-1.157.327-1.852.37-1.158-.1-2.303-.214-3.04-.74-.91-.35-1.475-1.042-2.148-1.63-.05-.32-.342-.398-.37-.74-.005-.046-.012-.09-.073-.075.042-.24-.052-.345-.076-.518 0-.133.2-.432 0-.52-.822.12-1.485.63-2.15.964-.717.36-1.467.603-2.073 1.11-.715.323-1.26.817-1.777 1.335-.21.31-.542.495-.668.89-.38.164-.175.912-.74.89-.316.042-.345-.2-.445-.372-.07-.225-.36-.23-.37-.517-.005-.046-.012-.09-.075-.075-.17-1.09-.528-1.992-.52-3.26.13-.415.35-.738.594-1.038-.42-.05-.717-.222-.89-.52-.06-1.072.377-1.646.74-2.296.135-.383.352-.684.594-.963.017-.228.206-.287.296-.444.018-.105.122-.125.15-.222-.042-.106.287-.18.072-.22-.413-.132-1.016-.07-1.26-.372-.11-.28-.11-.833 0-1.112.034-.237.283-.26.297-.518.498-.417 1.08-.747 1.63-1.112.574-.166 1.21-.27 1.852-.37-.102-.343-.338-.55-.593-.742-.78-.38-1.85-.473-2.743-.74-.555-.038-.956-.23-1.556-.223C1.04 3.878.52 3.93.26 3.783c-.122-.07-.102-.096-.223-.22-.134-.413.11-.74.444-.89-.004-.254.22-.277.372-.372.09-.18.254-.29.445-.37.544-.467 1.268-.758 1.927-1.11.83-.184 1.648-.377 2.52-.52.895-.116 1.9-.124 2.815-.22h.962c.51-.133 1.23-.055 1.853-.076.094.102.322.074.518.075.523.267 1.196.383 1.63.74.575.24.99.64 1.558.888.867.765 1.937 1.325 2.52 2.373.204.19.35.44.445.74.264.157.384.455.592.668.405.41.706.924 1.037 1.408.32.496.577 1.054.89 1.556-.01.405.306.484.296.89.193.225.177.66.37.888-.032.255.03.415.075.594.047 1.28-.047 2.422-.297 3.407.588.156 1.18.303 1.63.594.527.185 1 .582.815 1.26" fill="#231f20"/></g></svg>