<?xml version="1.0" encoding="UTF-8" standalone="no"?>
<svg
   xmlns:dc="http://purl.org/dc/elements/1.1/"
   xmlns:cc="http://creativecommons.org/ns#"
   xmlns:rdf="http://www.w3.org/1999/02/22-rdf-syntax-ns#"
   xmlns:svg="http://www.w3.org/2000/svg"
   xmlns="http://www.w3.org/2000/svg"
   viewBox="0 0 53.625599 83.214798"
   height="83.214798"
   width="53.625599"
   xml:space="preserve"
   id="svg2"
   version="1.1"><metadata
     id="metadata8"><rdf:RDF><cc:Work
         rdf:about=""><dc:format>image/svg+xml</dc:format><dc:type
           rdf:resource="http://purl.org/dc/dcmitype/StillImage" /><dc:title></dc:title></cc:Work></rdf:RDF></metadata><defs
     id="defs6"><clipPath
       id="clipPath18"
       clipPathUnits="userSpaceOnUse"><path
         id="path16"
         d="M 0,62.411 H 40.219 V 0 H 0 Z" /></clipPath></defs><g
     transform="matrix(1.3333333,0,0,-1.3333333,0,83.2148)"
     id="g10"><g
       style="fill:#149080;fill-opacity:0.50196081"
       id="g12"><g
         style="fill:#149080;fill-opacity:0.50196081"
         clip-path="url(#clipPath18)"
         id="g14"><g
           style="fill:#149080;fill-opacity:0.50196081"
           transform="translate(15.1777,24.4531)"
           id="g20"><path
             id="path22"
             style="fill:#149080;fill-opacity:0.50196081;fill-rule:nonzero;stroke:none"
             d="m 0,0 c -0.286,-0.966 -0.245,-2.191 0.027,-3.639 0.494,-2.634 1.686,-6.041 2.358,-9.67 h 5.062 c 0.697,3.641 1.949,7.05 2.471,9.683 0.287,1.445 0.33,2.66 0.04,3.617 -0.274,0.9 -0.89,1.618 -2.021,2.303 H 1.94 C 0.866,1.615 0.266,0.903 0,0" /></g><g
           style="fill:#149080;fill-opacity:0.50196081"
           transform="translate(27.0093,4.458)"
           id="g24"><path
             id="path26"
             style="fill:#149080;fill-opacity:0.50196081;fill-rule:nonzero;stroke:none"
             d="m 0,0 h -13.799 c -1.293,0 -2.3,-0.976 -2.3,-2.229 v -2.229 h 2.3 H 0 2.299 v 2.229 C 2.299,-0.976 1.293,0 0,0" /></g><g
           style="fill:#149080;fill-opacity:0.50196081"
           transform="translate(34.1421,60.1821)"
           id="g28"><path
             id="path30"
             style="fill:#149080;fill-opacity:0.50196081;fill-rule:nonzero;stroke:none"
             d="m 0,0 h -11.732 c 0,1.244 -1.016,2.229 -2.301,2.229 -1.283,0 -2.3,-0.985 -2.3,-2.229 h -11.736 l -6.073,-25.517 c 0.794,0.462 1.589,0.993 2.632,0.993 1.359,0 2.242,-0.818 2.924,-1.376 0.682,-0.557 1.161,-0.849 1.447,-0.849 0.291,-0.001 0.768,0.288 1.451,0.836 0.681,0.549 1.563,1.358 2.915,1.358 1.348,0 2.236,-0.805 2.919,-1.353 0.683,-0.549 1.16,-0.841 1.451,-0.841 0.146,0 0.338,0.073 0.579,0.215 0.242,0.141 0.531,0.352 0.872,0.626 0.512,0.411 1.139,0.968 1.99,1.219 0.284,0.085 0.592,0.135 0.929,0.135 1.347,0 2.238,-0.805 2.92,-1.354 0.683,-0.548 1.159,-0.84 1.451,-0.84 0.287,0.002 0.766,0.296 1.446,0.85 0.684,0.553 1.57,1.366 2.924,1.366 1.357,0 2.24,-0.817 2.92,-1.371 0.342,-0.276 0.631,-0.489 0.872,-0.631 0.24,-0.143 0.431,-0.214 0.574,-0.214 0.288,0 0.762,0.293 1.443,0.854 0.68,0.559 1.567,1.384 2.928,1.384 1.045,0 1.84,-0.533 2.632,-0.997 z" /></g><g
           style="fill:#149080;fill-opacity:0.50196081"
           transform="translate(23.5234,8.916)"
           id="g32"><path
             id="path34"
             style="fill:#149080;fill-opacity:0.50196081;fill-rule:nonzero;stroke:none"
             d="m 0,0 h -6.864 c -0.657,0 -1.15,-0.479 -1.15,-1.115 0,-0.635 0.493,-1.114 1.15,-1.114 h 6.9 c 0.655,0 1.15,0.479 1.15,1.114 C 1.186,-0.479 0.691,0 0.036,0 Z" /></g><g
           style="fill:#149080;fill-opacity:0.50196081"
           transform="translate(20.1094,33.3999)"
           id="g36"><path
             id="path38"
             style="fill:#149080;fill-opacity:0.50196081;fill-rule:nonzero;stroke:none"
             d="m 0,0 c -0.146,0 -0.338,-0.074 -0.58,-0.213 -0.156,-0.094 -0.37,-0.261 -0.569,-0.41 V -4.354 H 1.15 v 3.731 C 0.644,-0.244 0.241,0 0,0" /></g></g></g><path
       transform="matrix(0.75000002,0,0,-0.75000002,0,62.411102)"
       id="path40"
       d="M 8.7472089,38.38612 C 8.5532761,38.284767 7.8987529,37.815774 7.292713,37.343912 5.4395939,35.901076 4.7687722,35.620899 3.3358618,35.691288 2.3356199,35.740423 1.8248998,35.898715 0.83664932,36.465893 0.43610367,36.695775 0.10142227,36.87797 0.09291284,36.87077 0.08440342,36.863569 1.8870238,29.251677 4.098736,19.955452 L 8.1200308,3.0532268 h 7.8171282 7.817128 l 0.05702,-0.4298599 c 0.07624,-0.5747456 0.516139,-1.4327203 0.913422,-1.78153926 0.17733,-0.15569706 0.542401,-0.38626669 0.811271,-0.51237696 0.413143,-0.19377994 0.611726,-0.22928251 1.282216,-0.22923392 0.673805,4.884e-5 0.86839,0.0352247 1.291236,0.23342117 0.914254,0.42852857 1.565793,1.30543697 1.709536,2.30087037 l 0.06047,0.4187185 7.813416,5.641e-4 7.813416,5.642e-4 4.00126,16.8142899 c 2.200693,9.247859 4.019967,16.864436 4.042831,16.925726 0.02286,0.06129 -0.236745,-0.04902 -0.57691,-0.245142 -2.453197,-1.414369 -4.08894,-1.244161 -6.497517,0.676108 -1.1854,0.945076 -1.845765,1.352851 -2.190851,1.352851 -0.350517,0 -0.880061,-0.317292 -2.025735,-1.213779 -1.706189,-1.335092 -2.503215,-1.695213 -3.751869,-1.695213 -1.315664,0 -2.18701,0.375844 -3.736595,1.61173 -1.126738,0.89864 -1.781904,1.297501 -2.129513,1.296435 -0.364625,-0.0011 -0.964006,-0.360227 -2.120817,-1.270652 -1.604029,-1.26239 -2.730649,-1.709997 -4.054958,-1.611036 -1.095816,0.08189 -1.920019,0.484612 -3.437899,1.679842 -1.015553,0.799681 -1.686977,1.202673 -2.003768,1.202673 -0.379429,0 -0.885242,-0.293794 -2.061529,-1.197407 -1.812275,-1.392174 -2.744186,-1.776205 -4.088696,-1.684912 -1.201854,0.08161 -1.92162,0.439888 -3.741284,1.862315 -1.3627017,1.06522 -1.7043099,1.183795 -2.3852291,0.827936 z"
       style="opacity:1;fill:none;fill-opacity:0.5;stroke:none;stroke-width:0.08815127;stroke-opacity:1" /></g></svg>