<svg xmlns="http://www.w3.org/2000/svg" viewBox="0 0 135.48666 45.4076" height="45.408" width="135.487"><defs><clipPath id="a"><path d="M0 34.056h101.615V0H0z"/></clipPath></defs><g clip-path="url(#a)" transform="matrix(1.33333 0 0 -1.33333 0 45.408)"><path d="M19.135 12.56c-.083 2.683-.51 5.347-.475 8.035.028 2.175.39 4.41-.36 6.495.047.237.096.473.14.71.194 1.045-3.27.492-3.813-.464-.344-.28-.52-.614-.375-.955.037-.086.07-.173.102-.26-.656-3.204-1.57-6.306-2.62-9.412-.404-1.188-.89-2.35-1.3-3.533-.58 1.104-1.17 2.194-1.642 3.377-1.373 3.433-2.612 6.902-4.287 10.206.19 1.53-3.203 1.368-3.872-.03-.81-1.696-.705-3.405-.44-5.216.3-2.042.354-4.05.38-6.11.046-3.977.357-7.945.416-11.92-.355-.395-.462-.88-.092-1.375.162-.216.362-.382.57-.55.905-.723 3.5-.106 3.497 1.273-.015 4.122-.312 8.236-.42 12.357-.012.403-.018.807-.025 1.21l.172-.434c.64-1.604 1.31-3.163 2.185-4.654C7.744 9.83 8.18 8.244 8.68 6.63c-.19-.217-.303-.462-.233-.708-.04-.18.07-.292.25-.36.64-.548 1.842-.275 2.51.007.287.122.56.26.826.425.346.21.884.678.73 1.158-.03.093-.06.186-.087.28.47 1.27.71 2.588.965 3.93.273 1.427.783 2.78 1.296 4.132.052-.62.106-1.238.156-1.855.204-2.554.033-5.072.007-7.627-.01-.847.053-1.633.218-2.46.068-.344.367-1.808.28-1.888-.61-.564-.432-1.256.386-1.436.915-.202 2.08.104 2.77.74 1.198 1.108.63 2.846.36 4.242-.453 2.342.094 4.964.02 7.348M27.5 11.885c-.075 1.988-.766 3.862-.775 5.872-.01 2.305.18 4.593-.155 6.886-.106.725-4.056-.1-3.917-1.05.308-2.11.197-4.23.16-6.354-.038-2.045.467-3.898.73-5.905.268-2.054-.085-4.157.15-6.213.108-.962.75-2.743.088-3.58-.42-.532 1.47-.342 1.554-.326.77.14 1.793.39 2.304 1.038.653.828.196 2.425.053 3.357-.316 2.06-.114 4.196-.19 6.275M43.828 15.205c-2.062 2.784-5.89.78-8.56 1.54-1.378.392-1.396 2.27-1.393 3.396.004 1.427-.113 2.733-.273 4.147-.118 1.052-.024 2.12.746 2.904.142.145.86.337.81.34.354.06.676.075 1.067.092 1.55.067 4.613-.23 4.02-2.483-.267-1.01 3.596-.432 3.877.636 1.213 4.597-7.284 3.714-9.686 3.077-2.21-.585-4.65-1.844-4.776-4.397-.06-1.22.273-2.38.325-3.587.06-1.39-.198-2.777.29-4.12 1.08-2.98 5.52-1.575 7.777-1.744 3.845-.287 2.696-5.468 2.747-7.883.027-1.288 1.18-3.43.21-4.507-.595-.662-1.982-.7-2.792-.768-.813-.068-2.2-.312-2.742.46-.993 1.42.09 3.8-.12 5.426-.12.924-4.067.095-3.918-1.05.343-2.627-1.4-6.145 2.402-6.596 2.442-.29 5.192.16 7.5.928 1.196.397 2.307.942 3.243 1.793 1.035.94.695 2.347.417 3.546-.676 2.918.732 6.28-1.172 8.85M61.155 15.394c-.122 3.777-.69 7.513-.706 11.297-.01 1.972-3.964 1.306-3.958-.342.016-3.608.497-7.166.683-10.764l.012-.22c-1.95.017-3.9-.178-5.852-.246.2 4.633-.612 9.227-.435 13.857.022.582-3.873.09-3.917-1.05-.17-4.474.587-8.914.453-13.39-.064-2.137-.245-4.265-.26-6.403-.007-1.094.172-2.182.33-3.262.145-1 .483-2.33.18-3.32-.236-.77 3.56-.29 3.863.696.543 1.778-.223 4.038-.406 5.838-.175 1.725-.04 3.5.083 5.248 2.03.13 4.06.298 6.08.012.09-1.378.196-2.754.322-4.134.105-1.157.178-2.314.195-3.475.016-1.02.142-2.496-.22-3.46-.773-2.058 3.15-1.89 3.722-.365.703 1.87.503 4.198.383 6.163-.15 2.444-.477 4.874-.555 7.32M78.087 10.92c-.94 2.757-2.373 5.176-3.616 7.796 1.002 1.95 2.018 3.9 2.932 5.89.83 1.806 1.447 3.817 3.08 5.09.574.448.55.896-.255.952-.875.06-2.064-.192-2.77-.742-1.485-1.158-2.426-2.563-3.2-4.268-.932-2.05-1.897-4.063-2.914-6.075-.074-.147-.15-.295-.223-.443-.49-.315-.785-.762-.64-1.266-.79-1.564-1.6-3.117-2.498-4.61-.3 5.533-.955 11.06-1.15 16.6-.045 1.27-3.972.48-3.917-1.05.242-6.868 1.218-13.72 1.286-20.587-.015-.017-.03-.034-.047-.05-.3-.31-.19-.494.052-.602.002-1.75-.06-3.502-.21-5.255-.47-.745.464-1.138 1.085-1.138h.096c.74 0 2.626.35 2.72 1.364.19 2.1.25 4.196.23 6.29 1.59 1.716 2.89 3.63 4.056 5.636.76-1.48 1.482-2.972 1.988-4.582.86-2.74 2.3-5.26 3.13-8.014.546-1.806 4.458-.738 3.918 1.05-.83 2.75-2.205 5.295-3.13 8.013M86.972 15.705c-.103 1.245-.217 2.49-.303 3.743-.16 2.33.116 5.583 2.29 7 .58.378 1.674.314 2.353.437.97.175 1.956.388 2.83-.19 1.21-.802.912-3.657.91-4.87-.002-2.005.208-4 .31-6.003-.552-.055-1.11-.09-1.683-.076-2.286.054-4.543.414-6.708-.04m14.62-.152c-.21.832-1.373.85-2.273.77-.013.336-.02.672-.037 1.006-.125 2.662-.165 5.38-.392 8.032-.208 2.458-1.584 3.338-3.97 3.247-2.416-.093-5.23-.53-7.483-1.405-2.607-1.013-4.058-2.934-4.558-5.68-.55-3.014.238-6.22.372-9.247.154-3.503.066-7.013.062-10.518 0-.574 3.916-.032 3.917 1.05.004 2.775.044 5.55 0 8.325-.01.82-.05 1.632-.1 2.444 1.368.592 3.686-.013 5.05-.142 1.107-.105 2.168.166 3.244.29.02-2.31.107-4.633.202-6.943.05-1.184.476-3.53-.354-4.51-.436-.516 1.48-.343 1.555-.33.793.146 1.76.4 2.303 1.04.95 1.12.456 3.79.4 5.127-.077 1.91-.1 3.823-.14 5.737 1.153.148 2.415.855 2.2 1.704M24.108 27.355c.52.05 1.045.226 1.477.524l.256.217c.52.334.973.826.73 1.36-.504 1.105-.423 2.23-.416 3.414.006.96-.963 1.247-1.78 1.176-.724-.065-2.17-.582-2.176-1.52-.006-.994-.07-2.017.11-2.993-.048-.113-.075-.24-.105-.356-.055-.212.016-.42.142-.59l.003-.134.014-.335c.074-.232.216-.41.43-.53.386-.233.877-.275 1.316-.233" fill="#231f20"/></g></svg>