<svg xmlns="http://www.w3.org/2000/svg" viewBox="0 0 197.39999 96.944" height="96.944" width="197.4"><defs><clipPath id="a"><path d="M0 72.708h148.05V0H0z"/></clipPath></defs><g clip-path="url(#a)" transform="matrix(1.33333 0 0 -1.33333 0 96.944)"><path d="M87.835 56.356c-.05-.04-.094-.08-.134-.123.073.312.15.623.23.934h.11c-.068-.27-.14-.54-.206-.81m55.33-15.047c-1.48-1.055-3.053-1.942-4.656-2.777.036 1.747-.12 3.465-.592 5.127.05.333.103.667.146 1.002.375 3.005.656 7.122-2.004 9.224-.334.265-1.248.035-1.922-.274-.156.15-.323.29-.496.415-.082.242-.16.487-.23.735-.034.12-.167.188-.36.215.286.383.263.818-.418 1.092-.378.15-.76.286-1.143.412-.068.072-.128.096-.173.058l-.005-.003c-.94.3-1.894.533-2.86.705.138.33.397.813.552 1 .132.157.28.3.43.44.06.056.124.11.187.164l.07.06c.02.015.045.035.084.063.38.287.846.864.22 1.2-.57.308-1.507.143-2.007-.237-.862-.655-1.625-1.38-2.09-2.36-2.01.168-4.05.154-6.08.077.062.076.112.158.14.25.185.585-.907.525-1.186.488-1.562-.205-3.124-.407-4.688-.604 1.367 3.773 3.083 8.578 1 12.264-1.188 2.106-3.905 2.58-6.097 2.652-2.436.08-4.898-.46-7.036-1.636-4.763-2.618-7.11-7.71-8.21-13.138-.498.657-2.302.425-2.645-.468-.125-.32-.23-.645-.328-.972-.16-.174-.282-.386-.345-.637-.015-.057-.026-.112-.04-.168l-.197-.007c.02.104.04.207.064.31.146.11.246.232.278.366.575 2.297 1.157 4.59 1.95 6.82.268.757-2.512.4-2.805-.425-.424-1.193-.785-2.403-1.12-3.622-.165-.078-.357-.187-.425-.326-.018-.034-.03-.07-.047-.104-.106.093-.27.15-.466.178v.96c0 .432-2.822.034-2.822-.757v-1.568c-.167-.072-.327-.158-.473-.266-.063-.058-.128-.115-.19-.173-.072-.07-.113-.152-.12-.245-.007-.026-.013-.053-.023-.078-.017-.022-.032-.046-.052-.066-.125-.128-.184-.335-.027-.467.19-.16.508-.166.738-.158.048.002.097.007.146.01v-.467c-.227 0-.45.003-.675.006l-.41.052c-.022.385-.677.452-1.352.328.005.05.007.098 0 .148-.102.595-.174 1.192-.23 1.79.237.08.472.18.68.313.16.103.328.225.328.43v.195c0 .18-.41.204-.5.208-.195.01-.394-.01-.588-.04-.075 1.304-.08 2.614-.08 3.924 0 .84-2.825.315-2.823-.757 0-1.786.007-3.57.192-5.343-.087.002-.18 0-.27-.01v1.533c0 1.045-1.297 1.22-2.147.81.313.26.488.62.37 1.038-.403 1.414-.778 2.827-.974 4.287-.188 1.394-3.017.677-2.824-.756.195-1.46.57-2.874.974-4.288.235-.828 1.338-.89 2.103-.51-.226-.196-.373-.452-.373-.76v-.63c-.188.098-.438.16-.77.16-1.056 0-1.67-.885-1.4-1.477-.163.027-.326.054-.49.083-.382 1.248-.686 2.514-.714 3.83-.02.942-1.27 1.05-2.108.672-.008.056-.022.11-.05.168-.384.804-.566 1.674-.78 2.533-.33 1.35-3.157.602-2.822-.755.157-.638.3-1.28.52-1.898l-.057-.014c-.3-.08-.6-.205-.854-.387-.833-.08-1.83-.565-1.753-1.208.058-.478.13-.953.21-1.427-.547-.09-1.093-.176-1.64-.26-.29.788-.5 1.602-.618 2.444-.132.924-1.556.854-2.333.26-.774 2.062-1.796 4.02-3.122 5.76-2.62 3.44-7.097 4.614-11.242 3.795-1.9-.377-3.735-1.185-5.043-2.647-1.21-1.353-1.352-3.09-1.17-4.805.158-1.493.61-4.005 1.584-5.976-.35.012-.71-.04-.95-.14-.282-.116-.56-.247-.832-.387-1.94-.03-3.877-.02-5.803.07-4.18.194-8.302.86-12.498.742-.923-.026-1.534-.72-1.465-1.262-1.046-.502-1.733-1.315-2.143-2.287-1.732 1.15-3.48 2.266-5.335 3.21-.69.352-3.3-.706-2.286-1.223 1.84-.938 3.56-2.072 5.278-3.216.512-.342 1.32-.134 1.842.07.03.01.09.038.165.076-.307-1.44-.158-3.067.24-4.493.03-.11.093-.198.172-.27-.02-.338-.023-.677-.007-1.015 0-.055 0-.11-.002-.165-.4-.19-.712-.48-.76-.84-.188-1.41-.278-2.82-.305-4.228-.272-.2-.462-.47-.485-.798-.233-3.345.037-6.65.467-9.95.185-2.694.69-5.344 1.172-7.998.058-.417.113-.833.167-1.25-.266-1.134-.4-2.396-.238-3.483-.88-.17-1.73-.866-1.233-1.617.764-1.158 1.643-2.02 2.605-2.65-.633.104-1.42-.11-1.87-.554-.82-.81-1.716-1.53-2.534-2.34-.428-.423-.313-.934.29-1.077.65-.156 1.516.058 1.997.534.817.808 1.715 1.53 2.533 2.34.248.244.308.517.204.73 3.21-1.735 7.235-1.27 11.114-.943-.882-1.588-1.542-3.27-2.17-4.996-.262-.72 2.507-.373 2.8.435.61 1.675 1.238 3.343 2.104 4.895 3.74-.117 7.48-.122 11.215-.05.15-.183.416-.306.746-.337 3.27-.31 6.49.096 9.688.7 4.79.228 9.578.524 14.367.808 7.527.187 15.056.347 22.587.32.1-.11.204-.215.314-.318.272-.256.62-.345.98-.33.06-.01.128-.016.198-.02.714-.035 1.428-.086 2.14-.144.157-.04.342-.06.56-.046h.005c.782-.066 1.564-.14 2.347-.208.172-.214.497-.342.792-.36 3.802-.25 7.61-.523 11.422-.703.14-.23.537-.34.82-.344 7.066-.06 15.277-2.804 21.56 1.736.5.36.27.876-.266.983-.11.02-.217.032-.325.034.008.016.018.03.023.045 1.194 2.77 2.174 5.632 2.944 8.552.366.198.633.494.647.86.05 1.19.187 2.406.37 3.638.167.885.314 1.772.442 2.66.387 2.17.806 4.368 1.018 6.542 2.28 1.147 4.538 2.335 6.622 3.82 1.566 1.116-.784 1.882-1.832 1.136"/><path d="M63.26 60.08c.128-.195.563-.216.754-.216.377 0 .76.083 1.106.225.404.165 1.1.558.77 1.07-.363.56-.61 1.19-.975 1.753-.127.196-.562.217-.754.217-.375 0-.757-.083-1.104-.226-.404-.165-1.1-.558-.77-1.07.363-.56.61-1.19.975-1.753M20.683 61.8c.216-.647 1.11-.647 1.648-.504.473.127 1.39.616 1.176 1.26-.208.624-.433 1.293-.893 1.78-.48.507-1.324.417-1.902.152-.41-.19-1.176-.84-.694-1.35.382-.405.478-.772.667-1.338M30.66 58.812c.843 0 3.073 1.276 1.186 1.276-.843 0-3.074-1.276-1.186-1.276M122.562 60.433c.346-.072.717-.032 1.055.06.32.085.7.233.94.476.356.354.73.728.962 1.177.104.198.173.4-.005.587-.188.197-.508.245-.764.25-.375.01-.76-.073-1.104-.22-.252-.105-.62-.293-.756-.552-.1-.186-.22-.353-.35-.513l-.025-.028-.027-.032-.196-.2c-.158-.157-.345-.364-.28-.613.065-.24.335-.35.55-.394M135.86 55.015c.632.06 1.396.246 1.895.662 1.32 1.102 2.602 2.248 3.623 3.642.288.392-1.05.242-1.12.23-.532-.1-1.315-.277-1.66-.747-.948-1.296-2.163-2.35-3.39-3.374-.498-.416.44-.435.653-.415M146.74 27.938h-4.872c-.616 0-1.476-.467-1.556-1.14-.09-.737.754-.92 1.304-.92l4.87-.002c.617 0 1.476.47 1.558 1.14.09.74-.754.922-1.304.922M57.02 11.923c-.498-.08-1.412-.296-1.64-.83-.537-1.273-.98-2.57-1.363-3.898-.21-.733 2.57-.333 2.798.452.384 1.326.826 2.625 1.364 3.896.22.527-.968.412-1.16.38M61.602 9.332c-.347.003-.696-.063-1.03-.152-.332-.09-.67-.207-.967-.383-.14-.084-.338-.2-.338-.39 0-.116-.007-.23-.02-.346-.026-.102-.06-.2-.126-.285l.013.014c-.064-.083-.108-.18.018-.254.197-.114.503-.083.713-.06.374.036.745.126 1.1.25.242.085.612.208.794.407.15.164.24.286.284.5.036.178.05.35.05.53 0 .166-.42.168-.488.17M116.652 5.656c-.354.686-3.043-.33-2.823-.758.843-1.637 1.937-3.12 2.922-4.676.435-.69 3.04.414 2.823.756-.983 1.555-2.08 3.04-2.923 4.678M120.744 7.994c-.294.588-1.066.563-1.624.414-.35-.094-1.485-.598-1.2-1.17l1.17-2.34c.294-.588 1.068-.56 1.624-.414.35.095 1.486.6 1.2 1.172l-1.17 2.338M5.668 29.602c-1.486-.358-3.006-.57-4.48-.975-.538-.146-1.343-.64-1.16-1.318.18-.676 1.127-.71 1.663-.562 1.477.403 2.996.615 4.483.975.54.13 1.338.65 1.16 1.317-.185.685-1.124.693-1.665.562"/><path d="M43.752 32.602c-.084 2.707-.515 5.396-.48 8.107.03 2.193.394 4.45-.362 6.554.047.238.097.477.14.716.196 1.056-3.3.497-3.848-.467-.347-.284-.524-.62-.378-.966.037-.087.07-.174.102-.262-.662-3.234-1.584-6.365-2.645-9.498-.405-1.2-.895-2.37-1.31-3.566-.586 1.115-1.18 2.216-1.657 3.41-1.386 3.463-2.636 6.965-4.326 10.3.192 1.542-3.232 1.38-3.907-.034-.816-1.71-.71-3.434-.442-5.262.303-2.06.356-4.086.38-6.167.05-4.01.362-8.015.422-12.027-.357-.397-.466-.89-.092-1.388.163-.217.365-.385.576-.554.913-.73 3.533-.107 3.528 1.284-.014 4.16-.314 8.31-.424 12.47-.01.408-.018.814-.024 1.223l.173-.438c.646-1.62 1.322-3.19 2.205-4.697.876-1.49 1.315-3.092 1.82-4.718-.19-.22-.306-.467-.235-.715-.04-.182.07-.294.253-.364.645-.55 1.858-.277 2.532.007.29.122.566.263.834.427.348.215.89.687.735 1.17l-.087.28c.475 1.282.716 2.613.975 3.966.275 1.44.79 2.806 1.307 4.172.053-.625.107-1.25.157-1.873.206-2.576.033-5.117.008-7.695-.01-.854.054-1.65.22-2.485.07-.345.37-1.824.284-1.904-.617-.57-.438-1.268.39-1.45.922-.202 2.1.106 2.794.75 1.21 1.116.638 2.87.364 4.28-.46 2.36.093 5.008.02 7.414M52.19 31.92c-.073 2.006-.77 3.896-.78 5.924-.01 2.327.183 4.635-.156 6.95-.107.73-4.093-.102-3.953-1.06.313-2.13.2-4.268.162-6.412-.037-2.063.472-3.933.737-5.958.27-2.073-.086-4.195.15-6.27.11-.972.757-2.77.09-3.613-.425-.537 1.48-.343 1.567-.33.775.144 1.81.396 2.324 1.05.66.834.2 2.447.055 3.386-.32 2.08-.115 4.236-.194 6.333M68.67 35.27c-2.08 2.808-5.943.786-8.64 1.553-1.39.397-1.407 2.293-1.403 3.428.004 1.44-.115 2.758-.276 4.186-.118 1.06-.023 2.14.754 2.93.143.146.866.34.817.342.357.062.684.077 1.078.093 1.562.07 4.654-.233 4.056-2.505-.27-1.02 3.63-.435 3.913.643 1.224 4.64-7.352 3.75-9.774 3.106-2.23-.59-4.692-1.86-4.82-4.438-.06-1.23.275-2.4.33-3.62.06-1.403-.2-2.8.29-4.154 1.092-3.01 5.57-1.59 7.85-1.76 3.88-.292 2.72-5.521 2.77-7.957.028-1.3 1.193-3.46.214-4.548-.6-.668-2-.707-2.817-.775-.82-.07-2.22-.315-2.768.465-1.002 1.43.093 3.834-.12 5.474-.123.935-4.105.098-3.954-1.058.346-2.65-1.412-6.2 2.424-6.654 2.464-.293 5.238.162 7.568.936 1.207.4 2.328.95 3.272 1.81 1.045.948.7 2.368.42 3.578-.68 2.944.74 6.333-1.182 8.928M86.154 35.46c-.12 3.81-.695 7.58-.71 11.4-.01 1.988-4 1.316-3.993-.347.016-3.64.502-7.232.688-10.863l.012-.222c-1.967.018-3.934-.18-5.904-.248.203 4.675-.617 9.31-.438 13.983.022.587-3.91.09-3.953-1.06-.172-4.515.593-8.996.457-13.513-.064-2.154-.247-4.303-.262-6.46-.008-1.105.173-2.204.332-3.293.147-1.008.488-2.353.183-3.35-.238-.778 3.594-.292 3.897.702.55 1.792-.224 4.076-.408 5.89-.177 1.74-.04 3.53.084 5.297 2.047.13 4.096.3 6.135.012.09-1.392.197-2.78.324-4.173.107-1.168.182-2.334.2-3.507.015-1.028.142-2.52-.224-3.492-.78-2.075 3.18-1.905 3.757-.368.71 1.887.507 4.237.386 6.22-.152 2.468-.482 4.92-.562 7.39M103.242 30.945c-.948 2.783-2.395 5.224-3.65 7.868 1.01 1.967 2.037 3.935 2.96 5.942.838 1.824 1.46 3.854 3.107 5.14.578.45.554.903-.26.96-.883.06-2.082-.195-2.795-.75-1.498-1.168-2.447-2.587-3.228-4.307-.94-2.07-1.914-4.1-2.94-6.13-.074-.15-.15-.298-.226-.448-.493-.318-.79-.77-.644-1.277-.8-1.578-1.614-3.146-2.52-4.653-.303 5.584-.964 11.162-1.162 16.75-.045 1.282-4.007.485-3.953-1.058.247-6.93 1.23-13.846 1.3-20.775l-.05-.05c-.302-.312-.19-.5.054-.608.002-1.767-.06-3.535-.21-5.303-.478-.752.466-1.15 1.093-1.15h.098c.746 0 2.648.354 2.742 1.377.193 2.118.254 4.234.234 6.35 1.606 1.73 2.917 3.662 4.094 5.685.766-1.495 1.495-3 2.007-4.626.87-2.765 2.32-5.307 3.16-8.086.55-1.822 4.497-.746 3.952 1.06-.84 2.776-2.224 5.344-3.16 8.087M112.207 35.773c-.103 1.258-.22 2.514-.305 3.777-.162 2.352.117 5.635 2.31 7.063.586.383 1.69.317 2.376.442.98.176 1.974.393 2.855-.192 1.22-.81.92-3.69.917-4.913 0-2.025.212-4.038.315-6.058-.56-.056-1.123-.09-1.7-.078-2.306.056-4.583.418-6.768-.04m14.752-.152c-.213.84-1.386.857-2.293.776-.014.34-.022.678-.036 1.017-.126 2.686-.167 5.427-.395 8.105-.21 2.48-1.6 3.368-4.007 3.275-2.44-.092-5.278-.53-7.55-1.416-2.633-1.024-4.097-2.96-4.602-5.733-.556-3.04.24-6.275.377-9.33.155-3.536.066-7.08.062-10.615 0-.58 3.952-.032 3.953 1.06.004 2.8.043 5.6 0 8.4-.014.827-.052 1.648-.104 2.466 1.382.6 3.72-.012 5.097-.142 1.118-.106 2.19.166 3.273.294.022-2.333.11-4.68.205-7.01.05-1.192.48-3.56-.356-4.55-.44-.52 1.493-.347 1.567-.334.8.148 1.777.405 2.324 1.05.96 1.13.46 3.825.405 5.173-.08 1.928-.104 3.858-.145 5.788 1.166.152 2.442.865 2.224 1.724M48.77 47.53c.526.052 1.055.23 1.49.53.088.073.174.146.26.22.524.337.98.833.734 1.372-.508 1.115-.427 2.25-.42 3.445.007.966-.972 1.257-1.797 1.185-.728-.064-2.187-.586-2.193-1.534-.008-1.002-.073-2.034.11-3.02-.05-.113-.076-.24-.106-.358-.055-.214.017-.424.145-.595v-.135c.007-.113.013-.226.017-.338.074-.235.218-.413.433-.535.39-.236.884-.28 1.328-.236" fill="#fff"/></g></svg>