<svg xmlns="http://www.w3.org/2000/svg" viewBox="0 0 114.1192 46.712269" height="46.712" width="114.119"><defs><clipPath id="a"><path d="M0 35.034h85.59V0H0z"/></clipPath></defs><g clip-path="url(#a)" transform="matrix(1.33333 0 0 -1.33333 0 46.712)"><path d="M4.18 8.733c-.014 3.472-.262 6.938-.356 10.41-.008.34-.015.68-.02 1.02.05-.122.097-.243.146-.365.54-1.35 1.102-2.663 1.838-3.92.732-1.244 1.1-2.58 1.52-3.94-.158-.18-.255-.39-.195-.595-.034-.15.058-.245.212-.305.537-.46 1.55-.232 2.113.008.242.1.473.22.696.355.29.182.744.573.613.978l-.072.235c.397 1.068.598 2.18.814 3.308.23 1.207.658 2.345 1.09 3.486.043-.52.088-1.044.13-1.567.173-2.148.028-4.27.007-6.422-.008-.713.046-1.375.184-2.076.06-.287.31-1.52.236-1.588-.516-.475-.366-1.06.326-1.21.772-.17 1.753.087 2.333.625 1.01.932.53 2.395.304 3.57-.386 1.973.076 4.18.016 6.19-.07 2.26-.43 4.503-.4 6.77.024 1.83.328 3.713-.303 5.47.04.2.08.398.118.6.164.878-2.753.413-3.21-.392-.29-.236-.44-.52-.315-.806.03-.07.057-.147.084-.22-.553-2.698-1.322-5.312-2.208-7.93-.34-1-.748-1.975-1.095-2.976-.49.933-.986 1.85-1.383 2.847-1.156 2.89-2.2 5.813-3.61 8.595.16 1.29-2.698 1.154-3.262-.026-.682-1.426-.592-2.866-.37-4.393.255-1.72.3-3.412.32-5.148.04-3.347.3-6.69.352-10.04-.298-.33-.39-.74-.078-1.158.136-.182.306-.322.483-.46.755-.612 2.945-.093 2.94 1.07M22.377 27.105c-.09.613-3.416-.084-3.3-.885.258-1.776.166-3.56.135-5.35-.03-1.723.393-3.284.615-4.972.226-1.732-.07-3.502.126-5.235.09-.812.632-2.312.074-3.018-.354-.447 1.238-.285 1.31-.275.646.12 1.51.33 1.938.875.552.698.165 2.043.045 2.828-.266 1.733-.096 3.536-.162 5.285-.06 1.676-.643 3.254-.65 4.946-.01 1.946.153 3.87-.13 5.802M25.5 20.46c.91-2.514 4.648-1.327 6.55-1.47 3.24-.24 2.273-4.608 2.314-6.64.023-1.086.995-2.89.18-3.8-.503-.555-1.67-.588-2.353-.646-.685-.056-1.852-.26-2.31.39-.836 1.194.077 3.2-.102 4.568-.102.78-3.424.08-3.3-.883.292-2.212-1.177-5.176 2.024-5.557 2.06-.244 4.372.136 6.317.783 1.007.334 1.943.792 2.73 1.51.873.793.586 1.978.352 2.986-.57 2.458.617 5.29-.987 7.454-1.738 2.345-4.962.658-7.212 1.297-1.16.33-1.175 1.91-1.17 2.86.002 1.203-.097 2.302-.23 3.492-.1.886-.022 1.787.627 2.447.12.12.722.283.68.286.3.05.573.063.9.076 1.304.056 3.886-.195 3.386-2.09-.225-.852 3.03-.365 3.266.536 1.02 3.874-6.138 3.13-8.16 2.592-1.862-.494-3.915-1.554-4.023-3.704-.052-1.027.23-2.006.274-3.022.053-1.17-.165-2.337.246-3.466M39.955 18.59c-.053-1.8-.208-3.593-.22-5.393-.006-.92.146-1.84.28-2.75.12-.84.406-1.963.15-2.795-.197-.647 3-.243 3.255.586.458 1.498-.188 3.403-.34 4.918-.148 1.452-.033 2.946.07 4.42 1.71.11 3.42.25 5.12.01.077-1.162.164-2.32.273-3.482.088-.976.15-1.95.164-2.93.015-.855.12-2.098-.185-2.912-.65-1.732 2.656-1.59 3.136-.308.592 1.577.423 3.537.323 5.195-.13 2.057-.403 4.105-.468 6.165-.102 3.182-.58 6.33-.594 9.515-.007 1.66-3.338 1.1-3.33-.288.01-3.04.416-6.037.57-9.068.005-.06.008-.12.01-.185-1.64.015-3.28-.15-4.93-.208.172 3.903-.513 7.772-.363 11.672.02.492-3.264.077-3.3-.883-.145-3.77.493-7.51.38-11.28M54.035 13.22c-.254-.26-.16-.415.045-.507 0-1.473-.05-2.95-.178-4.424-.396-.63.39-.96.912-.96h.082c.622 0 2.21.292 2.29 1.148.162 1.768.21 3.535.196 5.3 1.337 1.445 2.433 3.055 3.416 4.747.64-1.248 1.247-2.505 1.675-3.862.725-2.31 1.938-4.43 2.637-6.75.46-1.52 3.754-.62 3.298.885-.7 2.32-1.856 4.462-2.638 6.75-.79 2.322-1.998 4.36-3.046 6.568.845 1.64 1.7 3.284 2.47 4.96.698 1.525 1.22 3.216 2.594 4.29.483.375.464.754-.216.8-.737.054-1.738-.16-2.334-.625-1.25-.972-2.042-2.157-2.694-3.593-.784-1.726-1.598-3.42-2.455-5.118l-.19-.374c-.41-.263-.66-.64-.538-1.064-.666-1.317-1.347-2.627-2.104-3.885-.252 4.66-.803 9.317-.97 13.983-.035 1.07-3.344.404-3.296-.885.204-5.785 1.024-11.557 1.083-17.34-.013-.017-.027-.032-.04-.046M78.907 19.612c-1.928.046-3.828.35-5.65-.036-.087 1.05-.184 2.098-.256 3.154-.133 1.962.1 4.702 1.928 5.896.493.318 1.414.263 1.985.368.82.147 1.647.328 2.384-.16 1.017-.676.768-3.08.765-4.1-.002-1.69.177-3.37.262-5.06-.465-.045-.938-.072-1.417-.062m6.662-.162c-.178.7-1.156.716-1.915.648-.01.282-.017.567-.03.85-.106 2.24-.138 4.53-.328 6.764-.176 2.07-1.335 2.81-3.346 2.734-2.034-.077-4.403-.443-6.3-1.183-2.198-.852-3.422-2.47-3.842-4.784-.464-2.54.202-5.24.314-7.79.13-2.95.056-5.91.054-8.86 0-.484 3.296-.027 3.296.885.004 2.337.038 4.675 0 7.013-.01.69-.043 1.374-.085 2.057 1.156.5 3.107-.01 4.255-.118.933-.09 1.827.137 2.733.244.016-1.945.09-3.904.17-5.85.042-.997.402-2.974-.297-3.8-.368-.434 1.25-.287 1.31-.28.667.125 1.482.34 1.94.878.8.942.383 3.192.337 4.316-.066 1.612-.086 3.223-.12 4.834.97.13 2.036.727 1.854 1.442M18.7 30.93c-.047-.18.014-.357.12-.498l.002-.114c.004-.094.01-.188.013-.283.06-.194.18-.342.362-.446.325-.197.737-.233 1.108-.197.44.04.882.19 1.246.44.073.06.143.12.216.182.44.282.82.697.613 1.146-.425.933-.36 1.88-.35 2.876.004.808-.812 1.05-1.502.99-.608-.054-1.827-.49-1.83-1.28-.008-.836-.062-1.698.09-2.522-.04-.092-.064-.198-.087-.295M80.278 1.745c-1.558.585-3.283.615-4.85.787-1.603.17-3.246.41-4.884.563-1.637-.053-3.31-.028-4.972-.13l-4.88-.267c-6.487-.29-13-.253-19.517-.107-6.516.124-13.044.477-19.63.454-3.288-.008-6.565-.1-9.862-.25-1.632-.283-3.24-.5-4.904-.913C5.163 1.48 3.633.975 1.984.834 3.608.47 5.325.54 6.947.536c1.58-.01 3.243-.143 4.872-.23 3.228.17 6.486.245 9.732.256 6.488.025 13.015-.33 19.566-.45C47.666-.036 54.232-.075 60.8.22l4.908.268c1.602.07 3.198.127 4.83.067 1.627.15 3.252.33 4.917.533 1.664.238 3.22.627 4.854.51l.073-.007.006.054c.02.178-.04.324-.04.48-.036-.128-.04-.265-.072-.382"/></g></svg>