<?xml version="1.0" encoding="UTF-8" standalone="no"?>
<svg
   xmlns:dc="http://purl.org/dc/elements/1.1/"
   xmlns:cc="http://creativecommons.org/ns#"
   xmlns:rdf="http://www.w3.org/1999/02/22-rdf-syntax-ns#"
   xmlns:svg="http://www.w3.org/2000/svg"
   xmlns="http://www.w3.org/2000/svg"
   viewBox="0 0 88.00267 134.40266"
   height="134.40266"
   width="88.00267"
   xml:space="preserve"
   id="svg2"
   version="1.1"><metadata
     id="metadata8"><rdf:RDF><cc:Work
         rdf:about=""><dc:format>image/svg+xml</dc:format><dc:type
           rdf:resource="http://purl.org/dc/dcmitype/StillImage" /><dc:title></dc:title></cc:Work></rdf:RDF></metadata><defs
     id="defs6"><clipPath
       id="clipPath18"
       clipPathUnits="userSpaceOnUse"><path
         id="path16"
         d="M 0,100.802 H 66.002 V 0 H 0 Z" /></clipPath></defs><g
     transform="matrix(1.3333333,0,0,-1.3333333,0,134.40267)"
     id="g10"><g
       id="g12"><g
         clip-path="url(#clipPath18)"
         id="g14"><g
           transform="translate(56.335,91.5728)"
           id="g20"><path
             id="path22"
             style="fill:#ffffff;fill-opacity:1;fill-rule:nonzero;stroke:none"
             d="m 0,0 c -12.892,12.305 -33.773,12.305 -46.667,0 -12.891,-12.297 -12.891,-32.248 0,-44.542 0,0 23.318,-21.832 23.318,-47.031 0,25.199 23.343,47.031 23.343,47.031 C 12.891,-32.248 12.891,-12.297 0,0" /></g><g
           transform="translate(47.0361,55.2783)"
           id="g24"><path
             id="path26"
             style="fill:#6bc6b3;fill-opacity:1;fill-rule:nonzero;stroke:none"
             d="m 0,0 c -0.636,3.277 0.13,6.947 0.027,10.284 -0.115,3.756 -0.713,7.485 -0.665,11.246 0.039,3.044 0.545,6.174 -0.503,9.091 0.066,0.332 0.134,0.662 0.196,0.995 0.27,1.463 -4.577,0.69 -5.338,-0.649 -0.48,-0.392 -0.726,-0.861 -0.524,-1.339 0.051,-0.121 0.097,-0.243 0.142,-0.365 -0.917,-4.485 -2.197,-8.826 -3.668,-13.174 -0.563,-1.663 -1.244,-3.288 -1.817,-4.946 -0.815,1.545 -1.638,3.071 -2.3,4.728 -1.923,4.805 -3.656,9.661 -6.001,14.285 0.266,2.14 -4.484,1.916 -5.421,-0.044 -1.132,-2.371 -0.985,-4.763 -0.612,-7.299 0.42,-2.858 0.493,-5.668 0.527,-8.554 0.067,-5.566 0.502,-11.119 0.585,-16.683 -0.496,-0.552 -0.646,-1.233 -0.127,-1.925 0.226,-0.301 0.505,-0.535 0.799,-0.768 1.265,-1.013 4.9,-0.151 4.893,1.779 -0.02,5.771 -0.436,11.531 -0.589,17.299 -0.015,0.565 -0.025,1.129 -0.033,1.694 0.08,-0.203 0.158,-0.406 0.24,-0.608 0.896,-2.245 1.833,-4.427 3.059,-6.514 1.213,-2.068 1.823,-4.289 2.523,-6.547 -0.265,-0.303 -0.423,-0.647 -0.326,-0.991 -0.055,-0.251 0.099,-0.409 0.351,-0.504 0.894,-0.766 2.578,-0.383 3.514,0.01 0.4,0.168 0.785,0.364 1.155,0.593 0.483,0.297 1.236,0.95 1.02,1.622 -0.041,0.13 -0.081,0.26 -0.121,0.39 0.658,1.777 0.993,3.625 1.352,5.5 0.381,2 1.095,3.892 1.811,5.786 0.074,-0.867 0.15,-1.732 0.219,-2.597 0.285,-3.574 0.046,-7.098 0.011,-10.674 -0.013,-1.185 0.074,-2.287 0.306,-3.445 0.095,-0.48 0.513,-2.53 0.393,-2.642 -0.855,-0.79 -0.606,-1.759 0.539,-2.011 1.279,-0.281 2.912,0.149 3.877,1.039 C 1.171,-4.389 0.378,-1.956 0,0" /></g></g></g></g></svg>