<svg xmlns="http://www.w3.org/2000/svg" viewBox="0 0 88.00267 134.40266" height="134.403" width="88.003"><defs><clipPath id="a"><path d="M0 100.802h66.002V0H0z"/></clipPath></defs><g clip-path="url(#a)" transform="matrix(1.33333 0 0 -1.33333 0 134.403)"><path d="M56.335 91.573c-12.892 12.305-33.773 12.305-46.667 0-12.89-12.297-12.89-32.248 0-44.542 0 0 23.318-21.83 23.318-47.03 0 25.2 23.343 47.03 23.343 47.03 12.896 12.295 12.896 32.246.005 44.543" fill="#fff"/><path d="M47.036 55.278c-.636 3.277.13 6.947.027 10.284-.115 3.756-.713 7.485-.665 11.246.04 3.044.545 6.174-.503 9.09.066.333.134.663.196.996.27 1.463-4.576.69-5.337-.65-.48-.39-.726-.86-.524-1.338.05-.12.096-.243.14-.365-.916-4.484-2.196-8.825-3.667-13.173-.563-1.663-1.244-3.288-1.817-4.946-.815 1.546-1.638 3.072-2.3 4.73-1.923 4.804-3.656 9.66-6 14.284.265 2.14-4.485 1.916-5.422-.044-1.132-2.37-.985-4.763-.612-7.3.42-2.857.493-5.667.527-8.553.066-5.566.5-11.12.584-16.683-.496-.552-.646-1.233-.127-1.925.226-.302.505-.536.8-.77 1.264-1.012 4.9-.15 4.892 1.78-.02 5.77-.437 11.53-.59 17.3-.015.564-.025 1.128-.033 1.693.08-.203.158-.406.24-.608.896-2.245 1.833-4.427 3.06-6.514 1.212-2.067 1.822-4.288 2.522-6.546-.266-.303-.424-.647-.327-.99-.055-.252.1-.41.35-.505.895-.767 2.58-.384 3.515.01.4.167.785.363 1.155.592.483.297 1.236.95 1.02 1.622l-.12.39c.657 1.777.992 3.625 1.35 5.5.382 2 1.096 3.892 1.812 5.786.074-.867.15-1.732.22-2.597.284-3.574.045-7.098.01-10.674-.013-1.186.074-2.288.306-3.446.096-.48.514-2.53.394-2.642-.855-.79-.606-1.76.54-2.01 1.278-.282 2.91.148 3.876 1.038 1.677 1.55.884 3.982.506 5.938" fill="#6bc6b3"/></g></svg>