<svg xmlns="http://www.w3.org/2000/svg" viewBox="0 0 134.23734 102.52213" height="102.522" width="134.237"><defs><clipPath id="a"><path d="M0 76.892h100.678V0H0z"/></clipPath></defs><g clip-path="url(#a)" transform="matrix(1.33333 0 0 -1.33333 0 102.522)"><path d="M96.956 58.742s-.92 7.008-3.785 10.078c-3.63 4.04-7.673 4.067-9.54 4.297-13.326 1.023-33.303 1.023-33.303 1.023h-.05s-19.98 0-33.305-1.023c-1.868-.23-5.91-.256-9.54-4.297-2.84-3.096-3.787-10.078-3.787-10.078s-.895-8.21-.895-16.422v-7.7c0-8.21.947-16.42.947-16.42s.92-7.01 3.785-10.078c3.632-4.04 8.364-3.913 10.487-4.35 7.62-.766 32.355-1.02 32.355-1.02s20.003.024 33.328 1.047c1.867.23 5.908.255 9.54 4.297 2.84 3.07 3.786 10.078 3.786 10.078s.946 8.21.946 16.42v7.7c-.024 8.236-.97 16.447-.97 16.447" fill="#63d1bb"/><path d="M18.37 6.498c7.478-.73 31.217-.99 31.97-.997.656.002 20.134.05 33.046 1.037.177.022.37.04.58.063 1.836.185 4.607.467 7.185 3.335l.028.028c1.825 1.974 2.852 6.93 3.075 8.553.058.513.926 8.357.926 16.08v7.698c-.025 7.76-.898 15.627-.953 16.11-.32 2.38-1.433 6.788-3.065 8.538l-.035.038c-2.577 2.87-5.352 3.15-7.187 3.336-.21.022-.4.04-.58.063-13.065.996-32.833 1.01-33.032 1.01h-.05c-.2 0-19.97-.014-33.034-1.01-.177-.023-.37-.042-.58-.064-1.835-.186-4.607-.467-7.187-3.336l-.018-.02c-1.83-1.993-2.857-6.925-3.083-8.553-.062-.59-.875-8.4-.875-16.09V34.62c0-7.75.87-15.6.926-16.084.32-2.38 1.433-6.79 3.066-8.54l.035-.038c2.32-2.584 5.302-2.975 7.478-3.26.48-.06.94-.12 1.363-.2M50.315 0H50.3C49.283.013 25.35.27 17.694 1.04l-.14.014-.137.028c-.272.056-.668.107-1.126.167-2.503.328-7.16.938-10.84 5.02C2.1 9.882 1.077 17.037.97 17.842l-.005.043C.925 18.227 0 26.35 0 34.62v7.7c0 8.266.875 16.378.912 16.72l.01.07c.107.803 1.154 7.93 4.472 11.558 3.997 4.44 8.532 4.9 10.712 5.12.193.022.37.038.53.06l.126.012c13.277 1.02 33.312 1.032 33.514 1.032h.05c.202 0 20.236-.013 33.515-1.032l.127-.012c.16-.022.337-.038.53-.06 2.178-.22 6.71-.68 10.702-5.11 3.354-3.617 4.377-10.772 4.483-11.577l.004-.042c.04-.343.965-8.46.99-16.753v-7.708c0-8.274-.925-16.396-.964-16.737l-.007-.052c-.108-.806-1.156-7.954-4.48-11.563C91.234 1.81 86.702 1.35 84.52 1.128c-.192-.02-.37-.037-.53-.057l-.126-.01C70.59.037 50.53 0 50.33 0z" fill="#fff"/><path d="M38.434 56.313V20.603L68.18 38.46z" fill="#fff"/></g></svg>