<svg style="display: none;">
  <symbol xmlns="http://www.w3.org/2000/svg" viewBox="0 0 27.0592 25.132133" height="25.132" width="27.059" id="cart"><defs><clipPath id="a"><path d="M0 18.85h20.294V0H0z"/></clipPath></defs><g clip-path="url(#a)" transform="matrix(1.33333 0 0 -1.33333 0 25.132)"><path d="M17.017 7.284H3.277l-.81 2.836h15.36zM15.364 1.5H4.93L3.708 5.784h12.88zm4.18 10.12h-3.15l-3.407 6.814c-.185.37-.635.52-1.007.336-.37-.186-.52-.636-.335-1.007l3.07-6.143H5.58l3.07 6.143c.185.37.035.82-.335 1.007-.37.184-.82.035-1.006-.336L3.9 11.62H.75c-.414 0-.75-.336-.75-.75s.336-.75.75-.75h.158l.855-2.99c-.187-.138-.316-.347-.316-.596 0-.396.31-.71.696-.74L3.8 0h12.696l1.656 5.795c.388.028.698.343.698.74 0 .248-.13.458-.317.595l.855 2.99h.157c.414 0 .75.336.75.75s-.336.75-.75.75" fill="#231f20"/></g></symbol>

  <symbol xmlns="http://www.w3.org/2000/svg" viewBox="0 0 19.9492 36.957733" height="36.958" width="19.949" id="fb"><defs><clipPath id="a"><path d="M0 27.718h14.962V0H0z"/></clipPath></defs><g clip-path="url(#a)" transform="matrix(1.33333 0 0 -1.33333 0 36.958)"><path d="M7.845 17.743c.117-.254.254-.486.414-.698.078-.022.202-.003.204-.1 1.193-.056 2.2.07 3.096.3 0-1-.27-1.734-.518-2.493-.662-.045-1.467-.3-1.958-.198-.276-.165-.372-.506-.62-.698-.05-.442.142-.495 0-.797-.2-.138-.055-.612-.205-.797v-1.496c.084-.28-.146-.258-.104-.497V6.782c-.085-.282.146-.258.103-.498v-2.99c.063-.27-.133-.79.102-.896-.07-.364-.413.02-.825-.1-.528-.122-.925-.37-1.547-.4.117.352.32.622.31 1.096.05.38-.365.312-.516.5.194.642.563 1.116.722 1.79.197.516.714 1.3.31 1.795-.523.105-.522-.294-.826-.4-.023-.076-.002-.195-.103-.198-.023-.077-.003-.197-.103-.2.01-.12-.15-.06 0 0 .023.08.002.198.103.2.023.077.002.197.103.2v.298c.368.575.67 1.214.826 1.993.19.28.283.656.412.997.156.262.34.87.104 1.195-.516-.033-.796-.295-.93-.697-.32.19.162.434.105.697.138.232.17.567.31.797.2.413.563 1.304 0 1.596-.44.023-.614-.207-.724-.498-.214-.192-.43-.383-.516-.698-.373.07-.142.726-.206 1.096-.066.52.123.9 0 1.196-.558.798-2.025.105-3.196.298-.108.307-.222.985-.103 1.196 1.046.088 2.48-.2 3.198.2.024.077.003.196.103.198.095.723-.27 1-.513 1.396.232.805.04 2.02.103 2.99.234.14.328.413.515.597.112.954.673 1.474.722 2.49-.274 0-.608.056-.62-.198-.3.114-.38-.48-.514-.2-.113.54.246.626.308.997.6.417 1.213.82 1.858 1.195 1.74.244 4.648.45 6.086-.198.05-.617-.287-.854-.207-1.497H11.56c-1.09-.24-1.986-.67-2.99-.997-.24-.066-.277-.33-.516-.398-.036-.397-.225-.647-.31-.996-.08-1.44.13-2.597.1-3.987m3.818 4.783c1.027-.03 1.994 0 2.68.3.392.817.557 1.854.62 2.99-.19.013-.062.336-.207.398-.03.202-.278.195-.308.398-.278.165-.457.422-.723.598-.727.16-1.44.335-2.164.498-.85-.044-1.895.103-2.58-.1-2.62.04-3.997-1.12-5.26-2.39-.022-.08-.003-.198-.104-.2-.575-1.587-.125-3.62-.205-5.58.1-.437.11-.96.206-1.396-1-.296-2.212-.386-3.403-.5-.317-.322-.178-1.088-.206-1.692.085-.583.278-1.06.413-1.595.21-.193.596-.396.825-.498.065-.03.072-.082.103-.1.506-.267 1.45-.007 2.268-.1-.137-1.977.255-3.914 0-5.68.006-.326.294-.38.207-.797 0-.962-.067-1.99.208-2.69-.287-.455-.496-.982-.414-1.794.122-.016.113-.157.104-.3-.074-.47.644-.174.516-.697.162-.457-.428-.185-.413-.5V.205c.53-.285 1.462-.18 2.268-.2.91.42 2.19.48 2.786 1.197.46-.234.916.015 1.24.2-.02.316.272.334.204.7-.004.327-.173.495-.103.895v2.89c-.206 2.292-.048 4.938-.31 7.175.89.105 1.918.075 2.58.398.357.452.377 1.23.515 1.895.177.225.22.583.206.996.19.212.07.728.104 1.095-.14.595-.168 1.3-.825 1.395-.884.235-2.043-.596-2.992-.3.05 1.135-.293 2.343 0 3.39.747.175 1.448.394 2.167.596" fill="#231f20"/></g></symbol>

  <symbol xmlns="http://www.w3.org/2000/svg" viewBox="0 0 205.84534 260.43332" height="260.433" width="205.845" id="htmlacademy"><defs><clipPath id="a"><path d="M0 195.325h154.384V0H0z"/></clipPath></defs><path d="M191.803 93.807l-89.36-52.677v-.014l-.01.007-.012-.007v.014L14.044 93.746V23.438l88.88-9.32 88.88 9.32zm-.072 9.323l-24.314 14.325-11.225 6.613-53.53-31.845-.09 9.268 45.757 27.21-.406.24-.984.58-6.5 3.83-37.777-22.472-.09 9.268 29.817 17.73-7.035 4.706-.17.102-22.523-13.268-.09 9.267 14.78 8.704-15.055 9.04-88.06-52.347 88.186-53.006v.01zm.073 88.078l-88.88 52.884-88.88-52.884v-76.82l88.498 52.674.15 9.546-60.713-36.133-.09 9.268 60.954 36.633.152 9.8-60.933-36.248-.09 9.267 60.953 36.633 61.536-36.82v-9.31l-.077.045V129.47l27.42-16.375zM103.996.782L102.92.67.667 11.39v187.424l102.256 60.844 102.256-60.844V11.39z"/><g clip-path="url(#a)" transform="matrix(1.33333 0 0 -1.33333 0 260.433)"><path d="M143.852 124.97l-67.02 39.508v.01l-.008-.005-.008.005v-.01l-66.284-39.462v52.73l66.66 6.99 66.66-6.99zm-.054-6.992l-18.236-10.744-8.42-4.96-40.148 23.884-.066-6.95L111.245 98.8l-.304-.18-.738-.435-4.876-2.872-28.332 16.854-.066-6.95 22.362-13.3-5.276-3.528-.128-.078-16.892 9.95-.066-6.95 11.084-6.527-11.29-6.78-66.045 39.26 66.14 39.755v-.007zm.054-66.06l-66.66-39.662-66.66 39.663v57.614L76.906 70.03l.11-7.16-45.533 27.1-.067-6.952L77.13 55.543l.114-7.35-45.7 27.186-.066-6.95 45.714-27.476 46.152 27.616v6.982l-.057-.034v22.705l20.565 12.28zM77.997 194.74l-.807.085-76.69-8.04V46.215L77.192.582l76.692 45.633v140.568z" fill="none" stroke="#231f20" stroke-miterlimit="10"/></g></symbol>

  <symbol xmlns="http://www.w3.org/2000/svg" viewBox="0 0 66.666664 34.6712" height="34.671" width="66.667" id="huge-arrow-left"><path d="M17.34 0L0 17.332l.004.002L0 17.34l17.34 17.332 3.77-3.77L10.216 20h56.452V14.67H10.212l10.9-10.898z"/></symbol>

  <symbol xmlns="http://www.w3.org/2000/svg" viewBox="0 0 66.666664 34.6712" height="34.671" width="66.667" id="huge-arrow-right"><path d="M49.327 0l-3.772 3.772 10.9 10.898H0v5.332h56.45l-10.895 10.9 3.772 3.77 17.34-17.332-.005-.006.005-.002z"/></symbol>

  <symbol xmlns="http://www.w3.org/2000/svg" viewBox="0 0 42.629601 49.734402" height="49.734" width="42.63" id="icon-1"><defs><clipPath id="a"><path d="M0 37.3h31.972V0H0z"/></clipPath></defs><g clip-path="url(#a)" transform="matrix(1.33333 0 0 -1.33333 0 49.734)"><path d="M0 15.986C0 7.16 7.158 0 15.986 0c0 8.828-7.158 15.986-15.986 15.986m15.986 13.32c2.45 0 4.44-1.988 4.44-4.44 0-2.45-1.99-4.44-4.44-4.44s-4.44 1.99-4.44 4.44c0 2.452 1.99 4.44 4.44 4.44M4.626 20.87c0-2.45 1.99-4.44 4.44-4.44.934 0 1.805.293 2.515.782l-.035-.337c0-2.452 1.99-4.442 4.44-4.442 2.452 0 4.44 1.99 4.44 4.442l-.035.337c.72-.497 1.582-.783 2.514-.783 2.45 0 4.44 1.99 4.44 4.44 0 1.768-1.038 3.286-2.54 3.997 1.492.71 2.54 2.23 2.54 3.996 0 2.45-1.99 4.44-4.44 4.44-.932 0-1.803-.292-2.514-.78l.036.337c0 2.45-1.99 4.44-4.44 4.44s-4.44-1.99-4.44-4.44l.035-.337c-.72.497-1.58.78-2.513.78-2.45 0-4.44-1.99-4.44-4.44 0-1.767 1.04-3.286 2.54-3.996-1.5-.71-2.54-2.23-2.54-3.997M15.987 0C24.812 0 31.97 7.16 31.97 15.986c-8.828 0-15.986-7.158-15.986-15.986"/></g></symbol>

  <symbol xmlns="http://www.w3.org/2000/svg" viewBox="0 0 45.830666 45.830132" height="45.83" width="45.831" id="icon-2"><defs><clipPath id="a"><path d="M0 34.373h34.373V0H0z"/></clipPath></defs><g clip-path="url(#a)" transform="matrix(1.33333 0 0 -1.33333 0 45.83)"><path d="M.286 20.304c-.382-2.073-.384-4.21.008-6.3l4.12 3.21zM24.403 32.787C19.62 34.995 13.96 34.93 9.15 32.38l7.512-5.625zM33.9 21.198l-4.81-3.748 4.936-3.695c.496 2.444.463 4.987-.125 7.443M9.21 1.96c4.843-2.535 10.723-2.65 15.73-.114l-8.097 6.06zM7.914 19.94L1.68 24.605c-.32-.67-.594-1.356-.824-2.057l5.308-3.974zM18.593 9.27l8.336-6.24c.276.19.55.39.82.6.318.247.624.504.92.77l-8.327 6.234zM11.413 22.666l-7.41 5.55c-.464-.553-.886-1.13-1.27-1.725l6.93-5.187zM22.093 11.997l8.092-6.06c.47.545.904 1.114 1.297 1.703l-7.64 5.72zM14.913 25.392L7.197 31.17c-.193-.138-.385-.28-.574-.427-.396-.31-.773-.632-1.135-.967l7.675-5.747zM25.592 14.724l6.972-5.22c.33.66.615 1.34.855 2.032l-6.078 4.55zM26.448 31.667L.88 11.747c.233-.7.512-1.387.84-2.06L28.24 30.35c-.573.482-1.172.92-1.792 1.317M30.743 27.75c-.3.385-.614.753-.94 1.105L2.787 7.805c.262-.402.542-.796.843-1.182.14-.183.286-.36.434-.534l27.09 21.106c-.133.186-.268.37-.41.553M32.298 25.374L5.552 4.534c.544-.5 1.114-.962 1.707-1.382L33.22 23.38c-.263.678-.57 1.344-.924 1.994"/></g></symbol>

  <symbol xmlns="http://www.w3.org/2000/svg" viewBox="0 0 62.100266 36.442001" height="36.442" width="62.1" id="icon-3"><defs><clipPath id="a"><path d="M0 27.332h46.575V0H0z"/></clipPath></defs><g clip-path="url(#a)" transform="matrix(1.33333 0 0 -1.33333 0 36.442)"><path d="M3.023 24.615h40.202V2.382H3.023zm39.647 2.717H3.904C1.748 27.332 0 25.582 0 23.427V3.905C0 1.75 1.748 0 3.904 0H42.67c2.156 0 3.905 1.75 3.905 3.905v19.522c0 2.156-1.75 3.905-3.905 3.905"/><path d="M23.288 18.813c2.936 0 5.315-2.38 5.315-5.314 0-2.938-2.38-5.317-5.315-5.317-2.936 0-5.314 2.38-5.314 5.315 0 2.935 2.378 5.315 5.314 5.315M6.928 6.287h32.395V20.71H6.928z"/></g></symbol>

  <symbol xmlns="http://www.w3.org/2000/svg" viewBox="0 0 72.208397 30.910801" height="30.911" width="72.208" id="icon-4"><defs><clipPath id="a"><path d="M0 23.183h54.156V0H0z"/></clipPath></defs><g clip-path="url(#a)" transform="matrix(1.33333 0 0 -1.33333 0 30.91)"><path d="M40.312 17.472c-3.647.97-7.84 1.667-12.36 1.666-2.89 0-5.457-.243-7.71-.623l-6.785 4.668-13.456-.005 5.813-6.184h8.447C9.68 15.396 7.5 13.48 7.5 13.48L7.502 9.7s2.314-1.912 6.93-3.517L5.81 6.19 0 .002 13.454 0l6.816 4.693c2.263-.4 4.824-.648 7.683-.65 4.522.002 8.712.7 12.36 1.668-1.177 1.777-1.916 3.744-1.92 5.878.005 2.14.74 4.11 1.92 5.884M43.734 16.438c-1.284-1.605-1.97-3.25-1.965-4.84-.008-1.598.676-3.24 1.967-4.848 6.4 2.163 10.42 4.841 10.42 4.841 0 .002-4.02 2.68-10.423 4.848"/></g></symbol>

  <symbol xmlns="http://www.w3.org/2000/svg" viewBox="0 0 44.067066 37.1432" height="37.143" width="44.067" id="icon-5"><defs><clipPath id="a"><path d="M0 27.857h33.05V0H0z"/></clipPath></defs><g clip-path="url(#a)" transform="matrix(1.33333 0 0 -1.33333 0 37.143)"><path d="M33.05 19.12c0 4.826-3.912 8.737-8.736 8.737-3.406 0-6.348-1.95-7.79-4.793-1.44 2.842-4.383 4.793-7.788 4.793C3.91 27.857 0 23.947 0 19.12 0 9.995 14.656 0 16.525 0c1.87 0 16.525 9.95 16.525 19.12"/></g></symbol>

  <symbol xmlns="http://www.w3.org/2000/svg" viewBox="0 0 43.554668 43.315067" height="43.315" width="43.555" id="icon-6"><defs><clipPath id="a"><path d="M0 32.486h32.666V0H0z"/></clipPath></defs><g clip-path="url(#a)" transform="matrix(1.33333 0 0 -1.33333 0 43.315)"><path d="M17.27 0h12.507v13.91H17.27zm1.982 27.586c.557.797 1.21 1.466 1.887 1.916.678.45 1.36.683 2.046.683h.005c.576 0 1.12-.22 1.496-.55.377-.336.57-.74.573-1.17-.005-.513-.274-1.26-1.468-2.133-1.138-.825-3.1-1.673-6.127-2.265.29 1.202.847 2.472 1.587 3.52M8.715 25.958c-.622.39-1 .784-1.22 1.134-.22.353-.294.662-.296.963-.005.504.247 1.042.69 1.46.437.416 1.03.668 1.563.668h.013c.684 0 1.366-.232 2.046-.683 1.017-.67 1.974-1.85 2.644-3.187.342-.675.61-1.39.79-2.086-3.083.32-5.08 1-6.23 1.73m22.36-2.34h-7.334c.522.267.985.55 1.397.845 1.587 1.133 2.423 2.57 2.42 4 0 1.168-.557 2.2-1.36 2.9-.805.704-1.87 1.12-3.016 1.12-1.22.002-2.352-.42-3.32-1.068-1.46-.98-2.607-2.45-3.425-4.067-.04-.08-.08-.158-.116-.237-.3.623-.647 1.226-1.04 1.792-.692.986-1.524 1.86-2.498 2.51-.97.648-2.102 1.07-3.322 1.07-1.213-.004-2.323-.513-3.155-1.295-.83-.783-1.412-1.884-1.414-3.134 0-.73.21-1.494.65-2.188.552-.872 1.424-1.628 2.633-2.248H1.59c-.877 0-1.59-.712-1.59-1.59v-5.897h15.396v7.488h1.874v-7.487h15.396v5.897c.002.88-.71 1.59-1.59 1.59M2.897 0h12.503v13.91H2.894z"/></g></symbol>

  <symbol xmlns="http://www.w3.org/2000/svg" viewBox="0 0 29.024799 28.445333" height="28.445" width="29.025" id="insta"><defs><clipPath id="a"><path d="M0 21.334h21.77V0H0z"/></clipPath></defs><g clip-path="url(#a)" transform="matrix(1.33333 0 0 -1.33333 0 28.445)"><path d="M13.188 13.667c.21-.12.44-.217.605-.38.086-.22.245-.364.38-.53.06-.778.18-1.492.153-2.354-.258-.098-.44-.27-.684-.38-.78.005-1.357.21-1.896.456-.172.257-.357.503-.534.757V12.3c.17.184.32.39.457.607.226.127.506.2.453.608-.038.06-.078.124-.075.228.158-.045.244-.16.378-.228.323-.02.41.2.76.152m1.14-3.796c-.235.058-.146-.207-.38-.15.07.158.12.337.23.454.132-.02.17-.13.15-.303m-2.202-2.58c.034.11.066-.008.152 0-.02-.097-.15-.076-.152 0m-.76 2.885c-.04.038.055.096.077.076.04-.038-.053-.097-.074-.075m-.38 3.947c-.204-.258.04-.576.076-.836-.305.04-.573.888-.077.836m-1.67-2.125c.015.086.075.042.075 0-.014-.087-.075-.043-.075 0m-.456-2.05c.04.116.078.005.075-.076-.04-.116-.08-.004-.076.076m-.076.305c-.114.064-.11.245-.153.38.257.078.12-.236.154-.38M12.2 14.58c-.223.232-.676.234-.987.38-.697.037-1.222-.094-1.746-.23-.304-.15-.608-.303-.91-.453-.266-.166-.445-.418-.76-.532-.205-.224-.35-.51-.683-.607-.004-.223-.173-.282-.304-.38-.09-.114-.094-.31-.227-.38-.008-.12.035-.29-.077-.303.11-1.51.29-2.948.683-4.177.286-.623.975-.845 1.44-1.29.59-.296 1.33-.444 2.127-.53.278.05.553.105.91.075 1.21.21 2.1.738 2.81 1.443.1.28.253.508.456.683-.254.67.293 1.098.455 1.596.002 1.344-.2 2.48-.607 3.415-.254.58-.918.752-1.365 1.14-.058.016-.15.002-.15.075-.27.13-.734.233-1.066.076m1.14 1.82c-.112-.045.005-.09-.002 0m-2.808.61c.02-.022.114.036.075.076-.02.02-.115-.037-.076-.077m.532.38c-.316.073-.016-.228 0 0m2.276-.988c.534.048.75.415 1.215.53.284.3.784.382.988.76-.56-.023-.765-.4-1.215-.53-.284-.297-.75-.414-.987-.76m-2.276.987c.346.134.613.347.834.607-.348-.134-.614-.348-.834-.607m.834.607c.064-.014.072.03.077.076-.066.014-.072-.03-.077-.076m.077.076c.064-.014.07.03.075.076-.064.014-.072-.03-.075-.076m.075.076c.11.046-.007.092 0 0m.683.608c-.11-.047.008-.092 0 0m.685-.836c.726.158 1.18.59 1.746.91-.436-.017-.59-.32-.987-.378-.215-.216-.6-.26-.758-.532m1.746.91c.11.048-.007.093 0 0m-1.062.608c-.53-.154-1.018-.348-1.367-.682.485.198 1.06.306 1.368.682m0 0c.11.048-.01.092 0 0m5.845-3.72c-.64.12-1.233.285-1.898.38.073.333.8.01.988.227.384.223.295.92.303 1.52.034.346.116.642.078 1.062-.403.95-1.785.42-2.887.455-.225-.717-.47-1.8-.304-2.656.17-.49 1.026-.293 1.52-.456-.14-.332-.69-.058-.988-.076-.296.083-.707.052-.986.15-2.287-.076-4.285-.003-6.53-.15.116 1.247.062 2.465-.077 3.644h3.112c-.344-.364-.912-.506-1.29-.835-.44-.243-.86-.504-1.14-.91.25-.133.536.245.76.38.355.073.48.38.835.454.424.44 1.097.626 1.67.912.38.023.698-.013.988-.076 1.282-.008 2.455-.127 3.795-.076.614-.145 1.45-.07 1.974-.304.107-.297.23-.58.304-.91.01-.997-.146-1.827-.226-2.733m-.38-11.16c-.11-.954-.158-1.968-.38-2.81-2.89-.122-6.018-.004-8.882-.152-.2-.045-.273.03-.228.228-.253 0-.258-.247-.532-.228.202.336.438.898.152 1.29-.797-.012-.797-.82-1.138-1.29-.685.052-1.137-.127-1.823-.075.18.705.75 1.02.91 1.745-.394.55-.988-.138-1.213-.455-.203-.48-.556-.81-.76-1.29h-.986c.238.468.49.925.76 1.366.17.51.624.74.68 1.367-.156.28-.418.03-.68 0-.124-.182-.274-.335-.38-.53-.233-.377-.502-.715-.685-1.14-.18-.21-.336-.004-.53-.228-.39-.27-.58-.736-.99-.987-.173.06.04.357.154.38.046.18-.096.55.075.607.063.367.21.648.378.91.12.743.522 1.2.684 1.9-.56-.1-.674-.644-.987-.988-.213-.446-.542-.773-.683-1.29-.174.13-.028.58-.076.835.122.586.298 1.12.38 1.746.132.22.172.535.228.834.168.21.046.61-.077.76-.226-.027-.374-.132-.455-.303-.192.03-.193-.507-.304-.305-.045 2.587-.45 4.813-.456 7.44.027.33-.182.423-.227.683 1.63-.028 3.12-.09 4.783-.228-.09-.14-.2-.257-.304-.38-.144-.07-.226-.172-.38-.303-.603-1.653-.974-3.984-.606-6.15.228-.58.59-1.03.986-1.442.907-.485 1.635-1.15 2.506-1.67 1.7-.362 3.84-.37 5.54 0 .238.12.486.225.687.38 1.363 1.24 2.75 2.458 2.96 4.86v1.366c-.198 1.598-.69 2.906-1.748 3.644.33.22 1.098-.043 1.67-.076.223-.013.448-.014.684 0 .408.024.928.055 1.443 0 .144-.186.114-.544.228-.76-.062-1.683-.193-3.3-.153-5.087.103-.453.127-.985.23-1.44-.09-.975-.236-1.892-.457-2.733M1.345 15.64v1.594c.195.185.395.365.607.533.295-.49.178-1.392.455-1.898-.276-.157-.75-.11-1.063-.23m-.076 3.265c.226.205.45.41.684.608-.022.122.07.13.076.227h.228c.102-.38-.26-.296-.304-.53.02-.123-.073-.132-.076-.228.02-.336.122-.588.076-.988-.27-.008-.276-.28-.608-.227.024.428-.134.674-.076 1.138m.456.76c-.034-.22-.326-.18-.38-.38-.214.17.084.468.38.38m.986.075c.03-.26-.438-.32-.378 0zm.684-3.72c.148.03.11-.345-.076-.228.04.062.08.124.076.228m.228 3.72c.033-.158-.052-.2-.076-.304-.175-.023-.084.22-.228.23.024.102.19.062.304.074m0-1.138c-.263-.054-.273.266-.153.38.262.053.27-.267.152-.38m-.228-2.05c.077.31.034.303.075.682.228-.012.26-.77-.076-.682m.152.987c-.204-.022-.216.533-.077.606.327-.006.248-.5.076-.607m.532 0c.006.107.012.213-.077.227-.07.733.13 1.415 0 1.973.25.155.77.042 1.14.077v-1.14c-.088-.063-.203-.1-.38-.075-.053-.28.325-.132.38-.304.008-.853-.056-1.777.152-2.43-.565.06-.906-.106-1.442-.075.097.612-.018 1.435.53 1.594-.01.14-.256.047-.302.152m2.353-1.217c.176.025.085-.218.23-.227-.01-.193-.285-.18-.38-.076.038.112.112.192.15.303m.153.23c-.058-.14-.082.044-.076.15.058.14.08-.045.076-.15m0 1.365c-.132.07-.168.237-.152.456.133-.07.17-.238.153-.456M6.43 19.74c.09.013.135-.016.153-.076.18-.253.01-.683-.076-.91-.174.178-.027.68-.076.986m.684-1.594c-.117.263-.067.692-.075 1.063-.008.283.276.277.302.53-.003.074-.092.06-.152.076.127.146.7.097.835 0 .132-.537-.355-.455-.53-.683.01-.168.32-.032.455-.076.03-.854-.06-1.496 0-2.202h-.456c-.007-.234.228-.226.456-.228-.06-.286.092-.363.075-.607-.226-.153-.716-.043-1.062-.076-.103.594.236 1.375.15 2.202m1.672-2.733c.757.153 1.48.34 2.428.304.71-.075 1.287-.282 1.898-.455.117-.184-.242-.547.154-.684v-.076c.06-.017.15-.002.152-.076.445-.035.793-.167 1.063-.38.45-.054.535-.475 1.137-.38-.09-.212-.084-.523-.075-.834.324-1.183.474-2.81.302-4.252-.164-.163-.215-.442-.302-.683-.31-.322-.482-.785-.836-1.062-.095-.236-.25-.408-.455-.533-.115-.213-.205-.452-.456-.53-.297-.164-.577-.01-.834.076-.446-.162-.904-.312-1.214-.608-.817.096-1.65.175-2.43.304-.242.14-.487.273-.835.305-.226.203-.495.363-.835.454-.1.127-.337.118-.455.228-.198.03-.23.227-.456.23-.118.41-.442.617-.53 1.06-.227.33-.31.805-.456 1.215-.043 1.434.09 2.692.38 3.796.345.59.778 1.094 1.137 1.67.25-.02.365.09.38.304.306-.053.434.072.684.075.254.074.265.39.455.53m12.98-6.224c-.012 2.395-.343 4.79-.302 7.135-.023.788-.086 1.535-.152 2.28-.104.298-.11.698-.15 1.06-.26.17-.223.64-.457.837-.423.233-1.202.113-1.744.227-.66.026-1.255.115-1.9.152-1.936.1-3.974.075-5.997.075-2 0-3.954.145-5.695.38H3.166c-.097-.005-.105-.1-.227-.077-.6-.034-1.078-.188-1.596-.303-.21-.12-.42-.236-.683-.305-.135-.192-.512-.144-.606-.38-.186-.21.185-.45 0-.606v-.91c.174-.13.028-.58.075-.836v-.987c-.017-1.28.133-2.397.076-3.72C.673 10.45.58 6.675.282 3.8c.155-.58.363-1.106.455-1.746.256-.48.335-1.133.683-1.52C1.922.326 2.653.347 3.318.304 3.7.206 3.985.01 4.458 0 7.3.21 9.954.154 12.884.23c2.704-.242 5.802-.19 8.276.226.195.134.128.53.227.76-.055.385.207.45.228.76.133 2.39.165 4.786.15 7.212" fill="#231f20"/></g></symbol>

  <symbol xmlns="http://www.w3.org/2000/svg" viewBox="0 0 53.625599 83.214798" height="83.215" width="53.626" id="interior"><defs><clipPath id="a"><path d="M0 62.41h40.22V0H0z"/></clipPath></defs><g clip-path="url(#a)" transform="matrix(1.33333 0 0 -1.33333 0 83.215)"><path d="M15.178 24.453c-.286-.966-.245-2.19.027-3.64.494-2.633 1.686-6.04 2.358-9.67h5.062c.697 3.642 1.95 7.05 2.47 9.684.288 1.445.33 2.66.04 3.617-.273.9-.89 1.618-2.02 2.303h-5.997c-1.074-.68-1.674-1.39-1.94-2.294M27.01 4.458h-13.8c-1.293 0-2.3-.976-2.3-2.23V0H29.308v2.23c0 1.252-1.006 2.228-2.3 2.228M34.142 60.182H22.41c0 1.244-1.016 2.23-2.3 2.23-1.284 0-2.3-.986-2.3-2.23H6.072L0 34.665c.794.462 1.59.993 2.632.993 1.36 0 2.242-.818 2.924-1.376.682-.557 1.16-.85 1.447-.85.29 0 .768.29 1.45.837.682.548 1.564 1.357 2.916 1.357 1.347 0 2.235-.805 2.918-1.353.683-.55 1.16-.84 1.45-.84.147 0 .34.072.58.214.242.14.53.352.872.626.512.41 1.14.968 1.99 1.22.284.084.592.134.93.134 1.346 0 2.237-.805 2.92-1.354.682-.548 1.158-.84 1.45-.84.287.002.766.296 1.446.85.684.553 1.57 1.366 2.924 1.366 1.357 0 2.24-.817 2.92-1.37.342-.277.63-.49.872-.632.24-.143.43-.214.574-.214.288 0 .762.293 1.443.854.68.56 1.566 1.384 2.927 1.384 1.045 0 1.84-.533 2.632-.997zM23.523 8.916H16.66c-.658 0-1.15-.48-1.15-1.115 0-.634.492-1.113 1.15-1.113h6.9c.654 0 1.15.48 1.15 1.114 0 .637-.496 1.116-1.15 1.116zM20.11 33.4c-.147 0-.34-.074-.58-.213-.157-.094-.37-.26-.57-.41v-3.73h2.3v3.73c-.507.38-.91.623-1.15.623"/></g></symbol>

  <symbol xmlns="http://www.w3.org/2000/svg" viewBox="0 0 53.625599 83.214798" height="83.215" width="53.626" id="mail"><defs><clipPath id="a"><path d="M0 62.41h40.22V0H0z"/></clipPath></defs><g clip-path="url(#a)" transform="matrix(1.33333 0 0 -1.33333 0 83.215)"><path d="M15.178 24.453c-.286-.966-.245-2.19.027-3.64.494-2.633 1.686-6.04 2.358-9.67h5.062c.697 3.642 1.95 7.05 2.47 9.684.288 1.445.33 2.66.04 3.617-.273.9-.89 1.618-2.02 2.303h-5.997c-1.074-.68-1.674-1.39-1.94-2.294M27.01 4.458h-13.8c-1.293 0-2.3-.976-2.3-2.23V0H29.308v2.23c0 1.252-1.006 2.228-2.3 2.228M34.142 60.182H22.41c0 1.244-1.016 2.23-2.3 2.23-1.284 0-2.3-.986-2.3-2.23H6.072L0 34.665c.794.462 1.59.993 2.632.993 1.36 0 2.242-.818 2.924-1.376.682-.557 1.16-.85 1.447-.85.29 0 .768.29 1.45.837.682.548 1.564 1.357 2.916 1.357 1.347 0 2.235-.805 2.918-1.353.683-.55 1.16-.84 1.45-.84.147 0 .34.072.58.214.242.14.53.352.872.626.512.41 1.14.968 1.99 1.22.284.084.592.134.93.134 1.346 0 2.237-.805 2.92-1.354.682-.548 1.158-.84 1.45-.84.287.002.766.296 1.446.85.684.553 1.57 1.366 2.924 1.366 1.357 0 2.24-.817 2.92-1.37.342-.277.63-.49.872-.632.24-.143.43-.214.574-.214.288 0 .762.293 1.443.854.68.56 1.566 1.384 2.927 1.384 1.045 0 1.84-.533 2.632-.997zM23.523 8.916H16.66c-.658 0-1.15-.48-1.15-1.115 0-.634.492-1.113 1.15-1.113h6.9c.654 0 1.15.48 1.15 1.114 0 .637-.496 1.116-1.15 1.116zM20.11 33.4c-.147 0-.34-.074-.58-.213-.157-.094-.37-.26-.57-.41v-3.73h2.3v3.73c-.507.38-.91.623-1.15.623"/></g></symbol>

  <symbol xmlns="http://www.w3.org/2000/svg" viewBox="0 0 33.104801 32.443333" height="32.443" width="33.105" id="phone"><defs><clipPath id="a"><path d="M0 24.333h24.83V0H0z"/></clipPath></defs><g clip-path="url(#a)" transform="matrix(1.33333 0 0 -1.33333 0 32.443)"><path d="M17.32 0h-1.114C11.302.58 7.71 2.857 5.096 5.772 2.472 8.695.4 12.458 0 17.516v1.358c.09.92.544 1.55 1.067 2.085.65.665 1.63 1.52 2.522 1.553.658.022 1.78-.45 2.23-1.066.39-.53.596-1.59.776-2.38.185-.796.6-1.948.485-2.715-.175-1.196-1.763-1.704-2.23-2.572 1.55-3.72 4.09-6.456 7.472-8.345.847.464 1.595 1.864 2.767 1.89.426.013.97-.208 1.405-.34.476-.14.89-.325 1.31-.483.705-.266 1.957-.62 2.378-1.213.433-.61.68-1.61.58-2.232C20.572 1.824 18.54.455 17.322 0M12.53 22.805c5.948 0 10.77-4.822 10.77-10.77h1.53c0 6.79-5.507 12.298-12.3 12.298z"/><path d="M12.53 15.005v-1.552c.784 0 1.42-.636 1.42-1.42h1.553c0 1.642-1.33 2.972-2.974 2.972M12.53 18.086c3.344 0 6.055-2.71 6.055-6.054h1.588c0 4.22-3.422 7.64-7.644 7.64z"/></g></symbol>

  <symbol xmlns="http://www.w3.org/2000/svg" viewBox="0 0 23.466133 23.4648" height="23.465" width="23.466" id="search"><defs><clipPath id="a"><path d="M0 17.6h17.6V0H0z"/></clipPath></defs><g clip-path="url(#a)" transform="matrix(1.33333 0 0 -1.33333 0 23.465)"><path d="M2.198 9.9c0 3.038 2.462 5.5 5.5 5.5s5.5-2.462 5.5-5.5-2.462-5.5-5.5-5.5-5.5 2.46-5.5 5.5m15.07-8.03l-3.414 3.414C14.82 6.574 15.4 8.164 15.4 9.9c0 4.253-3.448 7.698-7.7 7.698-4.254 0-7.7-3.445-7.7-7.698s3.445-7.7 7.698-7.7c1.734 0 3.326.58 4.613 1.546L15.73.33c.203-.202.418-.33.772-.33.606 0 1.1.492 1.1 1.1 0 .24-.062.498-.33.77" fill="#231f20"/></g></symbol>

  <symbol xmlns="http://www.w3.org/2000/svg" viewBox="0 0 79.998665 79.492798" height="79.493" width="79.999" id="toy"><defs><clipPath id="a"><path d="M0 59.62h60V0H0z"/></clipPath></defs><g clip-path="url(#a)" transform="matrix(1.33333 0 0 -1.33333 0 79.493)"><path d="M29.916 53.047c4.27 0 7.723 1.47 7.723 3.286-.002 1.814-3.455 3.286-7.724 3.286-4.27 0-7.73-1.473-7.73-3.287 0-1.816 3.46-3.286 7.73-3.286m2.64-29.904V0L60 15.938l-.002 23.144zm5.147 13.873c0-1.817-3.46-3.287-7.728-3.287s-7.73 1.47-7.73 3.286l.002 4.06h.024c.26-1.716 3.604-3.077 7.706-3.077 4.1 0 7.443 1.36 7.705 3.075h.023zm13.642 10.166V44.73c0-1.818-3.457-3.29-7.73-3.29-4.266 0-7.727 1.472-7.727 3.29v4.058h.025c.26-1.715 3.603-3.073 7.702-3.073 4.272 0 7.73 1.474 7.73 3.285 0 1.82-3.458 3.288-7.73 3.288-.34 0-.675-.01-1.002-.03l-4.975 2.89V52.06c0-1.816-3.454-3.29-7.723-3.29-2.682 0-5.044.584-6.432 1.468-.196.204-.44.4-.733.586-.362.382-.564.797-.564 1.237v2.987l-4.808-2.792c-.346.017-.696.033-1.053.033-4.267 0-7.727-1.47-7.727-3.288 0-1.81 3.46-3.285 7.727-3.285 4.1 0 7.445 1.358 7.704 3.073h.02v-4.06c0-1.816-3.454-3.288-7.725-3.288-4.267 0-7.727 1.472-7.727 3.29v2.42l-5.952-3.452 27.53-15.986L57.53 43.594zM0 15.938L27.44.005V23.35L0 39.29z"/></g></symbol>

  <symbol xmlns="http://www.w3.org/2000/svg" viewBox="0 0 31.325466 26.890667" height="26.891" width="31.325" id="tw"><defs><clipPath id="a"><path d="M0 20.168h23.494V0H0z"/></clipPath></defs><g clip-path="url(#a)" transform="matrix(1.33333 0 0 -1.33333 0 26.89)"><path d="M14.857 14.602c.163-.135.284-.31.52-.37.1-.222.313-.328.592-.37.046.15.345.048.37.22.173.024.165.23.295.298-.017.55-.13 1.006-.37 1.333-.758.424-1.676-.038-1.408-1.11m5.483 3.037c-.13-.34-.23-.707-.592-.815-.017.105-.122.125-.148.222-.012.21.21.185.296.296.163.085.245.248.444.297-.006.09.11.046 0 0m-.295-5.632c-.154-.858-.616-1.41-1.04-2 .06-.38-.102-.538-.072-.888-.158-.313-.287-.653-.37-1.038-.204-.267-.333-.607-.52-.89-.366-.548-.777-1.05-1.185-1.557-.378-.558-.912-.965-1.334-1.48-.42-.494-.942-.886-1.407-1.335-.474-.17-.89-.397-1.26-.667-.232-.09-.463-.18-.667-.296-.177-.146-.5-.145-.668-.297-1.086-.147-2.3-.17-3.555-.148-1.03.105-2.115.16-3.04.37-.922.19-1.51.713-2.296 1.038.154.242.635.154.964.22.03.167.394.004.444.15.257-.06.285.11.52.074.563.2 1.23.302 1.704.593.282.138.406.433.667.593.032.19.102.34.22.444.048.275.202.44.15.815.11.21.298.342.295.666-.074.148-.128.317-.296.372-.027.196-.38.067-.445.22-.255-.03-.416.03-.593.076-.154.043-.487-.09-.52.074-.84.023-1.3.43-1.852.74.43.262 1.032.352 1.334.742.516.076 1.057.13 1.112.666 0 .717-.77.66-1.333.815-.774.662-1.195 1.673-1.78 2.52.24.158.565.227.74.445.456-.057.54.25.668.52.02.488-.33.605-.59.815-.26.21-.476.462-.668.74-.003.82-.022 1.652.074 2.372.063.014.07-.03.074-.074.226-.44.56-.775.815-1.186.532-.357.925-.853 1.556-1.11.453-.414 1.11-.623 1.558-1.04.6-.262 1.158-.57 1.704-.888.67-.195 1.056-.673 2-.593.2.1.394.2.594.298.257.456-.06 1.08.147 1.63.255.66.797 1.03 1.26 1.482.29.155.555.335.815.52.347.096.675.215.964.37.376.018.713.077 1.037.147h1.26c.243-.052.474-.12.74-.148.208-.138.38-.314.665-.37.79-.695 1.27-1.697 1.41-3.04-.124-.485.05-.874 0-1.482m3.408 4.075c-.227.367-.91.278-1.408.372h-1.112c.142.352.343.646.52.963.055.438.254.734.222 1.26.13.166.176.416.296.592.105.145.243.478.075.667-.05.22-.294.248-.592.222-.088-.037-.17-.08-.222-.15-.447-.432-.777-1.012-1.26-1.407-.01-.008-.06 0-.074 0-.087-.004-.033-.046-.075-.074-.146-.098-.256-.153-.368-.223-.284-.177-.547-.445-.89-.52-.53.212-1.157.327-1.852.37-1.158-.1-2.303-.214-3.04-.74-.91-.35-1.475-1.042-2.148-1.63-.05-.32-.342-.398-.37-.74-.005-.046-.012-.09-.073-.075.042-.24-.052-.345-.076-.518 0-.133.2-.432 0-.52-.822.12-1.485.63-2.15.964-.717.36-1.467.603-2.073 1.11-.715.323-1.26.817-1.777 1.335-.21.31-.542.495-.668.89-.38.164-.175.912-.74.89-.316.042-.345-.2-.445-.372-.07-.225-.36-.23-.37-.517-.005-.046-.012-.09-.075-.075-.17-1.09-.528-1.992-.52-3.26.13-.415.35-.738.594-1.038-.42-.05-.717-.222-.89-.52-.06-1.072.377-1.646.74-2.296.135-.383.352-.684.594-.963.017-.228.206-.287.296-.444.018-.105.122-.125.15-.222-.042-.106.287-.18.072-.22-.413-.132-1.016-.07-1.26-.372-.11-.28-.11-.833 0-1.112.034-.237.283-.26.297-.518.498-.417 1.08-.747 1.63-1.112.574-.166 1.21-.27 1.852-.37-.102-.343-.338-.55-.593-.742-.78-.38-1.85-.473-2.743-.74-.555-.038-.956-.23-1.556-.223C1.04 3.878.52 3.93.26 3.783c-.122-.07-.102-.096-.223-.22-.134-.413.11-.74.444-.89-.004-.254.22-.277.372-.372.09-.18.254-.29.445-.37.544-.467 1.268-.758 1.927-1.11.83-.184 1.648-.377 2.52-.52.895-.116 1.9-.124 2.815-.22h.962c.51-.133 1.23-.055 1.853-.076.094.102.322.074.518.075.523.267 1.196.383 1.63.74.575.24.99.64 1.558.888.867.765 1.937 1.325 2.52 2.373.204.19.35.44.445.74.264.157.384.455.592.668.405.41.706.924 1.037 1.408.32.496.577 1.054.89 1.556-.01.405.306.484.296.89.193.225.177.66.37.888-.032.255.03.415.075.594.047 1.28-.047 2.422-.297 3.407.588.156 1.18.303 1.63.594.527.185 1 .582.815 1.26" fill="#231f20"/></g></symbol>

  <symbol xmlns="http://www.w3.org/2000/svg" viewBox="0 0 62.239601 108.92187" height="108.922" width="62.24" id="flag"><path d="M0 108.922h5.072V.002H0zm10.373-51.868L62.24 31.12 10.372 5.186z" fill="#63d1bb"/><path d="M0 108.922h5.072V.002H0z" fill="#231f20"/></symbol>
</svg>
