<svg style="display: none;">
  <symbol xmlns="http://www.w3.org/2000/svg" viewBox="0 0 27.0592 25.132133" id="cart"><defs><clipPath id="a"><path d="M0 18.85h20.294V0H0z"/></clipPath></defs><g clip-path="url(#a)" transform="matrix(1.33333 0 0 -1.33333 0 25.132)"><path d="M17.017 7.284H3.277l-.81 2.836h15.36zM15.364 1.5H4.93L3.708 5.784h12.88zm4.18 10.12h-3.15l-3.407 6.814c-.185.37-.635.52-1.007.336-.37-.186-.52-.636-.335-1.007l3.07-6.143H5.58l3.07 6.143c.185.37.035.82-.335 1.007-.37.184-.82.035-1.006-.336L3.9 11.62H.75c-.414 0-.75-.336-.75-.75s.336-.75.75-.75h.158l.855-2.99c-.187-.138-.316-.347-.316-.596 0-.396.31-.71.696-.74L3.8 0h12.696l1.656 5.795c.388.028.698.343.698.74 0 .248-.13.458-.317.595l.855 2.99h.157c.414 0 .75.336.75.75s-.336.75-.75.75"/></g></symbol>

  <symbol xmlns="http://www.w3.org/2000/svg" viewBox="0 0 19.9492 36.957733" id="fb"><defs><clipPath id="a"><path d="M0 27.718h14.962V0H0z"/></clipPath></defs><g clip-path="url(#a)" transform="matrix(1.33333 0 0 -1.33333 0 36.958)"><path d="M7.845 17.743c.117-.254.254-.486.414-.698.078-.022.202-.003.204-.1 1.193-.056 2.2.07 3.096.3 0-1-.27-1.734-.518-2.493-.662-.045-1.467-.3-1.958-.198-.276-.165-.372-.506-.62-.698-.05-.442.142-.495 0-.797-.2-.138-.055-.612-.205-.797v-1.496c.084-.28-.146-.258-.104-.497V6.782c-.085-.282.146-.258.103-.498v-2.99c.063-.27-.133-.79.102-.896-.07-.364-.413.02-.825-.1-.528-.122-.925-.37-1.547-.4.117.352.32.622.31 1.096.05.38-.365.312-.516.5.194.642.563 1.116.722 1.79.197.516.714 1.3.31 1.795-.523.105-.522-.294-.826-.4-.023-.076-.002-.195-.103-.198-.023-.077-.003-.197-.103-.2.01-.12-.15-.06 0 0 .023.08.002.198.103.2.023.077.002.197.103.2v.298c.368.575.67 1.214.826 1.993.19.28.283.656.412.997.156.262.34.87.104 1.195-.516-.033-.796-.295-.93-.697-.32.19.162.434.105.697.138.232.17.567.31.797.2.413.563 1.304 0 1.596-.44.023-.614-.207-.724-.498-.214-.192-.43-.383-.516-.698-.373.07-.142.726-.206 1.096-.066.52.123.9 0 1.196-.558.798-2.025.105-3.196.298-.108.307-.222.985-.103 1.196 1.046.088 2.48-.2 3.198.2.024.077.003.196.103.198.095.723-.27 1-.513 1.396.232.805.04 2.02.103 2.99.234.14.328.413.515.597.112.954.673 1.474.722 2.49-.274 0-.608.056-.62-.198-.3.114-.38-.48-.514-.2-.113.54.246.626.308.997.6.417 1.213.82 1.858 1.195 1.74.244 4.648.45 6.086-.198.05-.617-.287-.854-.207-1.497H11.56c-1.09-.24-1.986-.67-2.99-.997-.24-.066-.277-.33-.516-.398-.036-.397-.225-.647-.31-.996-.08-1.44.13-2.597.1-3.987m3.818 4.783c1.027-.03 1.994 0 2.68.3.392.817.557 1.854.62 2.99-.19.013-.062.336-.207.398-.03.202-.278.195-.308.398-.278.165-.457.422-.723.598-.727.16-1.44.335-2.164.498-.85-.044-1.895.103-2.58-.1-2.62.04-3.997-1.12-5.26-2.39-.022-.08-.003-.198-.104-.2-.575-1.587-.125-3.62-.205-5.58.1-.437.11-.96.206-1.396-1-.296-2.212-.386-3.403-.5-.317-.322-.178-1.088-.206-1.692.085-.583.278-1.06.413-1.595.21-.193.596-.396.825-.498.065-.03.072-.082.103-.1.506-.267 1.45-.007 2.268-.1-.137-1.977.255-3.914 0-5.68.006-.326.294-.38.207-.797 0-.962-.067-1.99.208-2.69-.287-.455-.496-.982-.414-1.794.122-.016.113-.157.104-.3-.074-.47.644-.174.516-.697.162-.457-.428-.185-.413-.5V.205c.53-.285 1.462-.18 2.268-.2.91.42 2.19.48 2.786 1.197.46-.234.916.015 1.24.2-.02.316.272.334.204.7-.004.327-.173.495-.103.895v2.89c-.206 2.292-.048 4.938-.31 7.175.89.105 1.918.075 2.58.398.357.452.377 1.23.515 1.895.177.225.22.583.206.996.19.212.07.728.104 1.095-.14.595-.168 1.3-.825 1.395-.884.235-2.043-.596-2.992-.3.05 1.135-.293 2.343 0 3.39.747.175 1.448.394 2.167.596"/></g></symbol>

  <symbol xmlns="http://www.w3.org/2000/svg" viewBox="0 0 205.84534 260.43332" id="htmlacademy"><defs><clipPath id="a"><path d="M0 195.325h154.384V0H0z"/></clipPath></defs><path d="M191.803 93.807l-89.36-52.677v-.014l-.01.007-.012-.007v.014L14.044 93.746V23.438l88.88-9.32 88.88 9.32zm-.072 9.323l-24.314 14.325-11.225 6.613-53.53-31.845-.09 9.268 45.757 27.21-.406.24-.984.58-6.5 3.83-37.777-22.472-.09 9.268 29.817 17.73-7.035 4.706-.17.102-22.523-13.268-.09 9.267 14.78 8.704-15.055 9.04-88.06-52.347 88.186-53.006v.01zm.073 88.078l-88.88 52.884-88.88-52.884v-76.82l88.498 52.674.15 9.546-60.713-36.133-.09 9.268 60.954 36.633.152 9.8-60.933-36.248-.09 9.267 60.953 36.633 61.536-36.82v-9.31l-.077.045V129.47l27.42-16.375zM103.996.782L102.92.67.667 11.39v187.424l102.256 60.844 102.256-60.844V11.39z"/><g clip-path="url(#a)" transform="matrix(1.33333 0 0 -1.33333 0 260.433)"><path d="M143.852 124.97l-67.02 39.508v.01l-.008-.005-.008.005v-.01l-66.284-39.462v52.73l66.66 6.99 66.66-6.99zm-.054-6.992l-18.236-10.744-8.42-4.96-40.148 23.884-.066-6.95L111.245 98.8l-.304-.18-.738-.435-4.876-2.872-28.332 16.854-.066-6.95 22.362-13.3-5.276-3.528-.128-.078-16.892 9.95-.066-6.95 11.084-6.527-11.29-6.78-66.045 39.26 66.14 39.755v-.007zm.054-66.06l-66.66-39.662-66.66 39.663v57.614L76.906 70.03l.11-7.16-45.533 27.1-.067-6.952L77.13 55.543l.114-7.35-45.7 27.186-.066-6.95 45.714-27.476 46.152 27.616v6.982l-.057-.034v22.705l20.565 12.28zM77.997 194.74l-.807.085-76.69-8.04V46.215L77.192.582l76.692 45.633v140.568z" fill="none" stroke="#231f20" stroke-miterlimit="10"/></g></symbol>

  <symbol xmlns="http://www.w3.org/2000/svg" viewBox="0 0 66.666664 34.6712" id="huge-arrow-left"><path d="M17.34 0L0 17.332l.004.002L0 17.34l17.34 17.332 3.77-3.77L10.216 20h56.452V14.67H10.212l10.9-10.898z"/></symbol>

  <symbol xmlns="http://www.w3.org/2000/svg" viewBox="0 0 66.666664 34.6712" id="huge-arrow-right"><path d="M49.327 0l-3.772 3.772 10.9 10.898H0v5.332h56.45l-10.895 10.9 3.772 3.77 17.34-17.332-.005-.006.005-.002z"/></symbol>

  <symbol xmlns="http://www.w3.org/2000/svg" viewBox="0 0 42.629601 49.734402" id="icon-1"><defs><clipPath id="a"><path d="M0 37.3h31.972V0H0z"/></clipPath></defs><g clip-path="url(#a)" transform="matrix(1.33333 0 0 -1.33333 0 49.734)"><path d="M0 15.986C0 7.16 7.158 0 15.986 0c0 8.828-7.158 15.986-15.986 15.986m15.986 13.32c2.45 0 4.44-1.988 4.44-4.44 0-2.45-1.99-4.44-4.44-4.44s-4.44 1.99-4.44 4.44c0 2.452 1.99 4.44 4.44 4.44M4.626 20.87c0-2.45 1.99-4.44 4.44-4.44.934 0 1.805.293 2.515.782l-.035-.337c0-2.452 1.99-4.442 4.44-4.442 2.452 0 4.44 1.99 4.44 4.442l-.035.337c.72-.497 1.582-.783 2.514-.783 2.45 0 4.44 1.99 4.44 4.44 0 1.768-1.038 3.286-2.54 3.997 1.492.71 2.54 2.23 2.54 3.996 0 2.45-1.99 4.44-4.44 4.44-.932 0-1.803-.292-2.514-.78l.036.337c0 2.45-1.99 4.44-4.44 4.44s-4.44-1.99-4.44-4.44l.035-.337c-.72.497-1.58.78-2.513.78-2.45 0-4.44-1.99-4.44-4.44 0-1.767 1.04-3.286 2.54-3.996-1.5-.71-2.54-2.23-2.54-3.997M15.987 0C24.812 0 31.97 7.16 31.97 15.986c-8.828 0-15.986-7.158-15.986-15.986"/></g></symbol>

  <symbol xmlns="http://www.w3.org/2000/svg" viewBox="0 0 45.830666 45.830132" id="icon-2"><defs><clipPath id="a"><path d="M0 34.373h34.373V0H0z"/></clipPath></defs><g clip-path="url(#a)" transform="matrix(1.33333 0 0 -1.33333 0 45.83)"><path d="M.286 20.304c-.382-2.073-.384-4.21.008-6.3l4.12 3.21zM24.403 32.787C19.62 34.995 13.96 34.93 9.15 32.38l7.512-5.625zM33.9 21.198l-4.81-3.748 4.936-3.695c.496 2.444.463 4.987-.125 7.443M9.21 1.96c4.843-2.535 10.723-2.65 15.73-.114l-8.097 6.06zM7.914 19.94L1.68 24.605c-.32-.67-.594-1.356-.824-2.057l5.308-3.974zM18.593 9.27l8.336-6.24c.276.19.55.39.82.6.318.247.624.504.92.77l-8.327 6.234zM11.413 22.666l-7.41 5.55c-.464-.553-.886-1.13-1.27-1.725l6.93-5.187zM22.093 11.997l8.092-6.06c.47.545.904 1.114 1.297 1.703l-7.64 5.72zM14.913 25.392L7.197 31.17c-.193-.138-.385-.28-.574-.427-.396-.31-.773-.632-1.135-.967l7.675-5.747zM25.592 14.724l6.972-5.22c.33.66.615 1.34.855 2.032l-6.078 4.55zM26.448 31.667L.88 11.747c.233-.7.512-1.387.84-2.06L28.24 30.35c-.573.482-1.172.92-1.792 1.317M30.743 27.75c-.3.385-.614.753-.94 1.105L2.787 7.805c.262-.402.542-.796.843-1.182.14-.183.286-.36.434-.534l27.09 21.106c-.133.186-.268.37-.41.553M32.298 25.374L5.552 4.534c.544-.5 1.114-.962 1.707-1.382L33.22 23.38c-.263.678-.57 1.344-.924 1.994"/></g></symbol>

  <symbol xmlns="http://www.w3.org/2000/svg" viewBox="0 0 62.100266 36.442001" id="icon-3"><defs><clipPath id="a"><path d="M0 27.332h46.575V0H0z"/></clipPath></defs><g clip-path="url(#a)" transform="matrix(1.33333 0 0 -1.33333 0 36.442)"><path d="M3.023 24.615h40.202V2.382H3.023zm39.647 2.717H3.904C1.748 27.332 0 25.582 0 23.427V3.905C0 1.75 1.748 0 3.904 0H42.67c2.156 0 3.905 1.75 3.905 3.905v19.522c0 2.156-1.75 3.905-3.905 3.905"/><path d="M23.288 18.813c2.936 0 5.315-2.38 5.315-5.314 0-2.938-2.38-5.317-5.315-5.317-2.936 0-5.314 2.38-5.314 5.315 0 2.935 2.378 5.315 5.314 5.315M6.928 6.287h32.395V20.71H6.928z"/></g></symbol>

  <symbol xmlns="http://www.w3.org/2000/svg" viewBox="0 0 72.208397 30.910801" id="icon-4"><defs><clipPath id="a"><path d="M0 23.183h54.156V0H0z"/></clipPath></defs><g clip-path="url(#a)" transform="matrix(1.33333 0 0 -1.33333 0 30.91)"><path d="M40.312 17.472c-3.647.97-7.84 1.667-12.36 1.666-2.89 0-5.457-.243-7.71-.623l-6.785 4.668-13.456-.005 5.813-6.184h8.447C9.68 15.396 7.5 13.48 7.5 13.48L7.502 9.7s2.314-1.912 6.93-3.517L5.81 6.19 0 .002 13.454 0l6.816 4.693c2.263-.4 4.824-.648 7.683-.65 4.522.002 8.712.7 12.36 1.668-1.177 1.777-1.916 3.744-1.92 5.878.005 2.14.74 4.11 1.92 5.884M43.734 16.438c-1.284-1.605-1.97-3.25-1.965-4.84-.008-1.598.676-3.24 1.967-4.848 6.4 2.163 10.42 4.841 10.42 4.841 0 .002-4.02 2.68-10.423 4.848"/></g></symbol>

  <symbol xmlns="http://www.w3.org/2000/svg" viewBox="0 0 44.067066 37.1432" id="icon-5"><defs><clipPath id="a"><path d="M0 27.857h33.05V0H0z"/></clipPath></defs><g clip-path="url(#a)" transform="matrix(1.33333 0 0 -1.33333 0 37.143)"><path d="M33.05 19.12c0 4.826-3.912 8.737-8.736 8.737-3.406 0-6.348-1.95-7.79-4.793-1.44 2.842-4.383 4.793-7.788 4.793C3.91 27.857 0 23.947 0 19.12 0 9.995 14.656 0 16.525 0c1.87 0 16.525 9.95 16.525 19.12"/></g></symbol>

  <symbol xmlns="http://www.w3.org/2000/svg" viewBox="0 0 43.554668 43.315067" id="icon-6"><defs><clipPath id="a"><path d="M0 32.486h32.666V0H0z"/></clipPath></defs><g clip-path="url(#a)" transform="matrix(1.33333 0 0 -1.33333 0 43.315)"><path d="M17.27 0h12.507v13.91H17.27zm1.982 27.586c.557.797 1.21 1.466 1.887 1.916.678.45 1.36.683 2.046.683h.005c.576 0 1.12-.22 1.496-.55.377-.336.57-.74.573-1.17-.005-.513-.274-1.26-1.468-2.133-1.138-.825-3.1-1.673-6.127-2.265.29 1.202.847 2.472 1.587 3.52M8.715 25.958c-.622.39-1 .784-1.22 1.134-.22.353-.294.662-.296.963-.005.504.247 1.042.69 1.46.437.416 1.03.668 1.563.668h.013c.684 0 1.366-.232 2.046-.683 1.017-.67 1.974-1.85 2.644-3.187.342-.675.61-1.39.79-2.086-3.083.32-5.08 1-6.23 1.73m22.36-2.34h-7.334c.522.267.985.55 1.397.845 1.587 1.133 2.423 2.57 2.42 4 0 1.168-.557 2.2-1.36 2.9-.805.704-1.87 1.12-3.016 1.12-1.22.002-2.352-.42-3.32-1.068-1.46-.98-2.607-2.45-3.425-4.067-.04-.08-.08-.158-.116-.237-.3.623-.647 1.226-1.04 1.792-.692.986-1.524 1.86-2.498 2.51-.97.648-2.102 1.07-3.322 1.07-1.213-.004-2.323-.513-3.155-1.295-.83-.783-1.412-1.884-1.414-3.134 0-.73.21-1.494.65-2.188.552-.872 1.424-1.628 2.633-2.248H1.59c-.877 0-1.59-.712-1.59-1.59v-5.897h15.396v7.488h1.874v-7.487h15.396v5.897c.002.88-.71 1.59-1.59 1.59M2.897 0h12.503v13.91H2.894z"/></g></symbol>

  <symbol xmlns="http://www.w3.org/2000/svg" viewBox="0 0 29.024799 28.445333" id="insta"><defs><clipPath id="a"><path d="M0 21.334h21.77V0H0z"/></clipPath></defs><g clip-path="url(#a)" transform="matrix(1.33333 0 0 -1.33333 0 28.445)"><path d="M13.188 13.667c.21-.12.44-.217.605-.38.086-.22.245-.364.38-.53.06-.778.18-1.492.153-2.354-.258-.098-.44-.27-.684-.38-.78.005-1.357.21-1.896.456-.172.257-.357.503-.534.757V12.3c.17.184.32.39.457.607.226.127.506.2.453.608-.038.06-.078.124-.075.228.158-.045.244-.16.378-.228.323-.02.41.2.76.152m1.14-3.796c-.235.058-.146-.207-.38-.15.07.158.12.337.23.454.132-.02.17-.13.15-.303m-2.202-2.58c.034.11.066-.008.152 0-.02-.097-.15-.076-.152 0m-.76 2.885c-.04.038.055.096.077.076.04-.038-.053-.097-.074-.075m-.38 3.947c-.204-.258.04-.576.076-.836-.305.04-.573.888-.077.836m-1.67-2.125c.015.086.075.042.075 0-.014-.087-.075-.043-.075 0m-.456-2.05c.04.116.078.005.075-.076-.04-.116-.08-.004-.076.076m-.076.305c-.114.064-.11.245-.153.38.257.078.12-.236.154-.38M12.2 14.58c-.223.232-.676.234-.987.38-.697.037-1.222-.094-1.746-.23-.304-.15-.608-.303-.91-.453-.266-.166-.445-.418-.76-.532-.205-.224-.35-.51-.683-.607-.004-.223-.173-.282-.304-.38-.09-.114-.094-.31-.227-.38-.008-.12.035-.29-.077-.303.11-1.51.29-2.948.683-4.177.286-.623.975-.845 1.44-1.29.59-.296 1.33-.444 2.127-.53.278.05.553.105.91.075 1.21.21 2.1.738 2.81 1.443.1.28.253.508.456.683-.254.67.293 1.098.455 1.596.002 1.344-.2 2.48-.607 3.415-.254.58-.918.752-1.365 1.14-.058.016-.15.002-.15.075-.27.13-.734.233-1.066.076m1.14 1.82c-.112-.045.005-.09-.002 0m-2.808.61c.02-.022.114.036.075.076-.02.02-.115-.037-.076-.077m.532.38c-.316.073-.016-.228 0 0m2.276-.988c.534.048.75.415 1.215.53.284.3.784.382.988.76-.56-.023-.765-.4-1.215-.53-.284-.297-.75-.414-.987-.76m-2.276.987c.346.134.613.347.834.607-.348-.134-.614-.348-.834-.607m.834.607c.064-.014.072.03.077.076-.066.014-.072-.03-.077-.076m.077.076c.064-.014.07.03.075.076-.064.014-.072-.03-.075-.076m.075.076c.11.046-.007.092 0 0m.683.608c-.11-.047.008-.092 0 0m.685-.836c.726.158 1.18.59 1.746.91-.436-.017-.59-.32-.987-.378-.215-.216-.6-.26-.758-.532m1.746.91c.11.048-.007.093 0 0m-1.062.608c-.53-.154-1.018-.348-1.367-.682.485.198 1.06.306 1.368.682m0 0c.11.048-.01.092 0 0m5.845-3.72c-.64.12-1.233.285-1.898.38.073.333.8.01.988.227.384.223.295.92.303 1.52.034.346.116.642.078 1.062-.403.95-1.785.42-2.887.455-.225-.717-.47-1.8-.304-2.656.17-.49 1.026-.293 1.52-.456-.14-.332-.69-.058-.988-.076-.296.083-.707.052-.986.15-2.287-.076-4.285-.003-6.53-.15.116 1.247.062 2.465-.077 3.644h3.112c-.344-.364-.912-.506-1.29-.835-.44-.243-.86-.504-1.14-.91.25-.133.536.245.76.38.355.073.48.38.835.454.424.44 1.097.626 1.67.912.38.023.698-.013.988-.076 1.282-.008 2.455-.127 3.795-.076.614-.145 1.45-.07 1.974-.304.107-.297.23-.58.304-.91.01-.997-.146-1.827-.226-2.733m-.38-11.16c-.11-.954-.158-1.968-.38-2.81-2.89-.122-6.018-.004-8.882-.152-.2-.045-.273.03-.228.228-.253 0-.258-.247-.532-.228.202.336.438.898.152 1.29-.797-.012-.797-.82-1.138-1.29-.685.052-1.137-.127-1.823-.075.18.705.75 1.02.91 1.745-.394.55-.988-.138-1.213-.455-.203-.48-.556-.81-.76-1.29h-.986c.238.468.49.925.76 1.366.17.51.624.74.68 1.367-.156.28-.418.03-.68 0-.124-.182-.274-.335-.38-.53-.233-.377-.502-.715-.685-1.14-.18-.21-.336-.004-.53-.228-.39-.27-.58-.736-.99-.987-.173.06.04.357.154.38.046.18-.096.55.075.607.063.367.21.648.378.91.12.743.522 1.2.684 1.9-.56-.1-.674-.644-.987-.988-.213-.446-.542-.773-.683-1.29-.174.13-.028.58-.076.835.122.586.298 1.12.38 1.746.132.22.172.535.228.834.168.21.046.61-.077.76-.226-.027-.374-.132-.455-.303-.192.03-.193-.507-.304-.305-.045 2.587-.45 4.813-.456 7.44.027.33-.182.423-.227.683 1.63-.028 3.12-.09 4.783-.228-.09-.14-.2-.257-.304-.38-.144-.07-.226-.172-.38-.303-.603-1.653-.974-3.984-.606-6.15.228-.58.59-1.03.986-1.442.907-.485 1.635-1.15 2.506-1.67 1.7-.362 3.84-.37 5.54 0 .238.12.486.225.687.38 1.363 1.24 2.75 2.458 2.96 4.86v1.366c-.198 1.598-.69 2.906-1.748 3.644.33.22 1.098-.043 1.67-.076.223-.013.448-.014.684 0 .408.024.928.055 1.443 0 .144-.186.114-.544.228-.76-.062-1.683-.193-3.3-.153-5.087.103-.453.127-.985.23-1.44-.09-.975-.236-1.892-.457-2.733M1.345 15.64v1.594c.195.185.395.365.607.533.295-.49.178-1.392.455-1.898-.276-.157-.75-.11-1.063-.23m-.076 3.265c.226.205.45.41.684.608-.022.122.07.13.076.227h.228c.102-.38-.26-.296-.304-.53.02-.123-.073-.132-.076-.228.02-.336.122-.588.076-.988-.27-.008-.276-.28-.608-.227.024.428-.134.674-.076 1.138m.456.76c-.034-.22-.326-.18-.38-.38-.214.17.084.468.38.38m.986.075c.03-.26-.438-.32-.378 0zm.684-3.72c.148.03.11-.345-.076-.228.04.062.08.124.076.228m.228 3.72c.033-.158-.052-.2-.076-.304-.175-.023-.084.22-.228.23.024.102.19.062.304.074m0-1.138c-.263-.054-.273.266-.153.38.262.053.27-.267.152-.38m-.228-2.05c.077.31.034.303.075.682.228-.012.26-.77-.076-.682m.152.987c-.204-.022-.216.533-.077.606.327-.006.248-.5.076-.607m.532 0c.006.107.012.213-.077.227-.07.733.13 1.415 0 1.973.25.155.77.042 1.14.077v-1.14c-.088-.063-.203-.1-.38-.075-.053-.28.325-.132.38-.304.008-.853-.056-1.777.152-2.43-.565.06-.906-.106-1.442-.075.097.612-.018 1.435.53 1.594-.01.14-.256.047-.302.152m2.353-1.217c.176.025.085-.218.23-.227-.01-.193-.285-.18-.38-.076.038.112.112.192.15.303m.153.23c-.058-.14-.082.044-.076.15.058.14.08-.045.076-.15m0 1.365c-.132.07-.168.237-.152.456.133-.07.17-.238.153-.456M6.43 19.74c.09.013.135-.016.153-.076.18-.253.01-.683-.076-.91-.174.178-.027.68-.076.986m.684-1.594c-.117.263-.067.692-.075 1.063-.008.283.276.277.302.53-.003.074-.092.06-.152.076.127.146.7.097.835 0 .132-.537-.355-.455-.53-.683.01-.168.32-.032.455-.076.03-.854-.06-1.496 0-2.202h-.456c-.007-.234.228-.226.456-.228-.06-.286.092-.363.075-.607-.226-.153-.716-.043-1.062-.076-.103.594.236 1.375.15 2.202m1.672-2.733c.757.153 1.48.34 2.428.304.71-.075 1.287-.282 1.898-.455.117-.184-.242-.547.154-.684v-.076c.06-.017.15-.002.152-.076.445-.035.793-.167 1.063-.38.45-.054.535-.475 1.137-.38-.09-.212-.084-.523-.075-.834.324-1.183.474-2.81.302-4.252-.164-.163-.215-.442-.302-.683-.31-.322-.482-.785-.836-1.062-.095-.236-.25-.408-.455-.533-.115-.213-.205-.452-.456-.53-.297-.164-.577-.01-.834.076-.446-.162-.904-.312-1.214-.608-.817.096-1.65.175-2.43.304-.242.14-.487.273-.835.305-.226.203-.495.363-.835.454-.1.127-.337.118-.455.228-.198.03-.23.227-.456.23-.118.41-.442.617-.53 1.06-.227.33-.31.805-.456 1.215-.043 1.434.09 2.692.38 3.796.345.59.778 1.094 1.137 1.67.25-.02.365.09.38.304.306-.053.434.072.684.075.254.074.265.39.455.53m12.98-6.224c-.012 2.395-.343 4.79-.302 7.135-.023.788-.086 1.535-.152 2.28-.104.298-.11.698-.15 1.06-.26.17-.223.64-.457.837-.423.233-1.202.113-1.744.227-.66.026-1.255.115-1.9.152-1.936.1-3.974.075-5.997.075-2 0-3.954.145-5.695.38H3.166c-.097-.005-.105-.1-.227-.077-.6-.034-1.078-.188-1.596-.303-.21-.12-.42-.236-.683-.305-.135-.192-.512-.144-.606-.38-.186-.21.185-.45 0-.606v-.91c.174-.13.028-.58.075-.836v-.987c-.017-1.28.133-2.397.076-3.72C.673 10.45.58 6.675.282 3.8c.155-.58.363-1.106.455-1.746.256-.48.335-1.133.683-1.52C1.922.326 2.653.347 3.318.304 3.7.206 3.985.01 4.458 0 7.3.21 9.954.154 12.884.23c2.704-.242 5.802-.19 8.276.226.195.134.128.53.227.76-.055.385.207.45.228.76.133 2.39.165 4.786.15 7.212"/></g></symbol>

  <symbol xmlns="http://www.w3.org/2000/svg" viewBox="0 0 53.625599 83.214798" id="interior"><defs><clipPath id="a"><path d="M0 62.41h40.22V0H0z"/></clipPath></defs><g clip-path="url(#a)" transform="matrix(1.33333 0 0 -1.33333 0 83.215)"><path d="M15.178 24.453c-.286-.966-.245-2.19.027-3.64.494-2.633 1.686-6.04 2.358-9.67h5.062c.697 3.642 1.95 7.05 2.47 9.684.288 1.445.33 2.66.04 3.617-.273.9-.89 1.618-2.02 2.303h-5.997c-1.074-.68-1.674-1.39-1.94-2.294M27.01 4.458h-13.8c-1.293 0-2.3-.976-2.3-2.23V0H29.308v2.23c0 1.252-1.006 2.228-2.3 2.228M34.142 60.182H22.41c0 1.244-1.016 2.23-2.3 2.23-1.284 0-2.3-.986-2.3-2.23H6.072L0 34.665c.794.462 1.59.993 2.632.993 1.36 0 2.242-.818 2.924-1.376.682-.557 1.16-.85 1.447-.85.29 0 .768.29 1.45.837.682.548 1.564 1.357 2.916 1.357 1.347 0 2.235-.805 2.918-1.353.683-.55 1.16-.84 1.45-.84.147 0 .34.072.58.214.242.14.53.352.872.626.512.41 1.14.968 1.99 1.22.284.084.592.134.93.134 1.346 0 2.237-.805 2.92-1.354.682-.548 1.158-.84 1.45-.84.287.002.766.296 1.446.85.684.553 1.57 1.366 2.924 1.366 1.357 0 2.24-.817 2.92-1.37.342-.277.63-.49.872-.632.24-.143.43-.214.574-.214.288 0 .762.293 1.443.854.68.56 1.566 1.384 2.927 1.384 1.045 0 1.84-.533 2.632-.997zM23.523 8.916H16.66c-.658 0-1.15-.48-1.15-1.115 0-.634.492-1.113 1.15-1.113h6.9c.654 0 1.15.48 1.15 1.114 0 .637-.496 1.116-1.15 1.116zM20.11 33.4c-.147 0-.34-.074-.58-.213-.157-.094-.37-.26-.57-.41v-3.73h2.3v3.73c-.507.38-.91.623-1.15.623"/></g></symbol>

  <svg xmlns="http://www.w3.org/2000/svg" viewBox="0 0 42.666668 28" id="mail"><defs><clipPath id="a"><path d="M0 21h32V0H0z"/></clipPath></defs><g clip-path="url(#a)" transform="matrix(1.33333 0 0 -1.33333 0 28)"><path d="M17.2 7.398c-.35-.263-.764-.4-1.2-.4-.436 0-.85.138-1.2.4L10.665 10.5l-.833.625L2 17c0 1.103.897 2 2 2h24c1.1 0 2-.897 2-2zM30 5.25l-7 5.25 7 5.25zM30 4c0-1.104-.9-2-2-2H4c-1.103 0-2 .896-2 2l7.832 5.875L14.2 6.597c.533-.397 1.166-.6 1.8-.6.633 0 1.265.202 1.8.6l4.368 3.278zM2 15.75l7-5.25-7-5.25zM28 21H4c-2.21 0-4-1.792-4-4V4c0-2.21 1.79-4 4-4h24c2.21 0 4 1.79 4 4v13c0 2.208-1.79 4-4 4"/></g></svg>

  <symbol xmlns="http://www.w3.org/2000/svg" viewBox="0 0 33.104801 32.443333" id="phone"><defs><clipPath id="a"><path d="M0 24.333h24.83V0H0z"/></clipPath></defs><g clip-path="url(#a)" transform="matrix(1.33333 0 0 -1.33333 0 32.443)"><path d="M17.32 0h-1.114C11.302.58 7.71 2.857 5.096 5.772 2.472 8.695.4 12.458 0 17.516v1.358c.09.92.544 1.55 1.067 2.085.65.665 1.63 1.52 2.522 1.553.658.022 1.78-.45 2.23-1.066.39-.53.596-1.59.776-2.38.185-.796.6-1.948.485-2.715-.175-1.196-1.763-1.704-2.23-2.572 1.55-3.72 4.09-6.456 7.472-8.345.847.464 1.595 1.864 2.767 1.89.426.013.97-.208 1.405-.34.476-.14.89-.325 1.31-.483.705-.266 1.957-.62 2.378-1.213.433-.61.68-1.61.58-2.232C20.572 1.824 18.54.455 17.322 0M12.53 22.805c5.948 0 10.77-4.822 10.77-10.77h1.53c0 6.79-5.507 12.298-12.3 12.298z"/><path d="M12.53 15.005v-1.552c.784 0 1.42-.636 1.42-1.42h1.553c0 1.642-1.33 2.972-2.974 2.972M12.53 18.086c3.344 0 6.055-2.71 6.055-6.054h1.588c0 4.22-3.422 7.64-7.644 7.64z"/></g></symbol>

  <symbol xmlns="http://www.w3.org/2000/svg" viewBox="0 0 23.466133 23.4648" id="search"><defs><clipPath id="a"><path d="M0 17.6h17.6V0H0z"/></clipPath></defs><g clip-path="url(#a)" transform="matrix(1.33333 0 0 -1.33333 0 23.465)"><path d="M2.198 9.9c0 3.038 2.462 5.5 5.5 5.5s5.5-2.462 5.5-5.5-2.462-5.5-5.5-5.5-5.5 2.46-5.5 5.5m15.07-8.03l-3.414 3.414C14.82 6.574 15.4 8.164 15.4 9.9c0 4.253-3.448 7.698-7.7 7.698-4.254 0-7.7-3.445-7.7-7.698s3.445-7.7 7.698-7.7c1.734 0 3.326.58 4.613 1.546L15.73.33c.203-.202.418-.33.772-.33.606 0 1.1.492 1.1 1.1 0 .24-.062.498-.33.77"/></g></symbol>

  <symbol xmlns="http://www.w3.org/2000/svg" viewBox="0 0 79.998665 79.492798" id="toy"><defs><clipPath id="a"><path d="M0 59.62h60V0H0z"/></clipPath></defs><g clip-path="url(#a)" transform="matrix(1.33333 0 0 -1.33333 0 79.493)"><path d="M29.916 53.047c4.27 0 7.723 1.47 7.723 3.286-.002 1.814-3.455 3.286-7.724 3.286-4.27 0-7.73-1.473-7.73-3.287 0-1.816 3.46-3.286 7.73-3.286m2.64-29.904V0L60 15.938l-.002 23.144zm5.147 13.873c0-1.817-3.46-3.287-7.728-3.287s-7.73 1.47-7.73 3.286l.002 4.06h.024c.26-1.716 3.604-3.077 7.706-3.077 4.1 0 7.443 1.36 7.705 3.075h.023zm13.642 10.166V44.73c0-1.818-3.457-3.29-7.73-3.29-4.266 0-7.727 1.472-7.727 3.29v4.058h.025c.26-1.715 3.603-3.073 7.702-3.073 4.272 0 7.73 1.474 7.73 3.285 0 1.82-3.458 3.288-7.73 3.288-.34 0-.675-.01-1.002-.03l-4.975 2.89V52.06c0-1.816-3.454-3.29-7.723-3.29-2.682 0-5.044.584-6.432 1.468-.196.204-.44.4-.733.586-.362.382-.564.797-.564 1.237v2.987l-4.808-2.792c-.346.017-.696.033-1.053.033-4.267 0-7.727-1.47-7.727-3.288 0-1.81 3.46-3.285 7.727-3.285 4.1 0 7.445 1.358 7.704 3.073h.02v-4.06c0-1.816-3.454-3.288-7.725-3.288-4.267 0-7.727 1.472-7.727 3.29v2.42l-5.952-3.452 27.53-15.986L57.53 43.594zM0 15.938L27.44.005V23.35L0 39.29z"/></g></symbol>

  <symbol xmlns="http://www.w3.org/2000/svg" viewBox="0 0 31.325466 26.890667" id="tw"><defs><clipPath id="a"><path d="M0 20.168h23.494V0H0z"/></clipPath></defs><g clip-path="url(#a)" transform="matrix(1.33333 0 0 -1.33333 0 26.89)"><path d="M14.857 14.602c.163-.135.284-.31.52-.37.1-.222.313-.328.592-.37.046.15.345.048.37.22.173.024.165.23.295.298-.017.55-.13 1.006-.37 1.333-.758.424-1.676-.038-1.408-1.11m5.483 3.037c-.13-.34-.23-.707-.592-.815-.017.105-.122.125-.148.222-.012.21.21.185.296.296.163.085.245.248.444.297-.006.09.11.046 0 0m-.295-5.632c-.154-.858-.616-1.41-1.04-2 .06-.38-.102-.538-.072-.888-.158-.313-.287-.653-.37-1.038-.204-.267-.333-.607-.52-.89-.366-.548-.777-1.05-1.185-1.557-.378-.558-.912-.965-1.334-1.48-.42-.494-.942-.886-1.407-1.335-.474-.17-.89-.397-1.26-.667-.232-.09-.463-.18-.667-.296-.177-.146-.5-.145-.668-.297-1.086-.147-2.3-.17-3.555-.148-1.03.105-2.115.16-3.04.37-.922.19-1.51.713-2.296 1.038.154.242.635.154.964.22.03.167.394.004.444.15.257-.06.285.11.52.074.563.2 1.23.302 1.704.593.282.138.406.433.667.593.032.19.102.34.22.444.048.275.202.44.15.815.11.21.298.342.295.666-.074.148-.128.317-.296.372-.027.196-.38.067-.445.22-.255-.03-.416.03-.593.076-.154.043-.487-.09-.52.074-.84.023-1.3.43-1.852.74.43.262 1.032.352 1.334.742.516.076 1.057.13 1.112.666 0 .717-.77.66-1.333.815-.774.662-1.195 1.673-1.78 2.52.24.158.565.227.74.445.456-.057.54.25.668.52.02.488-.33.605-.59.815-.26.21-.476.462-.668.74-.003.82-.022 1.652.074 2.372.063.014.07-.03.074-.074.226-.44.56-.775.815-1.186.532-.357.925-.853 1.556-1.11.453-.414 1.11-.623 1.558-1.04.6-.262 1.158-.57 1.704-.888.67-.195 1.056-.673 2-.593.2.1.394.2.594.298.257.456-.06 1.08.147 1.63.255.66.797 1.03 1.26 1.482.29.155.555.335.815.52.347.096.675.215.964.37.376.018.713.077 1.037.147h1.26c.243-.052.474-.12.74-.148.208-.138.38-.314.665-.37.79-.695 1.27-1.697 1.41-3.04-.124-.485.05-.874 0-1.482m3.408 4.075c-.227.367-.91.278-1.408.372h-1.112c.142.352.343.646.52.963.055.438.254.734.222 1.26.13.166.176.416.296.592.105.145.243.478.075.667-.05.22-.294.248-.592.222-.088-.037-.17-.08-.222-.15-.447-.432-.777-1.012-1.26-1.407-.01-.008-.06 0-.074 0-.087-.004-.033-.046-.075-.074-.146-.098-.256-.153-.368-.223-.284-.177-.547-.445-.89-.52-.53.212-1.157.327-1.852.37-1.158-.1-2.303-.214-3.04-.74-.91-.35-1.475-1.042-2.148-1.63-.05-.32-.342-.398-.37-.74-.005-.046-.012-.09-.073-.075.042-.24-.052-.345-.076-.518 0-.133.2-.432 0-.52-.822.12-1.485.63-2.15.964-.717.36-1.467.603-2.073 1.11-.715.323-1.26.817-1.777 1.335-.21.31-.542.495-.668.89-.38.164-.175.912-.74.89-.316.042-.345-.2-.445-.372-.07-.225-.36-.23-.37-.517-.005-.046-.012-.09-.075-.075-.17-1.09-.528-1.992-.52-3.26.13-.415.35-.738.594-1.038-.42-.05-.717-.222-.89-.52-.06-1.072.377-1.646.74-2.296.135-.383.352-.684.594-.963.017-.228.206-.287.296-.444.018-.105.122-.125.15-.222-.042-.106.287-.18.072-.22-.413-.132-1.016-.07-1.26-.372-.11-.28-.11-.833 0-1.112.034-.237.283-.26.297-.518.498-.417 1.08-.747 1.63-1.112.574-.166 1.21-.27 1.852-.37-.102-.343-.338-.55-.593-.742-.78-.38-1.85-.473-2.743-.74-.555-.038-.956-.23-1.556-.223C1.04 3.878.52 3.93.26 3.783c-.122-.07-.102-.096-.223-.22-.134-.413.11-.74.444-.89-.004-.254.22-.277.372-.372.09-.18.254-.29.445-.37.544-.467 1.268-.758 1.927-1.11.83-.184 1.648-.377 2.52-.52.895-.116 1.9-.124 2.815-.22h.962c.51-.133 1.23-.055 1.853-.076.094.102.322.074.518.075.523.267 1.196.383 1.63.74.575.24.99.64 1.558.888.867.765 1.937 1.325 2.52 2.373.204.19.35.44.445.74.264.157.384.455.592.668.405.41.706.924 1.037 1.408.32.496.577 1.054.89 1.556-.01.405.306.484.296.89.193.225.177.66.37.888-.032.255.03.415.075.594.047 1.28-.047 2.422-.297 3.407.588.156 1.18.303 1.63.594.527.185 1 .582.815 1.26"/></g></symbol>

  <symbol xmlns="http://www.w3.org/2000/svg" viewBox="0 0 62.239601 108.92187" id="flag"><path d="M0 108.922h5.072V.002H0zm10.373-51.868L62.24 31.12 10.372 5.186z" fill="#63d1bb"/><path d="M0 108.922h5.072V.002H0z" fill="#231f20"/></symbol>

  <symbol xmlns="http://www.w3.org/2000/svg" viewBox="0 0 135.48666 45.4076" id="logo-footer"><defs><clipPath id="a"><path d="M0 34.056h101.615V0H0z"/></clipPath></defs><g clip-path="url(#a)" transform="matrix(1.33333 0 0 -1.33333 0 45.408)"><path d="M19.135 12.56c-.083 2.683-.51 5.347-.475 8.035.028 2.175.39 4.41-.36 6.495.047.237.096.473.14.71.194 1.045-3.27.492-3.813-.464-.344-.28-.52-.614-.375-.955.037-.086.07-.173.102-.26-.656-3.204-1.57-6.306-2.62-9.412-.404-1.188-.89-2.35-1.3-3.533-.58 1.104-1.17 2.194-1.642 3.377-1.373 3.433-2.612 6.902-4.287 10.206.19 1.53-3.203 1.368-3.872-.03-.81-1.696-.705-3.405-.44-5.216.3-2.042.354-4.05.38-6.11.046-3.977.357-7.945.416-11.92-.355-.395-.462-.88-.092-1.375.162-.216.362-.382.57-.55.905-.723 3.5-.106 3.497 1.273-.015 4.122-.312 8.236-.42 12.357-.012.403-.018.807-.025 1.21l.172-.434c.64-1.604 1.31-3.163 2.185-4.654C7.744 9.83 8.18 8.244 8.68 6.63c-.19-.217-.303-.462-.233-.708-.04-.18.07-.292.25-.36.64-.548 1.842-.275 2.51.007.287.122.56.26.826.425.346.21.884.678.73 1.158-.03.093-.06.186-.087.28.47 1.27.71 2.588.965 3.93.273 1.427.783 2.78 1.296 4.132.052-.62.106-1.238.156-1.855.204-2.554.033-5.072.007-7.627-.01-.847.053-1.633.218-2.46.068-.344.367-1.808.28-1.888-.61-.564-.432-1.256.386-1.436.915-.202 2.08.104 2.77.74 1.198 1.108.63 2.846.36 4.242-.453 2.342.094 4.964.02 7.348M27.5 11.885c-.075 1.988-.766 3.862-.775 5.872-.01 2.305.18 4.593-.155 6.886-.106.725-4.056-.1-3.917-1.05.308-2.11.197-4.23.16-6.354-.038-2.045.467-3.898.73-5.905.268-2.054-.085-4.157.15-6.213.108-.962.75-2.743.088-3.58-.42-.532 1.47-.342 1.554-.326.77.14 1.793.39 2.304 1.038.653.828.196 2.425.053 3.357-.316 2.06-.114 4.196-.19 6.275M43.828 15.205c-2.062 2.784-5.89.78-8.56 1.54-1.378.392-1.396 2.27-1.393 3.396.004 1.427-.113 2.733-.273 4.147-.118 1.052-.024 2.12.746 2.904.142.145.86.337.81.34.354.06.676.075 1.067.092 1.55.067 4.613-.23 4.02-2.483-.267-1.01 3.596-.432 3.877.636 1.213 4.597-7.284 3.714-9.686 3.077-2.21-.585-4.65-1.844-4.776-4.397-.06-1.22.273-2.38.325-3.587.06-1.39-.198-2.777.29-4.12 1.08-2.98 5.52-1.575 7.777-1.744 3.845-.287 2.696-5.468 2.747-7.883.027-1.288 1.18-3.43.21-4.507-.595-.662-1.982-.7-2.792-.768-.813-.068-2.2-.312-2.742.46-.993 1.42.09 3.8-.12 5.426-.12.924-4.067.095-3.918-1.05.343-2.627-1.4-6.145 2.402-6.596 2.442-.29 5.192.16 7.5.928 1.196.397 2.307.942 3.243 1.793 1.035.94.695 2.347.417 3.546-.676 2.918.732 6.28-1.172 8.85M61.155 15.394c-.122 3.777-.69 7.513-.706 11.297-.01 1.972-3.964 1.306-3.958-.342.016-3.608.497-7.166.683-10.764l.012-.22c-1.95.017-3.9-.178-5.852-.246.2 4.633-.612 9.227-.435 13.857.022.582-3.873.09-3.917-1.05-.17-4.474.587-8.914.453-13.39-.064-2.137-.245-4.265-.26-6.403-.007-1.094.172-2.182.33-3.262.145-1 .483-2.33.18-3.32-.236-.77 3.56-.29 3.863.696.543 1.778-.223 4.038-.406 5.838-.175 1.725-.04 3.5.083 5.248 2.03.13 4.06.298 6.08.012.09-1.378.196-2.754.322-4.134.105-1.157.178-2.314.195-3.475.016-1.02.142-2.496-.22-3.46-.773-2.058 3.15-1.89 3.722-.365.703 1.87.503 4.198.383 6.163-.15 2.444-.477 4.874-.555 7.32M78.087 10.92c-.94 2.757-2.373 5.176-3.616 7.796 1.002 1.95 2.018 3.9 2.932 5.89.83 1.806 1.447 3.817 3.08 5.09.574.448.55.896-.255.952-.875.06-2.064-.192-2.77-.742-1.485-1.158-2.426-2.563-3.2-4.268-.932-2.05-1.897-4.063-2.914-6.075-.074-.147-.15-.295-.223-.443-.49-.315-.785-.762-.64-1.266-.79-1.564-1.6-3.117-2.498-4.61-.3 5.533-.955 11.06-1.15 16.6-.045 1.27-3.972.48-3.917-1.05.242-6.868 1.218-13.72 1.286-20.587-.015-.017-.03-.034-.047-.05-.3-.31-.19-.494.052-.602.002-1.75-.06-3.502-.21-5.255-.47-.745.464-1.138 1.085-1.138h.096c.74 0 2.626.35 2.72 1.364.19 2.1.25 4.196.23 6.29 1.59 1.716 2.89 3.63 4.056 5.636.76-1.48 1.482-2.972 1.988-4.582.86-2.74 2.3-5.26 3.13-8.014.546-1.806 4.458-.738 3.918 1.05-.83 2.75-2.205 5.295-3.13 8.013M86.972 15.705c-.103 1.245-.217 2.49-.303 3.743-.16 2.33.116 5.583 2.29 7 .58.378 1.674.314 2.353.437.97.175 1.956.388 2.83-.19 1.21-.802.912-3.657.91-4.87-.002-2.005.208-4 .31-6.003-.552-.055-1.11-.09-1.683-.076-2.286.054-4.543.414-6.708-.04m14.62-.152c-.21.832-1.373.85-2.273.77-.013.336-.02.672-.037 1.006-.125 2.662-.165 5.38-.392 8.032-.208 2.458-1.584 3.338-3.97 3.247-2.416-.093-5.23-.53-7.483-1.405-2.607-1.013-4.058-2.934-4.558-5.68-.55-3.014.238-6.22.372-9.247.154-3.503.066-7.013.062-10.518 0-.574 3.916-.032 3.917 1.05.004 2.775.044 5.55 0 8.325-.01.82-.05 1.632-.1 2.444 1.368.592 3.686-.013 5.05-.142 1.107-.105 2.168.166 3.244.29.02-2.31.107-4.633.202-6.943.05-1.184.476-3.53-.354-4.51-.436-.516 1.48-.343 1.555-.33.793.146 1.76.4 2.303 1.04.95 1.12.456 3.79.4 5.127-.077 1.91-.1 3.823-.14 5.737 1.153.148 2.415.855 2.2 1.704M24.108 27.355c.52.05 1.045.226 1.477.524l.256.217c.52.334.973.826.73 1.36-.504 1.105-.423 2.23-.416 3.414.006.96-.963 1.247-1.78 1.176-.724-.065-2.17-.582-2.176-1.52-.006-.994-.07-2.017.11-2.993-.048-.113-.075-.24-.105-.356-.055-.212.016-.42.142-.59l.003-.134.014-.335c.074-.232.216-.41.43-.53.386-.233.877-.275 1.316-.233"/></g></symbol>

  <symbol xmlns="http://www.w3.org/2000/svg" viewBox="0 0 42.666668 29.333332" id="video"><defs><clipPath id="a"><path d="M0 22h32V0H0z"/></clipPath></defs><g clip-path="url(#a)" transform="matrix(1.33333 0 0 -1.33333 0 29.333)"><path d="M20 11c0 .553-.447 1-1 1h-4c-.553 0-1-.447-1-1 0-.553.447-1 1-1h4c.553 0 1 .447 1 1m-8 1H4V4h8zm12 0V4c0-2.21-1.79-4-4-4H4C1.79 0 0 1.79 0 4v8c0 2.21 1.79 4 4 4h10c0 1.105.895 2 2 2v2H5c-.553 0-1 .447-1 1 0 .553.447 1 1 1h12c.553 0 1-.447 1-1v-3c1.105 0 2-.895 2-2 2.21 0 4-1.79 4-4m2 0l6 4V0l-6 4z"/></g></symbol>

  <symbol xmlns="http://www.w3.org/2000/svg" viewBox="0 0 134.23734 102.52213" id="play"><defs><clipPath id="a"><path d="M0 76.892h100.678V0H0z"/></clipPath></defs><g clip-path="url(#a)" transform="matrix(1.33333 0 0 -1.33333 0 102.522)"><path d="M96.956 58.742s-.92 7.008-3.785 10.078c-3.63 4.04-7.673 4.067-9.54 4.297-13.326 1.023-33.303 1.023-33.303 1.023h-.05s-19.98 0-33.305-1.023c-1.868-.23-5.91-.256-9.54-4.297-2.84-3.096-3.787-10.078-3.787-10.078s-.895-8.21-.895-16.422v-7.7c0-8.21.947-16.42.947-16.42s.92-7.01 3.785-10.078c3.632-4.04 8.364-3.913 10.487-4.35 7.62-.766 32.355-1.02 32.355-1.02s20.003.024 33.328 1.047c1.867.23 5.908.255 9.54 4.297 2.84 3.07 3.786 10.078 3.786 10.078s.946 8.21.946 16.42v7.7c-.024 8.236-.97 16.447-.97 16.447" fill="#63d1bb"/><path d="M18.37 6.498c7.478-.73 31.217-.99 31.97-.997.656.002 20.134.05 33.046 1.037.177.022.37.04.58.063 1.836.185 4.607.467 7.185 3.335l.028.028c1.825 1.974 2.852 6.93 3.075 8.553.058.513.926 8.357.926 16.08v7.698c-.025 7.76-.898 15.627-.953 16.11-.32 2.38-1.433 6.788-3.065 8.538l-.035.038c-2.577 2.87-5.352 3.15-7.187 3.336-.21.022-.4.04-.58.063-13.065.996-32.833 1.01-33.032 1.01h-.05c-.2 0-19.97-.014-33.034-1.01-.177-.023-.37-.042-.58-.064-1.835-.186-4.607-.467-7.187-3.336l-.018-.02c-1.83-1.993-2.857-6.925-3.083-8.553-.062-.59-.875-8.4-.875-16.09V34.62c0-7.75.87-15.6.926-16.084.32-2.38 1.433-6.79 3.066-8.54l.035-.038c2.32-2.584 5.302-2.975 7.478-3.26.48-.06.94-.12 1.363-.2M50.315 0H50.3C49.283.013 25.35.27 17.694 1.04l-.14.014-.137.028c-.272.056-.668.107-1.126.167-2.503.328-7.16.938-10.84 5.02C2.1 9.882 1.077 17.037.97 17.842l-.005.043C.925 18.227 0 26.35 0 34.62v7.7c0 8.266.875 16.378.912 16.72l.01.07c.107.803 1.154 7.93 4.472 11.558 3.997 4.44 8.532 4.9 10.712 5.12.193.022.37.038.53.06l.126.012c13.277 1.02 33.312 1.032 33.514 1.032h.05c.202 0 20.236-.013 33.515-1.032l.127-.012c.16-.022.337-.038.53-.06 2.178-.22 6.71-.68 10.702-5.11 3.354-3.617 4.377-10.772 4.483-11.577l.004-.042c.04-.343.965-8.46.99-16.753v-7.708c0-8.274-.925-16.396-.964-16.737l-.007-.052c-.108-.806-1.156-7.954-4.48-11.563C91.234 1.81 86.702 1.35 84.52 1.128c-.192-.02-.37-.037-.53-.057l-.126-.01C70.59.037 50.53 0 50.33 0z" fill="#fff"/><path d="M38.434 56.313V20.603L68.18 38.46z" fill="#fff"/></g></symbol>

  <!-- <symbol xmlns="http://www.w3.org/2000/svg" viewBox="0 0 114.1192 46.712269" height="46.712" width="114.119" id="logo-mobile"<defs><clipPath id="a"><path d="M0 35.034h85.59V0H0z"/></clipPath></defs><g clip-path="url(#a)" transform="matrix(1.33333 0 0 -1.33333 0 46.712)"><path d="M4.18 8.733c-.014 3.472-.262 6.938-.356 10.41-.008.34-.015.68-.02 1.02.05-.122.097-.243.146-.365.54-1.35 1.102-2.663 1.838-3.92.732-1.244 1.1-2.58 1.52-3.94-.158-.18-.255-.39-.195-.595-.034-.15.058-.245.212-.305.537-.46 1.55-.232 2.113.008.242.1.473.22.696.355.29.182.744.573.613.978l-.072.235c.397 1.068.598 2.18.814 3.308.23 1.207.658 2.345 1.09 3.486.043-.52.088-1.044.13-1.567.173-2.148.028-4.27.007-6.422-.008-.713.046-1.375.184-2.076.06-.287.31-1.52.236-1.588-.516-.475-.366-1.06.326-1.21.772-.17 1.753.087 2.333.625 1.01.932.53 2.395.304 3.57-.386 1.973.076 4.18.016 6.19-.07 2.26-.43 4.503-.4 6.77.024 1.83.328 3.713-.303 5.47.04.2.08.398.118.6.164.878-2.753.413-3.21-.392-.29-.236-.44-.52-.315-.806.03-.07.057-.147.084-.22-.553-2.698-1.322-5.312-2.208-7.93-.34-1-.748-1.975-1.095-2.976-.49.933-.986 1.85-1.383 2.847-1.156 2.89-2.2 5.813-3.61 8.595.16 1.29-2.698 1.154-3.262-.026-.682-1.426-.592-2.866-.37-4.393.255-1.72.3-3.412.32-5.148.04-3.347.3-6.69.352-10.04-.298-.33-.39-.74-.078-1.158.136-.182.306-.322.483-.46.755-.612 2.945-.093 2.94 1.07M22.377 27.105c-.09.613-3.416-.084-3.3-.885.258-1.776.166-3.56.135-5.35-.03-1.723.393-3.284.615-4.972.226-1.732-.07-3.502.126-5.235.09-.812.632-2.312.074-3.018-.354-.447 1.238-.285 1.31-.275.646.12 1.51.33 1.938.875.552.698.165 2.043.045 2.828-.266 1.733-.096 3.536-.162 5.285-.06 1.676-.643 3.254-.65 4.946-.01 1.946.153 3.87-.13 5.802M25.5 20.46c.91-2.514 4.648-1.327 6.55-1.47 3.24-.24 2.273-4.608 2.314-6.64.023-1.086.995-2.89.18-3.8-.503-.555-1.67-.588-2.353-.646-.685-.056-1.852-.26-2.31.39-.836 1.194.077 3.2-.102 4.568-.102.78-3.424.08-3.3-.883.292-2.212-1.177-5.176 2.024-5.557 2.06-.244 4.372.136 6.317.783 1.007.334 1.943.792 2.73 1.51.873.793.586 1.978.352 2.986-.57 2.458.617 5.29-.987 7.454-1.738 2.345-4.962.658-7.212 1.297-1.16.33-1.175 1.91-1.17 2.86.002 1.203-.097 2.302-.23 3.492-.1.886-.022 1.787.627 2.447.12.12.722.283.68.286.3.05.573.063.9.076 1.304.056 3.886-.195 3.386-2.09-.225-.852 3.03-.365 3.266.536 1.02 3.874-6.138 3.13-8.16 2.592-1.862-.494-3.915-1.554-4.023-3.704-.052-1.027.23-2.006.274-3.022.053-1.17-.165-2.337.246-3.466M39.955 18.59c-.053-1.8-.208-3.593-.22-5.393-.006-.92.146-1.84.28-2.75.12-.84.406-1.963.15-2.795-.197-.647 3-.243 3.255.586.458 1.498-.188 3.403-.34 4.918-.148 1.452-.033 2.946.07 4.42 1.71.11 3.42.25 5.12.01.077-1.162.164-2.32.273-3.482.088-.976.15-1.95.164-2.93.015-.855.12-2.098-.185-2.912-.65-1.732 2.656-1.59 3.136-.308.592 1.577.423 3.537.323 5.195-.13 2.057-.403 4.105-.468 6.165-.102 3.182-.58 6.33-.594 9.515-.007 1.66-3.338 1.1-3.33-.288.01-3.04.416-6.037.57-9.068.005-.06.008-.12.01-.185-1.64.015-3.28-.15-4.93-.208.172 3.903-.513 7.772-.363 11.672.02.492-3.264.077-3.3-.883-.145-3.77.493-7.51.38-11.28M54.035 13.22c-.254-.26-.16-.415.045-.507 0-1.473-.05-2.95-.178-4.424-.396-.63.39-.96.912-.96h.082c.622 0 2.21.292 2.29 1.148.162 1.768.21 3.535.196 5.3 1.337 1.445 2.433 3.055 3.416 4.747.64-1.248 1.247-2.505 1.675-3.862.725-2.31 1.938-4.43 2.637-6.75.46-1.52 3.754-.62 3.298.885-.7 2.32-1.856 4.462-2.638 6.75-.79 2.322-1.998 4.36-3.046 6.568.845 1.64 1.7 3.284 2.47 4.96.698 1.525 1.22 3.216 2.594 4.29.483.375.464.754-.216.8-.737.054-1.738-.16-2.334-.625-1.25-.972-2.042-2.157-2.694-3.593-.784-1.726-1.598-3.42-2.455-5.118l-.19-.374c-.41-.263-.66-.64-.538-1.064-.666-1.317-1.347-2.627-2.104-3.885-.252 4.66-.803 9.317-.97 13.983-.035 1.07-3.344.404-3.296-.885.204-5.785 1.024-11.557 1.083-17.34-.013-.017-.027-.032-.04-.046M78.907 19.612c-1.928.046-3.828.35-5.65-.036-.087 1.05-.184 2.098-.256 3.154-.133 1.962.1 4.702 1.928 5.896.493.318 1.414.263 1.985.368.82.147 1.647.328 2.384-.16 1.017-.676.768-3.08.765-4.1-.002-1.69.177-3.37.262-5.06-.465-.045-.938-.072-1.417-.062m6.662-.162c-.178.7-1.156.716-1.915.648-.01.282-.017.567-.03.85-.106 2.24-.138 4.53-.328 6.764-.176 2.07-1.335 2.81-3.346 2.734-2.034-.077-4.403-.443-6.3-1.183-2.198-.852-3.422-2.47-3.842-4.784-.464-2.54.202-5.24.314-7.79.13-2.95.056-5.91.054-8.86 0-.484 3.296-.027 3.296.885.004 2.337.038 4.675 0 7.013-.01.69-.043 1.374-.085 2.057 1.156.5 3.107-.01 4.255-.118.933-.09 1.827.137 2.733.244.016-1.945.09-3.904.17-5.85.042-.997.402-2.974-.297-3.8-.368-.434 1.25-.287 1.31-.28.667.125 1.482.34 1.94.878.8.942.383 3.192.337 4.316-.066 1.612-.086 3.223-.12 4.834.97.13 2.036.727 1.854 1.442M18.7 30.93c-.047-.18.014-.357.12-.498l.002-.114c.004-.094.01-.188.013-.283.06-.194.18-.342.362-.446.325-.197.737-.233 1.108-.197.44.04.882.19 1.246.44.073.06.143.12.216.182.44.282.82.697.613 1.146-.425.933-.36 1.88-.35 2.876.004.808-.812 1.05-1.502.99-.608-.054-1.827-.49-1.83-1.28-.008-.836-.062-1.698.09-2.522-.04-.092-.064-.198-.087-.295M80.278 1.745c-1.558.585-3.283.615-4.85.787-1.603.17-3.246.41-4.884.563-1.637-.053-3.31-.028-4.972-.13l-4.88-.267c-6.487-.29-13-.253-19.517-.107-6.516.124-13.044.477-19.63.454-3.288-.008-6.565-.1-9.862-.25-1.632-.283-3.24-.5-4.904-.913C5.163 1.48 3.633.975 1.984.834 3.608.47 5.325.54 6.947.536c1.58-.01 3.243-.143 4.872-.23 3.228.17 6.486.245 9.732.256 6.488.025 13.015-.33 19.566-.45C47.666-.036 54.232-.075 60.8.22l4.908.268c1.602.07 3.198.127 4.83.067 1.627.15 3.252.33 4.917.533 1.664.238 3.22.627 4.854.51l.073-.007.006.054c.02.178-.04.324-.04.48-.036-.128-.04-.265-.072-.382"/></g></symbol>

  <symbol xmlns="http://www.w3.org/2000/svg" viewBox="0 0 149.85201 61.449867" height="61.45" width="149.852" id="logo-tablet"><defs><clipPath id="a"><path d="M0 46.087h112.39V0H0z"/></clipPath></defs><g clip-path="url(#a)" transform="matrix(1.33333 0 0 -1.33333 0 61.45)"><path d="M110.228 4.207c4.394-.868.843 35.858.147 38.31-1.96 6.57-26.676 2.144-32.18 1.718-12.722-.987-25.188.96-37.61.376-6.206-.292-34.854 1.814-37.52-1.986C-1.983 35.417.413 16.827 1.788 7.55c-4.043-.78 2.308-4.156 3.137-4.9 6.315-2.19 16.36.22 23.008-.394C43.367.784 59.73 4.45 75.208 3.21c4.497-1.143 9.604-1.018 14.224-1.238 3.414-5.573 19.664 2.46 20.796 2.235-.1.02.507-.1 0 0"/><path d="M26.06 21.678c-.08 2.546-.485 5.074-.452 7.624.027 2.064.37 4.185-.34 6.164.043.224.09.448.13.674.185.992-3.102.467-3.618-.44-.325-.266-.492-.584-.354-.908.034-.08.065-.164.096-.247-.623-3.04-1.49-5.985-2.487-8.93-.383-1.13-.843-2.23-1.232-3.355-.554 1.05-1.11 2.084-1.56 3.206-1.303 3.257-2.48 6.55-4.07 9.685.182 1.452-3.038 1.3-3.673-.03-.767-1.607-.668-3.23-.415-4.948.285-1.938.334-3.842.358-5.8.045-3.77.34-7.537.396-11.31-.336-.372-.44-.835-.088-1.305.154-.203.344-.362.542-.52.86-.687 3.323-.1 3.318 1.207-.013 3.91-.295 7.815-.4 11.726-.01.383-.015.766-.02 1.15.054-.138.107-.276.162-.412.607-1.522 1.243-3 2.073-4.416.823-1.4 1.236-2.908 1.71-4.437-.178-.206-.286-.44-.22-.674-.037-.168.067-.274.24-.34.605-.52 1.746-.26 2.38.007.272.114.532.247.784.402.328.2.84.643.692 1.098l-.083.265c.446 1.204.673 2.456.916 3.727.26 1.357.742 2.64 1.23 3.925.048-.588.1-1.177.147-1.763.193-2.42.03-4.81.008-7.236-.008-.803.05-1.55.208-2.337.064-.325.348-1.715.267-1.79-.58-.536-.413-1.193.365-1.364.868-.19 1.975.1 2.63.705 1.136 1.05.598 2.7.34 4.025-.432 2.22.09 4.71.02 6.973M33.995 21.035c-.07 1.888-.725 3.666-.734 5.573-.01 2.188.173 4.358-.146 6.534-.1.69-3.848-.094-3.717-.996.293-2.002.187-4.013.15-6.03-.034-1.94.445-3.698.695-5.602.254-1.95-.08-3.945.14-5.897.103-.913.713-2.603.085-3.398-.4-.506 1.394-.324 1.474-.31.73.135 1.702.37 2.187.986.62.785.186 2.3.05 3.185-.3 1.957-.108 3.984-.182 5.955M49.492 24.188c-1.957 2.64-5.59.74-8.125 1.46-1.308.373-1.323 2.156-1.32 3.224.004 1.353-.108 2.592-.26 3.935-.11.997-.022 2.01.71 2.754.134.14.814.32.767.324.335.058.643.072 1.013.088 1.47.063 4.377-.22 3.815-2.357-.253-.958 3.412-.41 3.68.605 1.15 4.364-6.915 3.526-9.193 2.92-2.098-.556-4.412-1.75-4.532-4.173-.058-1.156.257-2.258.31-3.404.056-1.32-.19-2.635.272-3.907 1.027-2.83 5.238-1.495 7.38-1.656 3.65-.272 2.56-5.19 2.608-7.48.025-1.225 1.122-3.256.2-4.28-.565-.626-1.88-.663-2.648-.728-.773-.064-2.09-.296-2.604.44-.942 1.343.088 3.604-.114 5.145-.114.88-3.858.09-3.717-.995.325-2.492-1.328-5.83 2.28-6.258 2.317-.275 4.925.153 7.117.88 1.135.377 2.188.895 3.077 1.702.98.892.657 2.228.395 3.366-.642 2.768.694 5.956-1.113 8.396M65.934 24.366c-.114 3.584-.653 7.13-.67 10.72-.006 1.87-3.76 1.238-3.753-.325.015-3.424.473-6.8.647-10.215l.01-.21c-1.848.018-3.698-.168-5.55-.232.19 4.396-.58 8.756-.412 13.15.02.552-3.677.085-3.718-.996-.162-4.247.557-8.46.43-12.71-.06-2.025-.233-4.045-.247-6.073-.007-1.04.163-2.074.312-3.098.138-.947.46-2.212.172-3.15-.223-.73 3.38-.275 3.666.66.515 1.687-.21 3.834-.383 5.54-.167 1.637-.04 3.32.078 4.982 1.925.123 3.852.28 5.77.01.084-1.307.185-2.613.304-3.924.1-1.098.17-2.194.186-3.297.015-.966.135-2.368-.21-3.283-.734-1.953 2.99-1.792 3.533-.346.666 1.775.476 3.984.362 5.85-.143 2.32-.454 4.626-.528 6.948M82.002 20.12c-.892 2.617-2.252 4.913-3.43 7.4.95 1.85 1.914 3.7 2.782 5.587.788 1.715 1.373 3.624 2.92 4.833.546.424.524.85-.242.902-.83.058-1.958-.18-2.63-.704-1.407-1.1-2.3-2.433-3.034-4.05-.885-1.946-1.8-3.857-2.764-5.765-.07-.14-.14-.28-.213-.42-.464-.3-.743-.724-.606-1.202-.75-1.483-1.517-2.958-2.37-4.374-.284 5.25-.906 10.496-1.094 15.752-.04 1.205-3.767.455-3.714-.996.23-6.517 1.155-13.02 1.22-19.536-.016-.017-.03-.033-.047-.048-.286-.293-.18-.47.05-.57.002-1.662-.057-3.324-.2-4.987-.447-.708.44-1.08 1.03-1.08h.092c.7 0 2.49.33 2.58 1.294.18 1.992.236 3.982.22 5.97 1.508 1.628 2.74 3.445 3.848 5.35.72-1.407 1.406-2.823 1.887-4.35.817-2.603 2.182-4.992 2.97-7.606.518-1.712 4.23-.7 3.718.997-.79 2.612-2.092 5.025-2.973 7.605M90.435 24.66c-.1 1.184-.207 2.365-.288 3.553-.15 2.212.11 5.3 2.172 6.642.552.36 1.59.298 2.234.416.922.166 1.857.37 2.685-.18 1.147-.762.864-3.47.862-4.62-.002-1.904.198-3.797.295-5.698-.524-.052-1.056-.084-1.597-.072-2.17.052-4.31.393-6.365-.04m13.872-.142c-.2.79-1.302.807-2.156.73-.01.32-.02.638-.032.957-.12 2.525-.16 5.104-.37 7.622-.2 2.33-1.506 3.167-3.77 3.08-2.294-.087-4.963-.5-7.102-1.33-2.474-.963-3.85-2.786-4.326-5.393-.522-2.86.227-5.9.354-8.774.146-3.325.062-6.656.058-9.98 0-.546 3.717-.03 3.717.995.003 2.633.04 5.268 0 7.9-.014.778-.05 1.55-.098 2.32 1.3.562 3.5-.012 4.792-.134 1.052-.1 2.06.156 3.08.276.02-2.193.1-4.4.19-6.59.048-1.122.454-3.35-.334-4.28-.414-.49 1.405-.326 1.475-.314.753.14 1.67.38 2.185.988.902 1.062.433 3.597.38 4.863-.073 1.815-.096 3.63-.134 5.444 1.096.143 2.295.814 2.09 1.62M30.778 35.718c.495.047.992.215 1.4.497.083.068.163.138.246.206.493.32.92.786.69 1.292-.48 1.05-.403 2.117-.395 3.24.005.91-.915 1.183-1.69 1.115-.687-.06-2.06-.552-2.064-1.443-.007-.942-.068-1.913.104-2.84-.047-.107-.072-.227-.1-.337-.052-.2.016-.398.136-.56l.002-.127.014-.317c.07-.22.205-.388.407-.503.366-.222.83-.263 1.248-.222"/></g></symbol>

  <symbol xmlns="http://www.w3.org/2000/svg" viewBox="0 0 149.85201 61.449867" height="61.45" width="149.852" id="logo-desktop"><defs><clipPath id="a"><path d="M0 46.087h112.39V0H0z"/></clipPath></defs><g clip-path="url(#a)" transform="matrix(1.33333 0 0 -1.33333 0 61.45)"><path d="M110.228 4.207c4.394-.868.843 35.858.147 38.31-1.96 6.57-26.676 2.144-32.18 1.718-12.722-.987-25.188.96-37.61.376-6.206-.292-34.854 1.814-37.52-1.986C-1.983 35.417.413 16.827 1.788 7.55c-4.043-.78 2.308-4.156 3.137-4.9 6.315-2.19 16.36.22 23.008-.394C43.367.784 59.73 4.45 75.208 3.21c4.497-1.143 9.604-1.018 14.224-1.238 3.414-5.573 19.664 2.46 20.796 2.235-.1.02.507-.1 0 0"/><path d="M26.06 21.678c-.08 2.546-.485 5.074-.452 7.624.027 2.064.37 4.185-.34 6.164.043.224.09.448.13.674.185.992-3.102.467-3.618-.44-.325-.266-.492-.584-.354-.908.034-.08.065-.164.096-.247-.623-3.04-1.49-5.985-2.487-8.93-.383-1.13-.843-2.23-1.232-3.355-.554 1.05-1.11 2.084-1.56 3.206-1.303 3.257-2.48 6.55-4.07 9.685.182 1.452-3.038 1.3-3.673-.03-.767-1.607-.668-3.23-.415-4.948.285-1.938.334-3.842.358-5.8.045-3.77.34-7.537.396-11.31-.336-.372-.44-.835-.088-1.305.154-.203.344-.362.542-.52.86-.687 3.323-.1 3.318 1.207-.013 3.91-.295 7.815-.4 11.726-.01.383-.015.766-.02 1.15.054-.138.107-.276.162-.412.607-1.522 1.243-3 2.073-4.416.823-1.4 1.236-2.908 1.71-4.437-.178-.206-.286-.44-.22-.674-.037-.168.067-.274.24-.34.605-.52 1.746-.26 2.38.007.272.114.532.247.784.402.328.2.84.643.692 1.098l-.083.265c.446 1.204.673 2.456.916 3.727.26 1.357.742 2.64 1.23 3.925.048-.588.1-1.177.147-1.763.193-2.42.03-4.81.008-7.236-.008-.803.05-1.55.208-2.337.064-.325.348-1.715.267-1.79-.58-.536-.413-1.193.365-1.364.868-.19 1.975.1 2.63.705 1.136 1.05.598 2.7.34 4.025-.432 2.22.09 4.71.02 6.973M33.995 21.035c-.07 1.888-.725 3.666-.734 5.573-.01 2.188.173 4.358-.146 6.534-.1.69-3.848-.094-3.717-.996.293-2.002.187-4.013.15-6.03-.034-1.94.445-3.698.695-5.602.254-1.95-.08-3.945.14-5.897.103-.913.713-2.603.085-3.398-.4-.506 1.394-.324 1.474-.31.73.135 1.702.37 2.187.986.62.785.186 2.3.05 3.185-.3 1.957-.108 3.984-.182 5.955M49.492 24.188c-1.957 2.64-5.59.74-8.125 1.46-1.308.373-1.323 2.156-1.32 3.224.004 1.353-.108 2.592-.26 3.935-.11.997-.022 2.01.71 2.754.134.14.814.32.767.324.335.058.643.072 1.013.088 1.47.063 4.377-.22 3.815-2.357-.253-.958 3.412-.41 3.68.605 1.15 4.364-6.915 3.526-9.193 2.92-2.098-.556-4.412-1.75-4.532-4.173-.058-1.156.257-2.258.31-3.404.056-1.32-.19-2.635.272-3.907 1.027-2.83 5.238-1.495 7.38-1.656 3.65-.272 2.56-5.19 2.608-7.48.025-1.225 1.122-3.256.2-4.28-.565-.626-1.88-.663-2.648-.728-.773-.064-2.09-.296-2.604.44-.942 1.343.088 3.604-.114 5.145-.114.88-3.858.09-3.717-.995.325-2.492-1.328-5.83 2.28-6.258 2.317-.275 4.925.153 7.117.88 1.135.377 2.188.895 3.077 1.702.98.892.657 2.228.395 3.366-.642 2.768.694 5.956-1.113 8.396M65.934 24.366c-.114 3.584-.653 7.13-.67 10.72-.006 1.87-3.76 1.238-3.753-.325.015-3.424.473-6.8.647-10.215l.01-.21c-1.848.018-3.698-.168-5.55-.232.19 4.396-.58 8.756-.412 13.15.02.552-3.677.085-3.718-.996-.162-4.247.557-8.46.43-12.71-.06-2.025-.233-4.045-.247-6.073-.007-1.04.163-2.074.312-3.098.138-.947.46-2.212.172-3.15-.223-.73 3.38-.275 3.666.66.515 1.687-.21 3.834-.383 5.54-.167 1.637-.04 3.32.078 4.982 1.925.123 3.852.28 5.77.01.084-1.307.185-2.613.304-3.924.1-1.098.17-2.194.186-3.297.015-.966.135-2.368-.21-3.283-.734-1.953 2.99-1.792 3.533-.346.666 1.775.476 3.984.362 5.85-.143 2.32-.454 4.626-.528 6.948M82.002 20.12c-.892 2.617-2.252 4.913-3.43 7.4.95 1.85 1.914 3.7 2.782 5.587.788 1.715 1.373 3.624 2.92 4.833.546.424.524.85-.242.902-.83.058-1.958-.18-2.63-.704-1.407-1.1-2.3-2.433-3.034-4.05-.885-1.946-1.8-3.857-2.764-5.765-.07-.14-.14-.28-.213-.42-.464-.3-.743-.724-.606-1.202-.75-1.483-1.517-2.958-2.37-4.374-.284 5.25-.906 10.496-1.094 15.752-.04 1.205-3.767.455-3.714-.996.23-6.517 1.155-13.02 1.22-19.536-.016-.017-.03-.033-.047-.048-.286-.293-.18-.47.05-.57.002-1.662-.057-3.324-.2-4.987-.447-.708.44-1.08 1.03-1.08h.092c.7 0 2.49.33 2.58 1.294.18 1.992.236 3.982.22 5.97 1.508 1.628 2.74 3.445 3.848 5.35.72-1.407 1.406-2.823 1.887-4.35.817-2.603 2.182-4.992 2.97-7.606.518-1.712 4.23-.7 3.718.997-.79 2.612-2.092 5.025-2.973 7.605M90.435 24.66c-.1 1.184-.207 2.365-.288 3.553-.15 2.212.11 5.3 2.172 6.642.552.36 1.59.298 2.234.416.922.166 1.857.37 2.685-.18 1.147-.762.864-3.47.862-4.62-.002-1.904.198-3.797.295-5.698-.524-.052-1.056-.084-1.597-.072-2.17.052-4.31.393-6.365-.04m13.872-.142c-.2.79-1.302.807-2.156.73-.01.32-.02.638-.032.957-.12 2.525-.16 5.104-.37 7.622-.2 2.33-1.506 3.167-3.77 3.08-2.294-.087-4.963-.5-7.102-1.33-2.474-.963-3.85-2.786-4.326-5.393-.522-2.86.227-5.9.354-8.774.146-3.325.062-6.656.058-9.98 0-.546 3.717-.03 3.717.995.003 2.633.04 5.268 0 7.9-.014.778-.05 1.55-.098 2.32 1.3.562 3.5-.012 4.792-.134 1.052-.1 2.06.156 3.08.276.02-2.193.1-4.4.19-6.59.048-1.122.454-3.35-.334-4.28-.414-.49 1.405-.326 1.475-.314.753.14 1.67.38 2.185.988.902 1.062.433 3.597.38 4.863-.073 1.815-.096 3.63-.134 5.444 1.096.143 2.295.814 2.09 1.62M30.778 35.718c.495.047.992.215 1.4.497.083.068.163.138.246.206.493.32.92.786.69 1.292-.48 1.05-.403 2.117-.395 3.24.005.91-.915 1.183-1.69 1.115-.687-.06-2.06-.552-2.064-1.443-.007-.942-.068-1.913.104-2.84-.047-.107-.072-.227-.1-.337-.052-.2.016-.398.136-.56l.002-.127.014-.317c.07-.22.205-.388.407-.503.366-.222.83-.263 1.248-.222"/></g></symbol> -->
</svg>
